<?xml version="1.0" encoding="utf-8"?>
<!-- Generator: Adobe Illustrator 21.1.0, SVG Export Plug-In . SVG Version: 6.00 Build 0)  -->
<svg version="1.1" id="Capa_1" xmlns="http://www.w3.org/2000/svg" xmlns:xlink="http://www.w3.org/1999/xlink" x="0px" y="0px"
	 viewBox="0 0 77.1 58.6" style="enable-background:new 0 0 77.1 58.6;" xml:space="preserve">
<g>
	<path d="M65.9,15.1c-0.6-5.3-7.3-9.4-18.5-11.4c-0.1,0-0.1,0-0.2,0c-2.5-2.3-6.3-3.8-10.6-3.8c-4,0-7.5,1.3-10,3.3
		c-0.1,0-0.2,0-0.2,0C12.2,4.7,3.7,9.5,3.7,15.8c0,4.6,3.8,8.8,10.5,11.7c-1.9,0.7-3.8,1.5-5.6,2.3c-2.6,1.2-5,2.3-6.6,2.4
		c-0.4,0-0.7,0.2-0.9,0.5c-0.2,0.2-1.5,2-1.1,3.8c0.2,1.1,0.9,1.8,1.5,2.4c0.4,0.4,0.7,0.7,0.9,1.2c0.4,0.7,0.4,2.2,0.2,3
		c-0.1,0.5,0.1,0.9,0.5,1.2c0.2,0.1,0.4,0.2,0.7,0.2c0.2,0,0.4,0,0.6-0.1c0.1-0.1,9.9-5.4,16-6.3c0,0,0.1,0,0.1,0
		c-2.3,1.4-4.5,3.4-6.5,5.2c-2.1,1.9-4.1,3.7-5.6,4.3c-0.3,0.1-0.6,0.4-0.7,0.7c-0.1,0.2-0.8,2.3,0.2,4c0.6,1,1.4,1.4,2.1,1.8
		c0.4,0.2,0.9,0.5,1.2,0.8c0.6,0.6,1,2,1.2,2.7c0.1,0.4,0.4,0.8,0.8,1c0.1,0,0.2,0.1,0.4,0.1c0.3,0,0.6-0.1,0.9-0.4
		c0.1-0.1,7.8-8.2,13.2-11c2.4-1.2,4.1-1.5,5.8-1.8c2.4-0.4,4.9-0.8,9-3.2c3.8-2.3,5.9-4.9,7.6-7c1.1-1.3,2-2.4,3.1-3.3
		c0.1,0,0.1,0.1,0.2,0.1c2.3,0.6,4.8,1,7.4,1c9.1,0,16.1-4,16.1-9.2C77.1,19.7,72.6,16.3,65.9,15.1z M36.6,2.3
		c6.3,0,11.4,3.7,11.4,8.2c0,2.3-5,5-11.4,5c-6.6,0-11.4-3.5-11.4-5C25.2,5.9,30.3,2.3,36.6,2.3z M2.4,36.1
		C2.4,36.1,2.4,36.1,2.4,36.1c-0.1-0.5,0.1-1.1,0.3-1.6c2-0.3,4.3-1.3,6.9-2.5c2.6-1.2,5.3-2.4,7.8-2.9c2.5-0.5,5-0.3,7.7,0
		c2.8,0.3,5.6,0.6,8.6,0c3.2-0.7,6.7-2.3,9.7-3.8c1.2-0.6,2.4-1.1,3.4-1.6c-0.8,0.7-1.8,1.6-2.7,2.6c-0.6,0.6-1.3,1.3-2,1.9
		c-1.9,1.1-4,2-6.6,2.2c-2.5,0.2-5.3,0-8.1-0.2c-3.8-0.3-7.4-0.5-9.9,0.2C13.6,31.5,4.2,35.4,2.4,36.1z M3.3,37.3
		c0-0.1-0.1-0.1-0.1-0.1c2.2-0.9,11.1-4.6,14.7-5.6c2.3-0.7,5.8-0.4,9.5-0.2c2.8,0.2,5.8,0.4,8.3,0.2c1.2-0.1,2.3-0.3,3.3-0.7
		c-0.8,0.6-1.6,1.2-2.4,1.7c-0.3,0.2-0.5,0.3-0.8,0.4c-2.5,0.1-5.7,0-8.8-0.2c-2.5-0.1-4.9-0.2-6.7-0.2C16,32.8,7.6,37.2,4.5,38.9
		C4.1,38.2,3.7,37.7,3.3,37.3z M20.1,35.6c-4.9,0.8-11.7,4-14.9,5.6c0-0.4-0.1-0.8-0.2-1.2c2.8-1.6,11.3-6.1,15.2-6.2
		c1.8-0.1,4.1,0.1,6.6,0.2c1.9,0.1,3.7,0.2,5.5,0.2c-1.1,0.3-2.2,0.5-3.3,0.8c-0.9,0.2-1.7,0.4-2.6,0.6
		C24.3,35.5,21.5,35.4,20.1,35.6z M10.2,51.1C10.2,51,10.1,51,10.2,51.1C9.9,50.6,9.9,50,10,49.5c1.8-0.9,3.6-2.6,5.8-4.5
		c2.1-1.9,4.3-3.9,6.5-5.2c2.2-1.3,4.7-1.8,7.3-2.4c2.7-0.6,5.5-1.2,8.2-2.7c2.9-1.6,5.6-4.3,8-6.6c1.8-1.7,3.5-3.3,4.6-4
		c2.1-1.2,6.1-2.3,7.8-2.8l0.4,0.8c-1.6,0.4-6.8,1.8-8.8,3.8c-0.7,0.7-1.4,1.5-2.2,2.6c-1.9,2.4-4.2,5.4-7.9,6.9
		c-2.3,0.9-5.1,1.7-7.8,2.3c-3.7,0.9-7.2,1.8-9.4,3.3C19.3,43.2,11.6,49.8,10.2,51.1z M13,53.1c-0.6-0.5-1.2-0.9-1.7-1.2
		c-0.1,0-0.1-0.1-0.2-0.1c1.8-1.6,9.1-7.8,12.2-9.9c2-1.3,5.4-2.2,9-3.1c2.7-0.7,5.6-1.4,7.9-2.4c4-1.7,6.4-4.8,8.3-7.3
		c0.8-1,1.4-1.8,2-2.4c2-1.9,7.6-3.3,8.6-3.6l0.7,1.3c0,0.1,0.1,0.1,0.1,0.2c-1.8,0.3-4.8,0.9-7.1,1.9c-2.1,0.9-3.8,3.2-5.5,5.4
		c-1.4,1.8-2.8,3.6-4.2,4.6c-2.1,1.4-6.7,2.6-10.9,3.7c-2.5,0.7-4.8,1.3-6.5,1.9C22,43.6,15.4,50.5,13,53.1z M48.4,33.7
		c-1.7,2-3.5,4.4-7,6.4c-3.7,2.2-5.8,2.6-8.1,2.9c-1.9,0.3-3.9,0.6-6.6,2c-4.4,2.3-9.9,7.4-12.4,10c-0.1-0.4-0.3-0.7-0.5-1.1
		c2.2-2.4,8.8-9.3,12.5-10.7c1.7-0.6,4-1.2,6.4-1.9c4.4-1.2,9-2.4,11.2-3.9c1.6-1.1,3.1-3,4.5-4.8c1.6-2.1,3.3-4.2,5-5
		c2.5-1.1,5.8-1.7,7.5-1.9c0.3,0.4,0.7,0.7,1.1,1c-2.2,0.3-5.2,0.9-7.9,2C51.6,29.8,50,31.7,48.4,33.7z M60.9,30.6
		c-1.3,0-2.6-0.1-3.8-0.3c4-1.2,8.1-1.5,8.1-1.5c0.5,0,0.9-0.4,1.1-0.9c0.1-0.5-0.1-1-0.5-1.3c-1.1-0.7-3.1-2.3-3.7-3.3l-2.2-4.1
		c-0.3-0.5-0.8-0.7-1.3-0.6c-0.2,0-3,0.8-5.8,1.8c-0.2-0.1-0.4-0.2-0.6-0.1c-1.4,0.1-2.6,0.2-3.5,0.3c-1.6,0.3-3.8,1.3-6.3,2.5
		c-2.9,1.4-6.2,3-9.1,3.6c-2.6,0.5-5.2,0.3-7.9,0c-2.3-0.2-4.7-0.5-7.2-0.2c-0.1-0.1-0.3-0.2-0.4-0.3c-7.3-2.5-11.6-6.5-11.6-10.5
		c0-4.6,7-8.4,18-9.9c-0.9,1.4-1.3,2.9-1.3,4.5c0,3.3,6.1,7.4,13.7,7.4c7.6,0,13.7-3.3,13.7-7.4c0-1.4-0.4-2.7-1-3.9
		c8.9,1.9,14.2,5.3,14.2,9.3l0,0.2c0,0.6,0.4,1.1,1,1.2c5.9,0.8,10.1,3.6,10.1,6.5C74.7,27.5,68.4,30.6,60.9,30.6z"/>
	<path d="M28.8,7.8c0.1,0,0.2,0.1,0.3,0.1c0.2,0,0.4-0.1,0.5-0.3c0.9-1.8,4-2.9,4-2.9c0.3-0.1,0.5-0.5,0.4-0.8s-0.5-0.5-0.8-0.4
		c-0.1,0.1-3.6,1.3-4.7,3.5C28.4,7.3,28.5,7.7,28.8,7.8z"/>
</g>
</svg>
