<?xml version="1.0" encoding="utf-8"?>
<!-- Generator: Adobe Illustrator 21.1.0, SVG Export Plug-In . SVG Version: 6.00 Build 0)  -->
<svg version="1.1" id="Capa_1" xmlns="http://www.w3.org/2000/svg" xmlns:xlink="http://www.w3.org/1999/xlink" x="0px" y="0px"
	 viewBox="0 0 75.5 75.5" style="enable-background:new 0 0 75.5 75.5;" xml:space="preserve">
<path d="M75.5,36.1c-0.2-3.2-2.3-4.6-4.6-5.3c-0.5-2-1.8-3.7-3.7-4.8c-1.8-1.1-3.9-1.4-5.9-0.9c-0.8,0.2-2,0.4-3.4,0.7
	c-0.2,0-0.3,0.1-0.5,0.2c-1.8-1.9-4.5-3.2-7.5-3.2c-2.8,0-5.4,1.1-7.2,2.9c-0.5-0.5-1-1-1.6-1.3c-1.1-0.5-2.4-0.5-3.5-0.5
	c-0.2,0-0.4,0-0.6,0c-1.3,0-2.2,0.7-2.9,1.2c-0.3,0.2-0.5,0.4-0.7,0.5c-0.2,0.1-0.5,0.3-0.8,0.4c-0.6,0.3-1.3,0.6-1.9,1.2
	c-1.7-2.7-4.8-4.5-8.4-4.5c-2.8,0-5.3,1.1-7,2.7c-0.9-0.1-1.8-0.3-2.7-0.4C8.2,24.4,4,26.9,3,31c0,0,0,0,0,0c-1.5,0.9-2.6,2.6-3,4.8
	c0,0,0,0.1,0,0.1c0,0.2-0.4,3.9,2.9,5.9c-0.2,1.6,0.2,3.3,1.2,4.8c1.3,1.9,3.4,3.3,5.8,3.7c8.9,1.6,18,2.3,27.1,2.3
	s18.2-0.8,27.1-2.3c2.4-0.4,4.6-1.8,5.8-3.7c0.9-1.3,1.3-2.9,1.2-4.4C74.5,41,75.5,37.8,75.5,36.1C75.5,36.1,75.5,36.1,75.5,36.1z
	 M68.2,36.9l3.2-3.2c0.6,0.4,1,0.8,1.3,1.2l-3.2,3.2C69.1,37.6,68.7,37.2,68.2,36.9z M70.2,33.1l-3,3c0,0,0,0,0,0.1
	c-0.6-0.3-1.1-0.6-1.8-0.7l2.7-2.7C69,32.8,69.6,33,70.2,33.1z M60.6,32.9c0.5,0,1-0.1,1.5-0.1l-2.7,2.7c-1,0.2-1.9,0.3-2.9,0.4l3-3
	C59.9,33,60.2,33,60.6,32.9z M64,32.7c1.1-0.1,1.9-0.1,2.5-0.1c0,0,0.1,0,0.1,0L64,35.2c-0.3,0-0.7-0.1-1-0.1c-0.5,0-1,0-1.5,0.1
	c0,0,0,0,0,0L64,32.7z M62,27.5c1.3-0.4,2.8-0.2,4,0.6c0.9,0.5,1.6,1.3,2.1,2.2c-0.7-0.1-1.2-0.1-1.6-0.1c-1.2,0-3.1,0.1-6.1,0.3
	c-0.2,0-0.5,0-0.8,0.1c-0.1-0.9-0.4-1.7-0.7-2.4C60.2,27.9,61.2,27.7,62,27.5z M57.6,33.2l-3,3c0,0-0.1,0.1-0.1,0.1
	c-0.9,0.1-1.9,0.2-2.8,0.3l3.2-3.2C55.9,33.3,56.8,33.2,57.6,33.2z M35.5,34.2l-3,3c-0.8,0-1.6-0.1-2.4-0.1l3-3
	C33.9,34.2,34.7,34.2,35.5,34.2z M40.6,31.6c-0.1,0.1-0.2,0.1-0.3,0.2c-0.8,0-1.5,0-2.2,0c-0.8,0-1.7,0-2.6,0c0-0.1,0-0.3,0.2-0.5
	c0.2-0.2,0.6-0.4,1-0.6c0.2,0,0.4-0.1,0.6-0.1c0.3,0,0.6,0.1,0.8,0.2c0.2,0.1,0.4,0.1,0.6,0c0.2-0.1,0.3-0.1,0.5-0.2
	c0.2-0.1,0.4-0.1,0.6-0.1c0.6,0,0.9,0.2,1,0.4C40.8,31.2,40.7,31.4,40.6,31.6z M37.2,34.3c0.3,0,0.6,0,0.9,0c0.5,0,1.1,0,1.6,0
	l-3.1,3.1c-0.8,0-1.6,0-2.5,0L37.2,34.3z M41.5,34.2c0.9,0,1.7,0,2.6-0.1l-3.2,3.2c-0.8,0-1.7,0-2.5,0L41.5,34.2z M46.1,31.3
	c0-0.1,0-0.1,0-0.2c-0.1-0.3-0.3-0.7-0.6-1.2c0,0,0,0,0,0c0.7-1.2,1.7-1.9,3.1-2.2l0,3.6l-0.8,0.1L46.1,31.3z M45.9,34l2.7-0.2
	l-3.3,3.3c-0.9,0-1.7,0.1-2.6,0.1L45.9,34z M50.4,33.7l2.7-0.2l-3.3,3.3c-0.9,0.1-1.8,0.1-2.7,0.2L50.4,33.7z M52,31l0.1-3.1
	c0.9,0.4,2.2,1.2,2.8,2.8L52,31z M50,25.3c3.7,0,6.7,2.4,7.2,5.5c-0.3,0-0.6,0-1,0.1c-0.8-3.4-4.4-4.3-4.6-4.4c-0.2,0-0.4,0-0.5,0.1
	c-0.1,0.1-0.2,0.3-0.2,0.5l-0.2,4.2l-1,0.1l0-4.2c0-0.2-0.1-0.3-0.2-0.4s-0.3-0.2-0.4-0.2c-2.2,0.1-3.6,1.2-4.4,2.3
	c-0.2-0.3-0.4-0.6-0.6-0.9l0,0C45.6,26.2,47.7,25.3,50,25.3z M32.3,29.2c0.2-0.4,0.8-0.6,1.4-0.9c0.3-0.1,0.7-0.3,1-0.5
	c0.4-0.2,0.7-0.4,1-0.7c0.5-0.4,1-0.7,1.4-0.7c0.2,0,0.4,0,0.6,0c0.9,0,1.9,0,2.4,0.2c0.8,0.4,1.5,1.5,1.9,2.2l0.2,0.3
	c0.3,0.5,1.2,1.9,1.5,2.6c-0.6,0-1.2,0-1.8,0.1c0.1-0.3,0.2-0.6,0.1-1c-0.2-0.8-1-1.3-2.1-1.3c-0.3,0-0.6,0-0.9,0.1
	c-0.1,0-0.3,0.1-0.4,0.1c-0.6-0.3-1.3-0.3-2.1-0.1c-0.6,0.2-1.2,0.5-1.6,0.9c-0.4,0.4-0.5,0.8-0.5,1.3c-0.6,0-1.3,0-1.9,0
	c0-0.4-0.1-0.8-0.1-1.1C32.2,29.9,32.1,29.5,32.3,29.2z M31.4,34.1l-3,3c-0.8,0-1.5-0.1-2.3-0.2l2.9-2.9
	C29.9,34.1,30.7,34.1,31.4,34.1z M15.5,33.3l-2.1,2.1c-0.3,0-0.6-0.1-0.8-0.1c-0.5-0.1-0.9-0.1-1.4-0.1l2-2
	C13.9,33.2,14.7,33.2,15.5,33.3z M21.1,31.2l-3.3-1.4c0.5-0.8,1.8-2.3,3.8-2.3c0.2,0,0.4,0,0.6,0L21.1,31.2z M17.1,33.4
	c0.8,0,1.5,0.1,2.3,0.1L17,35.9c-0.7-0.1-1.4-0.2-2.2-0.3L17.1,33.4z M21.1,33.6c0.8,0,1.6,0.1,2.3,0.1L21,36.1
	c-0.1,0.1-0.1,0.2-0.2,0.3c-0.8-0.1-1.6-0.2-2.3-0.3L21.1,33.6z M24.6,31.4l0.9-2.7c0.6,0.5,1.5,1.5,1.8,2.8
	C26.5,31.5,25.6,31.4,24.6,31.4z M25,33.8c0.8,0,1.6,0.1,2.4,0.1l-2.8,2.8c-0.8-0.1-1.5-0.1-2.3-0.2L25,33.8z M22.3,25.3
	c4,0,7.3,2.8,7.3,6.4c-0.3,0-0.6,0-0.9,0c-0.4-2.8-3-4.3-3.1-4.4c-0.2-0.1-0.3-0.1-0.5,0c-0.2,0.1-0.3,0.2-0.4,0.4l-1.3,3.8
	c-0.3,0-0.7,0-1-0.1l1.2-4c0-0.2,0-0.3-0.1-0.5c-0.1-0.1-0.2-0.2-0.4-0.3c-0.5-0.1-1-0.2-1.5-0.2c-3.6,0-5.2,3.4-5.2,3.5
	c-0.1,0.1-0.1,0.3,0,0.5c0.1,0.2,0.2,0.3,0.3,0.3l0.8,0.3c-0.8-0.1-1.6-0.1-2.4-0.2C15.5,27.7,18.6,25.3,22.3,25.3z M12.1,27.5
	c0.5,0.1,0.9,0.2,1.4,0.2c-0.5,0.9-0.8,1.9-0.9,2.9c-0.7,0-1.4-0.1-2-0.1c-2.4-0.2-3.9-0.3-4.5-0.3c-0.1,0-0.1,0-0.2,0
	C7.1,28.2,9.6,27.1,12.1,27.5z M2.4,36.2c0.4-1.8,1.5-3.6,3.5-3.6c0,0,0.1,0,0.1,0c0.3,0,0.8,0,1.6,0.1l-5,5
	C2.4,37,2.4,36.4,2.4,36.2z M3.7,39.4c-0.2-0.2-0.3-0.3-0.5-0.5l6-6c0.4,0,0.8,0.1,1.2,0.1c0.3,0,0.7,0,1.1,0.1l-2.3,2.3
	C6.8,35.8,4.8,37.3,3.7,39.4z M67.9,45.3c-0.9,1.4-2.5,2.3-4.2,2.7c-8.8,1.5-17.8,2.3-26.7,2.3s-17.9-0.8-26.7-2.3
	c-1.8-0.3-3.3-1.3-4.2-2.7c-0.7-1.1-1-2.4-0.7-3.6c0.6-2.4,2.9-4.1,5.6-4.1c0.4,0,0.7,0,1.1,0.1c16.4,2.9,33.4,2.9,49.8,0
	c0.4-0.1,0.7-0.1,1.1-0.1c2.7,0,5.1,1.7,5.6,4.1C68.9,42.9,68.6,44.1,67.9,45.3z M70.6,39.9c-0.1-0.3-0.3-0.5-0.4-0.8l2.9-2.9
	C73,36.7,72.8,38.9,70.6,39.9z"/>
</svg>
