<?xml version="1.0" encoding="utf-8"?>
<!-- Generator: Adobe Illustrator 21.1.0, SVG Export Plug-In . SVG Version: 6.00 Build 0)  -->
<svg version="1.1" id="Capa_1" xmlns="http://www.w3.org/2000/svg" xmlns:xlink="http://www.w3.org/1999/xlink" x="0px" y="0px"
	 viewBox="0 0 74.1 74.1" style="enable-background:new 0 0 74.1 74.1;" xml:space="preserve">
<g>
	<path d="M72.4,57.6c1-0.8,1.5-2.2,1.3-3.3c-0.1-1-0.8-1.8-1.7-2.2c0.7-0.6,1.3-1.4,1.6-2.2c0.6-1.3,0.5-2.6-0.1-3.8
		c-0.1-0.2-0.2-0.3-0.4-0.5c0.3-0.6,0.5-1.3,0.5-2.1c0-0.6,0.1-1,0.1-1.4c0-0.7,0.1-1.3,0.1-2.3c0-7.6-9.6-13-23.4-13
		c-4.1,0-7.9,0.5-11.1,1.3l2.6-3.7c0.6-0.3,3.4-2,4.8-2.7c0.2-0.1,0.4-0.3,0.3-0.6l-0.3-3.5c0-0.1,0-0.1,0-0.2c0,0,0,0,0,0
		c0-0.1-0.1-0.1-0.1-0.1c0,0,0,0,0,0c0,0-0.1-0.1-0.1-0.1c0,0,0,0,0,0c0,0,0,0,0,0l-2.8-1.2c-0.2-0.1-0.4-0.1-0.5,0l-5.6,3.5
		c-0.1,0-0.1,0.1-0.2,0.2l-1.9,2.9c0.7-4.5,1.9-6.7,1.9-6.7c0.1-0.1,0.1-0.2,0.1-0.3c0-0.1-0.1-0.3-0.1-0.4L35.5,12
		c-0.1-0.2-0.3-0.3-0.5-0.3H32c0,0-0.1,0-0.1,0c0,0,0,0,0,0c-0.1,0-0.1,0.1-0.2,0.1c0,0,0,0,0,0c0,0-0.4,0.3-0.9,1.1
		c-0.1-5.6-1.2-7-1.3-7.2c-0.1-0.2-0.4-0.2-0.6-0.2l-3,0.7c0,0-0.1,0-0.1,0c0,0-0.1,0-0.1,0c0,0-0.1,0.1-0.1,0.1c0,0,0,0-0.1,0.1
		l-1.6,2.2c-0.1,0.1-0.1,0.3-0.1,0.4l0.3,3.1l-2.1-0.6c-0.2,0-0.4,0-0.5,0.1c-0.1,0.1-2,1.5-2.8,3.7c-0.1,0.2-0.2,0.7-0.1,2.6
		c0,0.9,0.1,2.8,0.4,4.8c0.4,2.8,1.1,5.6,1.3,6.6c-0.8,0-1.6,0-2.3-0.1c0-0.1,0.1-0.2,0-0.2l-0.8-18.9c0-0.1,0-0.1,0-0.2
		c0,0,0,0,0,0C17,9.9,17,9.9,17,9.8c0,0,0,0,0,0l-3.1-3.1c-0.2-0.2-0.4-0.2-0.7-0.1L10.5,8c-0.3,0.1-0.4,0.5-0.3,0.8
		c0,0.1-0.1,0.2-0.1,0.3l1.5,18.5C9.1,15.2,5.2,13.1,5.1,13c0,0,0,0,0,0c-0.1,0-0.1-0.1-0.2-0.1c0,0,0,0,0,0c0,0-0.1,0-0.1,0l-3,0.6
		c-0.2,0-0.4,0.2-0.4,0.4L0,17.4c0,0.1,0,0.1,0,0.2c0,0,0,0,0,0c0,0.1,0.1,0.2,0.1,0.3c0,0,0,0,0,0c0,0,0,0,0,0
		c0,0,2.6,2.4,4.4,10.1c-0.1,0-0.2,0-0.2,0c-0.4-0.1-0.7,0.1-1,0.3C3.1,28.7,3,29,3,29.4l4.4,28.7c0.1,0.4,0.4,0.8,0.8,0.9
		c0.2,0.1,5.9,2.1,13.8,2.1c1.6,0,3.2-0.1,4.8-0.3c0,0.7,0.1,1.4,0.3,2.1c1.7,5.3,20.3,5.5,24.1,5.5c5.1,0,21.9-0.4,22.8-5.7
		c0.3-2,0-3.5-0.8-4.6C72.8,58,72.6,57.8,72.4,57.6z M50.4,29c12.2,0,21.1,4.5,21.1,10.6c0,1,0,1.5-0.1,2.2c0,0.4-0.1,0.9-0.1,1.5
		c-0.1,2.3-2,3-2.5,3.2c-3.2,1-7.5,2-18.4,2s-15-1-18.4-2c-0.6-0.2-2.4-0.9-2.5-3.2c0-0.6-0.1-1.1-0.1-1.5c0-0.7-0.1-1.2-0.1-2.2
		C29.3,33.5,38.2,29,50.4,29z M70,54.2c0.4,0,0.6,0,0.8,0c0.5,0,0.5,0.2,0.6,0.4c0.1,0.4-0.2,1.2-0.9,1.4c-0.5,0.2-1.5,0.3-2.8,0.5
		L70,54.2z M65.9,56.6c-0.8,0.1-1.7,0.1-2.6,0.2l1.8-1.8c0.8-0.1,1.6-0.2,2.3-0.4c0.2-0.1,0.5-0.2,0.7-0.2L65.9,56.6z M61.5,57
		c-0.8,0-1.6,0.1-2.5,0.1l2.3-2.3c0.7,0.2,1.4,0.2,2.1,0.3L61.5,57z M57.3,57.2c-0.8,0-1.6,0.1-2.5,0.1l2.5-2.5
		c0.2-0.1,0.3-0.3,0.5-0.5L58,54c0.1-0.1,0.1-0.1,0.1-0.2c0.1-0.1,0.1-0.2,0.2-0.3c0.2,0.1,0.4,0.3,0.6,0.4c0.3,0.2,0.7,0.3,1.1,0.5
		L57.3,57.2z M41,51.7c-1.3,0.9-3.8,1.1-6.6,0.5c-2.8-0.6-4.3-2-4.8-3.1c-0.2-0.4-0.3-0.9-0.1-1.4c0.6,0.5,1.3,0.8,2,1
		c2.3,0.7,5.2,1.4,10.4,1.8C41.7,51,41.4,51.4,41,51.7z M30.3,55.9c-0.2-0.2-0.2-0.4-0.2-0.6c0-0.2,0.1-0.8,1.1-0.8l0.5,0
		c0,0,0.1,0,0.1,0L30.3,55.9z M33.4,54.4c0.2,0,0.3,0.1,0.4,0.1c0.5,0.1,1,0.2,1.6,0.2L34,56.3c-0.1,0.1-0.1,0.1-0.1,0.2
		c-1-0.1-1.7-0.1-2.3-0.2L33.4,54.4z M37,54.9c0.9,0,1.8,0,2.6-0.2l-2,2c-0.8-0.1-1.5-0.1-2.2-0.2L37,54.9z M41.9,54
		C42,54,42,53.9,42,53.8c0.1-0.1,0.2-0.1,0.3-0.2c0.1,0,0.1-0.1,0.2-0.1c0.2,0.3,0.4,0.6,0.6,0.8c0.1,0.1,0.3,0.3,0.4,0.4L41.3,57
		c-0.8,0-1.5-0.1-2.2-0.1L41.9,54z M56.7,51c0,1.2-0.8,1.9-1.5,2.4c-1.2,0.7-2.9,1.2-4.8,1.2c0,0,0,0,0,0c-2.3,0-4.4-0.7-5.5-1.9
		c-0.6-0.6-0.8-1.3-0.8-2c1.8,0.1,3.9,0.1,6.3,0.1c2.4,0,4.5,0,6.4-0.1C56.8,50.8,56.7,50.9,56.7,51z M44.5,55.4
		c0.5,0.3,1,0.6,1.6,0.8l-1,1c-0.8,0-1.5-0.1-2.3-0.1L44.5,55.4z M47.4,56.6c0.7,0.2,1.4,0.3,2.1,0.3l-0.4,0.4c-0.8,0-1.6,0-2.3,0
		L47.4,56.6z M51.2,56.9c1,0,1.9-0.2,2.8-0.4l-0.7,0.7c0,0,0,0,0,0.1c-0.5,0-1,0-1.5,0c-0.3,0-0.6,0-0.9,0L51.2,56.9z M45.9,20.8
		c-1.7,0.9-4.6,2.5-4.7,2.6c-0.1,0-0.1,0.1-0.2,0.2l-3.3,4.6c-0.1,0.1-0.1,0.2-0.1,0.3c-0.1,0-0.2,0.1-0.3,0.1
		c-0.2-0.2-0.5-0.3-0.8-0.2c-0.3,0-0.7,0.1-1,0.1l4.5-6.3l5.7-3.6L45.9,20.8z M38.3,20.4l5.2-3.2l1.5,0.7l-5.7,3.6
		c-0.1,0-0.1,0.1-0.2,0.2L35,27.2c0-0.7,0.1-1.4,0.1-2.1L38.3,20.4z M33.8,28.7c-0.6,0.1-1.2,0.1-1.9,0.2c0.1-2.4,0.5-9.8,2-12.8h2
		C35.3,17.8,33.9,21.9,33.8,28.7z M34.7,12.9l1.2,2H34l-1.1-2H34.7z M31.9,13.4l1.1,2.1c-1.7,3.3-2.1,11-2.2,13.4l-1.7-0.4
		C29.1,18.7,30.9,14.7,31.9,13.4z M28.7,6.8c0.3,0.7,1.1,3,0.8,8.8c-0.7,2-1.3,4.8-1.5,9l-1.7,2c-0.3-0.9-0.5-2-0.8-3.3
		c-0.2-0.8-0.2-1.6-0.3-2.4c0.6-1,3.2-6,1.5-13.6L28.7,6.8z M27.9,29c0,0.1,0,0.2,0.1,0.3c-0.3,0-0.6,0-0.8,0
		c-0.1-0.2-0.2-0.6-0.5-1.3l1.2-1.4C27.9,27.3,27.9,28.1,27.9,29z M25.7,8.3c0.8,4.3,0.2,7.6-0.5,9.7c0-0.7,0-1.4,0.1-2
		c0-1.2,0.1-2.2,0-3c0,0,0,0,0,0c0,0,0,0,0,0c0,0,0,0,0,0c0,0,0,0,0,0l-0.3-3.7L25.7,8.3z M24.1,14.5c0,0.5,0,0.9,0,1.5
		c-0.1,2.3-0.2,5.2,0.3,7.6c0.5,2.6,1.1,4.5,1.5,5.5l-1.4,0.1c-0.3-1.1-1.1-3.8-1.5-6.1c-0.4-2.5-0.3-6.2-0.3-7.1L24.1,14.5z
		 M21.9,12.9l1.7,0.4l-1.8,1.8c-0.8,0-1.4,0-1.8,0C20.6,14.1,21.5,13.2,21.9,12.9z M20,22.7c-0.3-2.6-0.4-5.2-0.4-6.2l1.8,0.2
		c0,1.5,0,4.5,0.4,6.7c0.4,2.3,1.2,4.9,1.5,6.1c-0.6,0-1.2,0-1.8,0c0,0-0.1,0-0.1,0C21.3,29,20.4,25.9,20,22.7z M16.7,29.2
		c0,0.1,0,0.1,0,0.2c-0.5,0-1.1-0.1-1.6-0.1l-1.3-16.7l2.1-1.3L16.7,29.2z M13.4,7.9l2.2,2.2l-2.2,1.3l-2-2.6L13.4,7.9z M11.5,10.9
		l1.2,1.5L14,28.9l-1,0L11.5,10.9z M5.1,14.5c1.2,1.2,3.8,4.7,5.6,14.3l-0.1,0c-0.6-0.1-1.2-0.1-1.7-0.2c-0.7-3-2.5-9.2-4.5-11.9
		L5.1,14.5z M2.2,14.6L4,14.3l-0.6,2.2l-1.9,0.4L2.2,14.6z M1.7,18l1.9-0.4c1.8,2.3,3.4,7.9,4.2,10.9c-0.7-0.1-1.4-0.2-1.9-0.2
		C4.5,22.3,2.7,19.3,1.7,18z M5.6,30.6c0.8,0.1,1.9,0.2,3.1,0.4c0,0,0,0,0.1,0c0,0,0,0,0,0c3.3,0.4,7.9,0.8,12.7,0.8
		c3.7,0,7.4-0.2,10.5-0.5c-1.6,1.1-2.9,2.4-3.7,3.8c-2.3,0.2-4.5,0.2-6.7,0.2c-7.9,0-14-1-15.5-1.3L5.6,30.6z M9.6,57l5.7-5.7
		c0.2-0.2,0.2-0.6,0-0.8s-0.6-0.2-0.8,0l-5.1,5.1l-2.9-19c2.3,0.4,8,1.2,15.1,1.2c1.8,0,3.7-0.1,5.7-0.2c-0.2,0.7-0.3,1.4-0.3,2.2
		c0,1,0,1.7,0.1,2.3c0,0.4,0.1,0.9,0.1,1.4c0,0.9,0.3,1.7,0.6,2.4c-0.1,0.1-0.2,0.2-0.2,0.3c-0.7,1.2-0.8,2.6-0.2,4c0,0,0,0,0,0
		l-8.5,8.5c-0.8-0.1-1.6-0.1-2.4-0.2l8.7-8.7c0.2-0.2,0.2-0.6,0-0.8s-0.6-0.2-0.8,0l-9.3,9.3c-0.8-0.1-1.5-0.3-2.2-0.4l7.6-7.6
		c0.2-0.2,0.2-0.6,0-0.8s-0.6-0.2-0.8,0l-8.1,8.1C10.7,57.3,10,57.1,9.6,57L9.6,57z M20.5,58.7l7.5-7.5c0.4,0.5,0.8,0.9,1.3,1.3
		l-0.3,0.3c-0.3,0.2-0.6,0.5-0.8,0.8l-4.9,4.9c-0.1,0.1-0.1,0.1-0.1,0.2c-0.4,0-0.8,0-1.2,0C21.5,58.8,21,58.7,20.5,58.7z
		 M27.5,58.4C27.5,58.4,27.5,58.4,27.5,58.4c-0.1,0-0.1,0-0.2,0c-0.8,0.1-1.7,0.2-2.5,0.2l2.9-2.9c0.1,0.6,0.3,1.2,0.8,1.7
		C28.1,57.7,27.8,58,27.5,58.4z M71.5,62.4c-0.2,1.6-7.5,3.7-20.4,3.7c-13.4,0-21.3-2.3-21.8-3.9c-0.3-1-0.3-1.9,0.2-2.5
		c0.5-0.7,1.4-0.8,2.1-0.8l0.2,0c0.4,0,1.5,0.1,2.8,0.2c3.7,0.4,9.8,1,15.8,1l0.4,0c5.5,0,10.9-0.6,14.4-0.9
		c1.9-0.2,3.5-0.3,4.1-0.3c1,0,1.8,0.3,2.1,0.7C71.6,60.2,71.7,61.1,71.5,62.4z M71.5,48.9c-0.6,1.4-2.5,2.8-4.8,3.5
		c-2.1,0.6-5,0.4-6.6-0.5c-0.6-0.3-1-0.7-1.1-1.2c0-0.1,0-0.1-0.1-0.2c5.3-0.4,8.2-1.1,10.5-1.8c0.7-0.2,1.5-0.6,2.2-1.2
		C71.8,48,71.7,48.5,71.5,48.9z"/>
	<path d="M39.6,35.4c0.1,0,0.2,0,0.3-0.1l1.2-0.9c0.3-0.2,0.3-0.6,0.1-0.8c-0.2-0.3-0.6-0.3-0.8-0.1l-1.2,0.9
		c-0.3,0.2-0.3,0.6-0.1,0.8C39.2,35.3,39.4,35.4,39.6,35.4z"/>
	<path d="M32,38c0.1,0.1,0.2,0.1,0.4,0.1c0.2,0,0.4-0.1,0.5-0.2l0.9-1.2c0.2-0.3,0.1-0.6-0.1-0.8c-0.3-0.2-0.6-0.1-0.8,0.1l-0.9,1.2
		C31.6,37.4,31.7,37.8,32,38z"/>
	<path d="M68.4,37.9c0.1,0.2,0.3,0.2,0.5,0.2c0.1,0,0.2,0,0.4-0.1c0.3-0.2,0.3-0.6,0.1-0.8L68.5,36c-0.2-0.3-0.6-0.3-0.8-0.1
		c-0.3,0.2-0.3,0.6-0.1,0.8L68.4,37.9z"/>
	<path d="M53.6,36.6c0.1,0,0.2,0,0.3-0.1l1.2-0.9c0.3-0.2,0.3-0.6,0.1-0.8c-0.2-0.3-0.6-0.3-0.8-0.1l-1.2,0.9
		c-0.3,0.2-0.3,0.6-0.1,0.8C53.3,36.5,53.4,36.6,53.6,36.6z"/>
	<path d="M44.5,36.6C44.5,36.6,44.5,36.6,44.5,36.6c0.3,0,0.6-0.3,0.6-0.6L45,34.5c0-0.3-0.3-0.6-0.6-0.6c-0.3,0-0.6,0.3-0.6,0.6
		l0.1,1.5C43.9,36.4,44.2,36.6,44.5,36.6z"/>
	<path d="M61.3,33.3c0.1,0.1,0.2,0.1,0.4,0.1c0.2,0,0.4-0.1,0.5-0.2c0.2-0.3,0.1-0.6-0.1-0.8l-1.2-0.9c-0.3-0.2-0.6-0.1-0.8,0.1
		c-0.2,0.3-0.1,0.6,0.1,0.8L61.3,33.3z"/>
	<path d="M60.7,35.8c0,0.3,0.2,0.6,0.5,0.6l1.5,0.1c0,0,0,0,0.1,0c0.3,0,0.6-0.2,0.6-0.5c0-0.3-0.2-0.6-0.5-0.6l-1.5-0.1
		C61,35.3,60.7,35.5,60.7,35.8z"/>
	<path d="M58,35.3C58,35.3,58.1,35.3,58,35.3c0.3,0,0.6-0.3,0.6-0.6l-0.1-1.5c0-0.3-0.3-0.6-0.6-0.6c-0.3,0-0.6,0.3-0.6,0.6l0.1,1.5
		C57.5,35.1,57.7,35.3,58,35.3z"/>
	<path d="M47.3,33.4c-0.3,0.1-0.4,0.5-0.3,0.8l0.6,1.3c0.1,0.2,0.3,0.3,0.5,0.3c0.1,0,0.2,0,0.2-0.1c0.3-0.1,0.4-0.5,0.3-0.8
		l-0.6-1.3C47.9,33.4,47.6,33.3,47.3,33.4z"/>
	<path d="M64.8,35.4c0.1,0.3,0.3,0.4,0.6,0.4c0,0,0.1,0,0.1,0c0.3-0.1,0.5-0.4,0.4-0.7l-0.4-1.5c-0.1-0.3-0.4-0.5-0.7-0.4
		c-0.3,0.1-0.5,0.4-0.4,0.7L64.8,35.4z"/>
	<path d="M50.8,34.3C50.8,34.3,50.8,34.3,50.8,34.3c0.3,0,0.6-0.3,0.6-0.6l-0.1-1.5c0-0.3-0.3-0.6-0.6-0.6c-0.3,0-0.6,0.3-0.6,0.6
		l0.1,1.5C50.2,34,50.5,34.3,50.8,34.3z"/>
	<path d="M35.1,34.9c0.1,0,0.2,0,0.3-0.1l1.2-0.9c0.3-0.2,0.3-0.6,0.1-0.8s-0.6-0.3-0.8-0.1l-1.2,0.9c-0.3,0.2-0.3,0.6-0.1,0.8
		C34.7,34.9,34.9,34.9,35.1,34.9z"/>
	<path d="M41.5,32.4l1.5,0.1c0,0,0,0,0,0c0.3,0,0.6-0.2,0.6-0.6c0-0.3-0.2-0.6-0.6-0.6l-1.5-0.1c-0.3,0-0.6,0.2-0.6,0.6
		C40.9,32.1,41.2,32.3,41.5,32.4z"/>
	<path d="M35.7,36.7c0,0.3,0.2,0.6,0.6,0.6l1.5,0.1c0,0,0,0,0,0c0.3,0,0.6-0.2,0.6-0.6c0-0.3-0.2-0.6-0.6-0.6l-1.5-0.1
		C36,36.2,35.7,36.4,35.7,36.7z"/>
	<path d="M46.5,32.1c0.1,0,0.2,0,0.2,0l1.4-0.6c0.3-0.1,0.4-0.5,0.3-0.8s-0.5-0.4-0.8-0.3L46.3,31c-0.3,0.1-0.4,0.5-0.3,0.8
		C46.1,32,46.3,32.1,46.5,32.1z"/>
	<path d="M55.1,32.8c0.1,0.1,0.2,0.1,0.3,0.1c0.2,0,0.4-0.1,0.5-0.2c0.2-0.3,0.1-0.6-0.1-0.8L54.6,31c-0.3-0.2-0.6-0.1-0.8,0.1
		s-0.1,0.6,0.1,0.8L55.1,32.8z"/>
</g>
</svg>
