<?xml version="1.0" encoding="utf-8"?>
<!-- Generator: Adobe Illustrator 21.1.0, SVG Export Plug-In . SVG Version: 6.00 Build 0)  -->
<svg version="1.1" id="Capa_1" xmlns="http://www.w3.org/2000/svg" xmlns:xlink="http://www.w3.org/1999/xlink" x="0px" y="0px"
	 viewBox="0 0 512 512" style="enable-background:new 0 0 512 512;" xml:space="preserve">
<g>
	<g>
		<g>
			<path d="M503.5,299.9v-23c0-11.8-9.6-21.3-21.3-21.3c-2.4,0-4.3-1.9-4.3-4.3v-8.5c0-11.8-9.6-21.3-21.3-21.3h-11.4
				c-2,0-3.7-1.4-4.1-3.3l-4.1-16c-1-4.4-3.8-8.2-7.8-10.6c-3.9-2.3-8.5-3-12.9-1.9c-4.5,1.1-9.2,0.4-13.1-2.1
				c-3.9-2.5-6.6-6.4-7.5-11l-0.4-1.8L501.5,97c5.5-4,9.1-10,10.2-16.7c1-6.7-0.6-13.5-4.7-19c-4-5.5-10-9.2-16.7-10.2
				c-6.7-1-13.6,0.6-19,4.7l-112.1,82c-3.6-1-7.3-1.6-11.1-1.6h-13.5c-2,0-3.9-0.3-5.8-0.7l77.2-93c5.9-7,7.5-16.6,4.4-25.2
				c-3.2-8.6-10.7-14.8-19.7-16.4c-9-1.5-18.2,1.8-24,8.9L266,130.9c-6.9,1.8-14.3,0.6-20.3-3.4c-8.4-5.5-18.1-8.5-28.2-8.5h-3.7
				c-8.5,0-16.5,4.2-21.2,11.4c-2,2.9-5,4.9-8.5,5.6c-3.4,0.7-7-0.1-9.9-2.1c-7.9-4.8-18-3.7-24.7,2.6l-7.7,7.7
				c-2.6,2.6-4.7,5.6-6.4,8.8c-2.7,5.3-8.1,8.6-14,8.6c-15.3,0-27.7,12.4-27.7,27.7c0,0.7-0.4,1.3-1,1.6l-17.3,8.7
				c-9.7,4.9-15.8,14.9-15.9,25.8l-10.3,6.9c-9.5,6.3-15.2,17-15.2,28.4v3.3c-9.4,0-17.1,7.6-17.1,17.1v17.1h-2
				c-5.7,0-10.8,3.2-13.4,8.2s-2.1,11.1,1.2,15.7l2.7,6.7C30.3,388.7,73.1,439.4,128,473.7v13.2c0,13.6,11,24.6,24.6,24.6h206.7
				c13.6,0,24.6-11,24.6-24.6v-13.2c54.9-34.3,97.7-85,122.4-144.8l2.8-6.7c3.1-4.3,3.7-9.9,1.6-14.8
				C509.3,304,506.7,301.4,503.5,299.9z M481.4,69.5c1.8-1.3,4-1.9,6.2-1.6c2.2,0.3,4.2,1.5,5.6,3.4c1.1,1.5,1.7,3.2,1.7,5.1
				c0,2.7-1.3,5.3-3.5,6.8l-216,158l-8.3,2.8c-1.7,0.6-3.5,0.6-5.2,0l-12.5-4.2c-0.3-0.1-0.5-0.1-0.8-0.2L481.4,69.5z M334.6,153.2
				h3.4l-61,44.6l40.1-48.4C322.6,151.9,328.6,153.2,334.6,153.2z M379.8,20.5c1.4-1.7,3.5-2.8,5.7-3c3.4-0.3,6.7,1.5,8.3,4.5
				s1.2,6.7-1,9.4L220.6,239l-10.7,7.8c-0.1-0.1-0.2-0.1-0.3-0.2c-3.3-3.3-7.4-5.6-11.8-6.7L379.8,20.5z M34.1,281.2
				c9.4,0,17.1-7.6,17.1-17.1v-3.3c0-5.7,2.9-11.1,7.6-14.2l10.4-6.9c4.7-3.2,7.6-8.5,7.6-14.2c0.1-4.4,2.5-8.4,6.5-10.5l17.2-8.6
				c6.4-3.2,10.5-9.7,10.5-16.9c0-5.9,4.8-10.6,10.7-10.7c12.3-0.1,23.5-7,29.2-17.9c0.8-1.7,1.9-3.2,3.2-4.6l7.7-7.7
				c0.9-0.8,2.3-0.9,3.4-0.4c6.7,4.4,14.8,6.1,22.7,4.5s14.8-6.2,19.2-12.9c1.6-2.4,4.2-3.8,7-3.8h3.7c6.7,0,13.2,2,18.7,5.6
				c4.7,3.1,10,5.3,15.5,6.3l-79.5,95.8c-1.4,0.1-2.8-0.1-4.1-0.7c-9.7-4.9-21.5-3-29.2,4.7l-8.5,8.5c-3.3,3.3-3.3,8.7,0,12
				c3.3,3.3,8.7,3.3,12,0l8.5-8.5c2.5-2.5,6.4-3.1,9.6-1.5c6,3,13,3.5,19.3,1.4l9.2-3.1c3-1,6.2-0.2,8.4,2
				c8.5,8.5,21.9,9.8,31.9,3.2l7.3-4.9c2.1-1.4,4.8-1.8,7.2-1l12.5,4.2c5.2,1.7,10.8,1.7,16,0L285,256c2.4-0.8,5.1-0.4,7.2,1
				l18.8,12.5c3.9,2.6,9.2,1.5,11.8-2.4c2.6-3.9,1.6-9.2-2.3-11.8L302,243l78.6-57.5c5.1,13.1,17.6,21.7,31.7,21.7
				c2.8,0,5.5-0.3,8.2-1l4.1,16c2.3,9.6,10.8,16.3,20.7,16.3h11.4c2.4,0,4.3,1.9,4.3,4.3v8.5c0,11.8,9.6,21.3,21.3,21.3
				c2.4,0,4.3,1.9,4.3,4.3v21.3H34.1V281.2z M490.6,322.4c-23.6,57.3-64.8,105.6-117.6,138h-23c-4.7,0-8.5,3.8-8.5,8.5
				s3.8,8.5,8.5,8.5h17.1v9.5c0,4.2-3.4,7.6-7.6,7.6H152.6c-4.2,0-7.6-3.4-7.6-7.6v-9.5h102.4c4.7,0,8.5-3.8,8.5-8.5
				s-3.8-8.5-8.5-8.5H139.1c-52.8-32.4-94-80.7-117.6-138l-2.9-7.1h474.9L490.6,322.4z"/>
			<path d="M375.5,434.8L375.5,434.8c1.5,0,3-0.4,4.3-1.1c34.9-21.4,62.8-52.4,80.4-89.4c1.2-2.8,0.8-6-1-8.5s-4.8-3.7-7.9-3.3
				s-5.6,2.3-6.8,5.1c-16.1,33.7-41.6,62-73.4,81.4l0,0c-3.2,2-4.7,5.9-3.7,9.6C368.3,432.3,371.7,434.8,375.5,434.8z"/>
		</g>
	</g>
</g>
</svg>
