<?xml version="1.0" encoding="utf-8"?>
<!-- Generator: Adobe Illustrator 21.1.0, SVG Export Plug-In . SVG Version: 6.00 Build 0)  -->
<svg version="1.1" id="Capa_1" xmlns="http://www.w3.org/2000/svg" xmlns:xlink="http://www.w3.org/1999/xlink" x="0px" y="0px"
	 viewBox="0 0 512 512" style="enable-background:new 0 0 512 512;" xml:space="preserve">
<g>
	<g>
		<path d="M503.5,324.3H8.6c-4.7,0-8.5,3.8-8.5,8.5C0,431.6,80.4,512,179.2,512h153.6c98.8,0,179.2-80.4,179.2-179.2
			C512,328.1,508.2,324.3,503.5,324.3z M332.8,494.9H179.2c-86.5,0-157.4-68.1-161.9-153.6h477.4
			C490.2,426.8,419.3,494.9,332.8,494.9z"/>
	</g>
</g>
<g>
	<g>
		<path d="M435.2,119.5c0-0.6,0-1.2-0.1-2.2c-1.3-14.1-11-25.8-23.9-30.1l9.7-9.7c16.8-16.4,18.4-42.7,3.8-61.2
			c-15.7-19.1-44-21.8-63.1-6.1c-1.1,0.9-2.1,1.8-3.2,2.9L348,23.8c-4.4-12.8-16-22.4-30.4-23.8c-18.9-1-34.9,13.5-35.9,32.3
			c0,0.6,0,1.2,0,1.9v13.1c-5-2.9-10.8-4.6-17-4.6c-0.6,0-1.2,0-2.2,0.1c-18.2,1.7-32.3,17.4-32,35.5v11.6c-5.1-3-11-4.5-17-4.6
			c-0.6,0-1.2,0-2.2,0.1c-18.3,1.7-32.3,17.4-32,35.5v126.5c0,4.7,3.8,8.5,8.5,8.5h145.1c18.8,0,34.1-15.3,34.1-34.1
			c0-6.2-1.7-12-4.6-17.1h11.5c18.3,0.5,34-13.7,35.7-32.3c0.4-6.9-1.4-13.5-4.7-19.1c7.7-0.9,14.8-4.2,20.3-9.8
			C431.6,137.2,435.2,128.7,435.2,119.5z M413.1,131.6c-3.2,3.2-7.5,5-12.1,5c0,0,0,0,0,0h-25.6c-4.7,0-8.5,3.8-8.5,8.5
			s3.8,8.5,8.5,8.5l0.9,0c9.4,0.5,16.6,8.6,16.2,17.6c-0.9,9.4-8.8,16.7-18.5,16.5h-41.2c-4.7,0-8.5,3.8-8.5,8.5s3.8,8.5,8.5,8.5
			c9.4,0,17.1,7.7,17.1,17.1s-7.7,17.1-17.1,17.1H196.3V120.8c-0.2-9.4,7.1-17.5,16.2-18.4l0.9,0c9.4,0,17,7.7,17,17v0.1
			c0,4.7,3.8,8.5,8.5,8.5c0,0,0,0,0,0c4.7,0,8.5-3.8,8.5-8.5v0V78.1c-0.2-9.4,7.1-17.5,16.2-18.4l0.9,0c9.4,0,17,7.7,17,17.1v0.1
			c0,4.7,3.8,8.5,8.5,8.5c0,0,0,0,0,0c4.7,0,8.5-3.8,8.5-8.5v0V34.2l0-0.9c0.5-9.4,8.4-16.6,17.6-16.2c9.4,0.9,16.7,9,16.5,18.6v7.1
			c0,3.5,2.1,6.6,5.3,7.9c3.2,1.3,6.9,0.6,9.3-1.9l23.1-23.5c0.6-0.6,1.3-1.2,2-1.8c11.8-9.7,29.3-8,38.9,3.7
			c9.1,11.5,8.1,28-2.5,38.3l-22.4,22.4c-2.4,2.4-3.2,6.1-1.9,9.3c1.3,3.2,4.4,5.3,7.9,5.3h7.1c0.2,0,0.3,0,0.5,0
			c9.3,0,17.2,7.2,18.1,16.2l0,0.9C418.1,124.1,416.4,128.4,413.1,131.6z"/>
	</g>
</g>
<g>
	<g>
		<rect x="87.1" y="170.7" transform="matrix(0.7071 -0.7071 0.7071 0.7071 -51.7321 233.5138)" width="337.9" height="17.1"/>
	</g>
</g>
<g>
	<g>
		<rect x="315.7" y="68.3" width="17.1" height="42.7"/>
	</g>
</g>
<g>
	<g>
		<rect x="264.5" y="111" width="17.1" height="51.2"/>
	</g>
</g>
<g>
	<g>
		<rect x="213.3" y="153.6" width="17.1" height="59.7"/>
	</g>
</g>
<g>
	<g>
		<rect x="324.2" y="102.5" width="42.7" height="17.1"/>
	</g>
</g>
<g>
	<g>
		<rect x="273" y="153.6" width="51.2" height="17.1"/>
	</g>
</g>
<g>
	<g>
		<rect x="221.9" y="204.8" width="59.7" height="17.1"/>
	</g>
</g>
<g>
	<g>
		<path d="M159.3,39.5C159.3,39.5,159.3,39.4,159.3,39.5c-12.1-18.1-36.5-23-54.6-10.9c-0.6,0.4-1.1,0.8-1.7,1.2l-3.1,2.3l-3-2.1
			c-15.6-14.6-40.2-14-55,1.5c-7.3,7.5-11.2,17.5-11,28c0.2,10.5,4.5,20.3,12,27.5c2.2,2.1,4.6,4,7.3,5.5l7.2,5.6v4.4
			c0,23.5,19.1,42.7,42.7,42.7s42.7-19.1,42.7-42.7v-4.4l7.6-5.9C166.6,79.8,170.5,56.6,159.3,39.5z M139.8,78.6l-10.9,8.5
			c-2.1,1.6-3.3,4.1-3.3,6.7v8.5c0,14.1-11.5,25.6-25.6,25.6s-25.6-11.5-25.6-25.6v-8.5c0-2.6-1.2-5.1-3.3-6.7l-10.9-8.5
			c-0.3-0.3-0.7-0.5-1-0.7c-1.6-0.9-3.1-2-4.4-3.3c-4.3-4.1-6.7-9.6-6.8-15.6s2.1-11.5,6.2-15.8c4.3-4.5,10.2-6.8,16-6.8
			c5.5,0,11.1,2.1,15.4,6.2c0.3,0.3,0.6,0.5,0.9,0.8l8.5,6.1c3,2.2,7.2,2.1,10.1-0.1l9-6.8c4.9-3.3,10.9-4.5,16.7-3.3
			c5.8,1.2,10.8,4.5,14.1,9.4C151.4,58.5,149.1,71.6,139.8,78.6z"/>
	</g>
</g>
<g>
	<g>
		<rect x="187.7" y="8.5" width="17.1" height="17.1"/>
	</g>
</g>
<g>
	<g>
		<rect x="238.9" y="281.6" width="17.1" height="17.1"/>
	</g>
</g>
<g>
	<g>
		<path d="M460.8,51.2v17.1c9.4,0,17.1,7.7,17.1,17.1s-7.7,17.1-17.1,17.1v17.1c18.8,0,34.1-15.3,34.1-34.1S479.6,51.2,460.8,51.2z"
			/>
	</g>
</g>
<g>
	<g>
		<rect x="17.1" y="128.1" width="17.1" height="17.1"/>
	</g>
</g>
<g>
	<g>
		<rect x="0" y="93.9" width="17.1" height="17.1"/>
	</g>
</g>
<g>
	<g>
		<path d="M332.8,273.1c-18.8,0-34.1,15.3-34.1,34.1h17.1c0-9.4,7.7-17.1,17.1-17.1c9.4,0,17.1,7.7,17.1,17.1h17.1
			C366.9,288.4,351.6,273.1,332.8,273.1z"/>
	</g>
</g>
<g>
	<g>
		<path d="M102.4,196.3h-1.1c-3.8-14.7-17.2-25.6-33.1-25.6S39,181.6,35.2,196.3h-1.1C15.3,196.3,0,211.6,0,230.4
			s15.3,34.1,34.1,34.1h68.3c18.8,0,34.1-15.3,34.1-34.1C136.5,211.6,121.2,196.3,102.4,196.3z M102.4,247.5H34.1
			c-9.4,0-17.1-7.7-17.1-17.1c0-9.4,7.7-17.1,17.1-17.1h8.5c4.7,0,8.5-3.8,8.5-8.5c0-9.4,7.7-17.1,17.1-17.1s17.1,7.7,17.1,17.1
			c0,4.7,3.8,8.5,8.5,8.5h8.5c9.4,0,17.1,7.7,17.1,17.1C119.5,239.8,111.8,247.5,102.4,247.5z"/>
	</g>
</g>
<g>
	<g>
		<path d="M85.3,247.5H51.2c-4.7,0-8.5,3.8-8.5,8.5v34.1c0,4.7,3.8,8.5,8.5,8.5h34.1c4.7,0,8.5-3.8,8.5-8.5V256
			C93.9,251.3,90.1,247.5,85.3,247.5z M76.8,281.6H59.7v-17.1h17.1L76.8,281.6L76.8,281.6z"/>
	</g>
</g>
<g>
	<g>
		<path d="M452.3,221.9c-14.1,0-25.6,11.5-25.6,25.6c0,14.1,11.5,25.6,25.6,25.6s25.6-11.5,25.6-25.6S466.4,221.9,452.3,221.9z
			 M452.3,256c-4.7,0-8.5-3.8-8.5-8.5c0-4.7,3.8-8.5,8.5-8.5s8.5,3.8,8.5,8.5C460.8,252.2,457,256,452.3,256z"/>
	</g>
</g>
<g>
	<g>
		<path d="M452.3,187.8c-32.9,0-59.7,26.8-59.7,59.7s26.8,59.7,59.7,59.7s59.7-26.8,59.7-59.7S485.2,187.8,452.3,187.8z
			 M452.3,290.2c-23.5,0-42.7-19.1-42.7-42.7c0-23.5,19.1-42.7,42.7-42.7s42.7,19.1,42.7,42.7S475.8,290.2,452.3,290.2z"/>
	</g>
</g>
</svg>
