<?xml version="1.0" encoding="utf-8"?>
<!-- Generator: Adobe Illustrator 21.1.0, SVG Export Plug-In . SVG Version: 6.00 Build 0)  -->
<svg version="1.1" id="Capa_1" xmlns="http://www.w3.org/2000/svg" xmlns:xlink="http://www.w3.org/1999/xlink" x="0px" y="0px"
	 viewBox="0 0 83.3 68.4" style="enable-background:new 0 0 83.3 68.4;" xml:space="preserve">
<path d="M83.3,45.1c0-5.6-12.7-8.3-20.3-9.4c-0.3,0-0.6,0-0.9,0.2c-1.4-1.9-2.9-3.4-4.6-4c-1.2-0.4-2.3-0.4-3.5-0.1
	c0-1.5-0.4-4.7-3.1-6.4c-3.7-2.4-8.7,2.1-8.9,2.3c-0.1,0.1-0.3,0.3-0.8,0.7c0,0,0,0-0.1,0C37.5,27.9,34,28,31,28.8
	c-4.8,1.3-8.4,2.9-11.5,5.2l0.2-7C25.8,24.7,30,15.9,30,5c0-3.1-7.1-5-13.7-5C2.5,0,1.4,3.8,1.4,5c0,3.5,0.5,6.7,1.3,9.6
	c0,0.1,0,0.2,0,0.3c0,0,0.2,0.5,0.5,1.2c0.6,1.8,1.4,3.4,2.4,4.9c0,0.1,0.1,0.2,0.1,0.2c0,0,0,0,0,0c0.3,0.5,0.7,1,1.1,1.4
	c0,0,0,0.1,0.1,0.1c0,0,0,0,0,0c1.8,2.1,3.9,3.6,6.3,4.3l-0.2,10c-6,1.4-12.3,3.8-12.9,7.5C0.1,44.7,0,44.9,0,45.1V50c0,0,0,0,0,0
	c0,0,0,0,0,0c0,3,3.8,5.4,11.2,7.3c0,0.3,0.1,0.5,0.3,0.7c5.1,5.6,17.3,9.3,31.1,9.3c15.1,0,28-4.3,32.2-10.7c5.7-1.8,8.6-4,8.6-6.6
	c0,0,0,0,0,0c0,0,0,0,0-0.1C83.3,50,83.3,45.1,83.3,45.1z M81,45.1c0,2.8-9.4,6.5-25.5,7.9c0.6-0.4,1.1-0.8,1.5-1.3
	c0.1-0.1,0.2-0.2,0.3-0.4c6.2-0.7,16.3-2.3,16.3-5.8c0-1.8-2.7-3.3-8.1-4.5c-0.1,0-0.2,0-0.2,0c-0.5-1-1-1.9-1.6-2.9
	C75.5,40,81,43,81,45.1z M58.2,45c-0.3-1.9-0.9-3.7-1.3-4.7c0.5,0.3,1.1,1.3,1.8,2.6C58.7,43.2,58.7,44.2,58.2,45z M59.6,44.7
	c0.1,0.2,0.2,0.5,0.3,0.7c-0.2,0.4-0.8,1.3-1.6,1.9c0-0.2,0-0.4,0-0.6C59,46.1,59.4,45.4,59.6,44.7z M58.2,48.6
	c1.1-0.4,1.8-1.3,2.3-2c0.4,0.9,0.8,1.9,1.2,2.9c-1.2,0.2-2.5,0.4-3.9,0.5C58,49.6,58.2,49.1,58.2,48.6z M56.8,39
	c-1.5-0.3-2.7,1-4,2.4c-0.9,1-2,2.1-3.2,2.7c-0.1,0-0.1,0.1-0.2,0.2c-0.4-0.2-0.8-0.5-1.3-0.7c1.3-0.8,2.8-2.2,4.3-3.6
	c1.4-1.4,3-2.9,3.8-3c1.1,0.2,4.5,6.4,7.3,12.3c-0.2,0-0.4,0.1-0.5,0.1C61.8,46.5,58.9,39.4,56.8,39z M53.9,48.4
	c-0.4,0.1-0.8,0.1-1,0c0-0.1-0.1-0.2-0.1-0.4c0,0,0.1-0.1,0.1-0.1c0.3-1,1.6-1.6,2.5-1.9c0,0.2,0,0.5,0,0.7
	c-0.1,0.1-0.2,0.1-0.3,0.3C54.9,47.7,54.4,48.2,53.9,48.4z M55.1,49c-0.1,0.4-0.3,0.7-0.6,1c-0.4,0.5-1,0.9-1.7,1.2
	c0.1-0.4,0.3-1,0.3-1.6c0.1,0,0.2,0,0.4,0c0.3,0,0.6,0,0.9-0.1C54.6,49.4,54.8,49.2,55.1,49z M52.8,46c0.6-1.1,1.5-1.8,2.2-2.3
	c0.1,0.3,0.2,0.7,0.2,1C54.6,45,53.6,45.4,52.8,46z M51.6,45.9c-0.3-0.3-0.7-0.7-1.1-1c1.2-0.7,2.3-1.8,3.2-2.7
	c0.2-0.2,0.4-0.4,0.6-0.6c0.1,0.2,0.2,0.5,0.4,1C53.9,43.1,52.3,44.2,51.6,45.9z M56.2,35.8c0,0-0.1,0-0.1,0
	c-1.1,0.2-2.7,1.6-4.4,3.3c-1.6,1.5-3.4,3.2-4.7,3.7c-0.1,0-0.2,0.1-0.2,0.2c-0.5-0.2-0.9-0.3-1.5-0.4c1.4-0.9,2.9-2.2,4.3-3.5
	c2.3-2.1,4.7-4.2,6.5-4.4c2.1-0.2,6.6,8,9.4,14.1c-0.3,0.1-0.5,0.1-0.8,0.2C62.3,43.8,58.2,35.8,56.2,35.8z M51.4,47.5
	c1.1,2,0.1,3.8,0,3.9c0,0,0,0.1,0,0.1c-0.1,0-0.2,0-0.4,0c0.1-0.1,0.1-0.2,0.1-0.3c0-0.1,0.2-2-1.6-4c-2.4-2.6-6.9-4-13.5-4.1
	c0.2-0.3,0.3-0.6,0.5-0.9c0.1,0.1,0.2,0.1,0.3,0.1C46.9,43.1,50.3,45.6,51.4,47.5z M48.1,49c-1.4-1.6-4.7-3.6-12.8-4.2
	c0-0.1,0.1-0.2,0.1-0.3c8.2,0,11.7,2,13.2,3.7c1.4,1.6,1.3,3,1.3,3.1c0,0.2,0,0.3,0.1,0.4c-0.3,0-0.7,0-1,0c0-0.1,0-0.1,0.1-0.2
	C49.1,51.3,49.2,50.2,48.1,49z M34.6,46.5c0.1-0.2,0.1-0.4,0.2-0.6c0.1,0,0.1,0,0.2,0c12.9,0.9,12.9,5.3,12.9,5.4c0,0.1,0,0.1,0,0.2
	c-0.4,0-0.7-0.1-1.1-0.2c0-0.2-0.1-0.5-0.4-0.9C45.6,49.3,42.9,47.6,34.6,46.5z M45.5,51.1c-0.2,0-0.4-0.1-0.6-0.1
	c-0.7-0.4-6.1-3.1-10.7-3.3c0,0,0-0.1,0-0.1c0,0,0.1,0,0.1,0C42.9,48.8,45,50.4,45.5,51.1z M37.1,41.4c0.6-1,1.3-2,2.1-3
	c0,0,0,0,0,0c0.2,0,0.3,0,0.4,0.1c-0.6,0.7-1.3,1.8-1.2,3C38,41.5,37.5,41.4,37.1,41.4z M42.8,40.7c-0.6,0.5-1.2,0.9-1.6,1
	c-0.1,0-0.1,0-0.2,0.1c-0.5-0.1-1-0.1-1.4-0.2c-0.2-1.2,0.9-2.4,1.3-2.8c1,0.3,1.5,0.7,1.7,1C42.9,40.2,42.9,40.6,42.8,40.7z
	 M40,37.4C40,37.3,40.1,37.3,40,37.4c0.1-0.1,0.2-0.1,0.2-0.1c1.8,0,3,0.4,3.5,1.1c0.3,0.4,0.2,0.9,0.2,1.2
	c-0.1-0.1-0.1-0.3-0.2-0.4C43.1,38.3,41.8,37.7,40,37.4z M41.7,36.3c1.5-0.1,2.6,0.1,3.3,0.7c0.4,0.3,0.6,0.7,0.7,1
	c-0.1,0.1-0.2,0.2-0.3,0.3c-0.1,0.1-0.3,0.3-0.4,0.4c-0.1-0.3-0.2-0.6-0.4-0.8C44.1,37,43.2,36.5,41.7,36.3z M42,35.1
	c0.3-0.3,0.6-0.6,0.8-0.9c2.1,0.5,4.1,1.2,5.3,1.5c-0.5,0.4-1,0.9-1.4,1.3c-0.2-0.3-0.4-0.7-0.8-1C45,35.3,43.7,35,42,35.1z
	 M43.8,33.2c0.2-0.2,0.5-0.5,0.7-0.7c2.3,0.6,4.3,1.3,5.4,1.7c-0.2,0.2-0.5,0.4-0.7,0.6C48.4,34.5,46.2,33.8,43.8,33.2z M45.5,31.6
	c0.3-0.3,0.6-0.5,0.8-0.7c2.4,0.7,4.3,1.6,5.4,2.1c-0.2,0.1-0.4,0.3-0.7,0.4C50.3,33.1,48.1,32.3,45.5,31.6z M47.3,29.9
	C47.3,29.9,47.4,29.9,47.3,29.9c0.3-0.2,0.9-0.6,1.4-0.5c0.5,0.2,0.7,0.7,0.9,1.3C48.9,30.5,48.2,30.2,47.3,29.9z M51,31.4
	c-0.1,0-0.1-0.1-0.2-0.1c0.1-0.1,0.1-0.3,0.1-0.4c-0.3-1.4-0.9-2.2-1.8-2.5C47.8,28,46.7,29,46.6,29c0,0-3.6,3-7.1,7.2
	c-4.5,5.4-6.8,10.3-6.8,14.6c-0.1,0-0.2,0-0.3,0c0.4-11.9,13.1-21.5,13.2-21.6c0.8-0.6,3.1-1.8,4.3-1.1C50.9,28.5,51,30,51,31.4z
	 M33.9,49.5c0-0.2,0.1-0.5,0.1-0.7C38.5,49,44.4,52,44.4,52c0,0,0.1,0,0.1,0c2,0.5,3.8,0.7,5.3,0.7c2.5,0,4.4-0.7,5.5-2
	c2.8-3.4,0-9.5-0.1-9.8c0-0.1-0.1-0.2-0.2-0.2c0.2-0.2,0.4-0.3,0.6-0.4c0.5,1.3,1.8,4.7,1.5,7.7c0,0,0,0,0,0
	c-0.1,0.8-0.3,1.6-0.7,2.3c-0.1,0.1-0.1,0.1-0.1,0.2c-0.1,0.1-0.2,0.3-0.3,0.4c-1.9,2.4-6,2.9-12.2,1.5c-1-0.4-1.8-0.7-2.5-1
	C38.6,50.3,37.1,49.7,33.9,49.5z M35.7,50.9c-0.6,0-1.3,0-1.9-0.1c0,0,0-0.1,0-0.1C34.6,50.7,35.2,50.8,35.7,50.9z M68.1,48.1
	c-0.3-1-1.1-3.3-2.3-5.8c4.8,1.1,6.5,2.4,6.5,3.2C72.3,46.3,71,47.2,68.1,48.1z M57.1,33c4.9,1.8,8.9,12.8,9.8,15.4
	c-0.1,0-0.2,0.1-0.3,0.1c-1.5-3.4-6.9-15-10.5-15c0,0-0.1,0-0.1,0c-2.2,0.2-4.7,2.4-7.2,4.7c-1.7,1.5-3.5,3.1-5,3.9
	c-0.1,0-0.1,0.1-0.2,0.1c-0.2,0-0.4-0.1-0.7-0.1c1-0.7,2-1.8,3.3-3C49.6,35.8,53.7,31.8,57.1,33z M42.8,28.6c0,0,4.6-4.1,7.5-2.2
	c2.5,1.6,2.6,4.8,2.6,5.8c-0.2-0.1-0.4-0.2-0.8-0.4c0,0,0-0.1,0-0.2c0.1-2.5-0.4-4.1-1.7-4.8c-2.2-1.2-5.4,1.1-5.6,1.2
	c-0.1,0.1-3.5,2.6-6.8,6.7c-3,3.7-6.6,9.4-6.9,15.8c-0.4,0-0.7,0-1.1-0.1C28.9,41.8,42.7,28.7,42.8,28.6z M28.9,50.5
	c-0.7-0.1-1.4-0.1-2.1-0.2c0.8-1.6,1.8-1.9,2.1-1.9C28.8,49.1,28.8,49.8,28.9,50.5z M25.6,50.1c-0.2,0-0.4,0-0.6-0.1
	c1.4-2.5,3.3-3.2,4.2-3.4c0,0.2-0.1,0.4-0.1,0.5c0,0,0,0,0,0C29,47.2,26.9,47.1,25.6,50.1z M23.7,49.9c-0.2,0-0.5-0.1-0.7-0.1
	c1.8-3.8,5.3-4.8,6.7-5.1c-0.1,0.2-0.2,0.5-0.2,0.7C28.7,45.5,25.6,46.1,23.7,49.9z M21.8,49.6c-0.2,0-0.5-0.1-0.7-0.1
	c2.1-6.2,9.4-7,9.5-7c0,0,0,0,0,0c-0.1,0.3-0.3,0.6-0.4,0.9C29.5,43.6,24.1,44.3,21.8,49.6z M19.7,42c0.2-0.2,0.5-0.5,0.7-0.7
	c0.5,1.4,1.3,4.7-0.9,7.9c-0.4-0.1-0.8-0.2-1.2-0.2C20.2,45.8,19.9,43,19.7,42z M17.1,48.7c-0.9-0.2-1.8-0.5-2.5-0.7
	c1.4-1.9,2.8-3.5,4.1-5C18.8,44.3,18.6,46.4,17.1,48.7z M20.4,39.8C20.3,39.8,20.3,39.8,20.4,39.8c-0.2,0.1-0.2,0.2-0.3,0.3
	c-0.4,0.4-0.9,0.8-1.3,1.2c-0.1,0.1-0.2,0.2-0.3,0.3c-2.2,2.2-4,4.5-5.1,6.1c-0.2-0.1-0.4-0.2-0.6-0.3c6.4-11.3,16.4-15.7,23.6-16
	c0.6,0,1.3,0,2.1,0c-0.2,0.2-0.4,0.4-0.6,0.7C37.4,32,37,32,36.6,32c-3.5,0.1-6.8,1.2-9.8,3c0,0,0,0,0,0c-0.7,0.4-1.3,0.8-1.9,1.2
	c-0.1,0-0.2,0.1-0.2,0.2c-0.6,0.4-1.1,0.8-1.6,1.2c-0.1,0-0.2,0.1-0.3,0.2c-0.4,0.3-0.9,0.7-1.3,1.1c-0.1,0-0.1,0.1-0.2,0.1
	c-0.1,0-0.1,0.1-0.1,0.2C20.8,39.4,20.6,39.6,20.4,39.8z M27.7,35.8c0.2-0.1,0.4-0.2,0.6-0.3c0.7,2,3.3,2.9,4.5,3.2
	c-0.1,0.1-0.2,0.3-0.3,0.4C31.2,38.8,28.2,37.8,27.7,35.8z M31.9,40.2c-0.3,0.5-0.6,1-0.9,1.5c-0.1-0.2-0.3-0.3-0.6-0.3
	c0,0-0.3,0-0.7,0.1c0-1.1-0.5-2-1.2-2.8C29.8,39.5,31.2,40,31.9,40.2z M21.3,40.5c0.1-0.1,0.3-0.3,0.4-0.4c1.9,0.7,2.5,2.3,2.6,3.6
	c-0.8,0.5-1.5,1.1-2.2,1.9C22.4,43.3,21.7,41.3,21.3,40.5z M22.7,39.2c0.2-0.1,0.3-0.3,0.5-0.4c0.9,0.4,3.2,1.8,3,3.8
	c-0.3,0.1-0.6,0.3-0.8,0.4C25.2,41.3,24.2,40,22.7,39.2z M24.3,38.1c0.3-0.2,0.5-0.4,0.8-0.6c0.9,0.5,3.8,2.2,3.5,4.3
	c-0.4,0.1-0.7,0.2-1.2,0.4C27.3,40.1,25.4,38.7,24.3,38.1z M26.2,36.7c0.2-0.1,0.3-0.2,0.5-0.3c0.1,0.3,0.3,0.7,0.5,1
	C26.8,37.1,26.5,36.9,26.2,36.7z M29.3,35c0.3-0.1,0.6-0.3,0.9-0.4c0.1,0.2,0.1,0.4,0.3,0.6c0.7,1.1,2.4,1.6,3.3,1.9
	c-0.1,0.2-0.3,0.4-0.4,0.6C32.9,37.5,29.8,36.8,29.3,35z M31.5,34.6c-0.1-0.1-0.1-0.2-0.1-0.4c0.3-0.1,0.5-0.2,0.7-0.2
	c0.1,0.2,0.2,0.5,0.4,0.6c0.6,0.6,1.7,0.9,2.5,1c-0.1,0.2-0.2,0.3-0.4,0.5C33.8,35.9,32.1,35.4,31.5,34.6z M33.4,33.8
	c0,0-0.1-0.1-0.1-0.1c1.4-0.3,2.5-0.4,3.3-0.4c0.1,0,0.2,0,0.3,0c-0.3,0.4-0.7,0.8-1,1.3C35.2,34.5,33.9,34.3,33.4,33.8z M31.3,30
	c2.7-0.7,5.7-0.9,8.9-0.5c-0.3,0.3-0.5,0.5-0.8,0.8c0,0-0.1,0-0.1,0c-1.1-0.1-2.1-0.2-3-0.1c-7.6,0.3-18,4.9-24.6,16.7
	c-0.2-0.1-0.4-0.3-0.6-0.4c0,0,0,0,0-0.1C16.6,36.5,21.3,32.7,31.3,30z M11.9,23.9l10.3-10.3c0.3,0,0.6,0.1,0.9,0.1L12.6,24.3
	C12.4,24.2,12.1,24.1,11.9,23.9z M10.3,22.8l9.5-9.5c0.3,0,0.6,0.1,1,0.1l-9.8,9.8C10.7,23.1,10.5,23,10.3,22.8z M9,21.5l8.3-8.3
	c0,0,0,0,0,0c0.3,0,0.7,0,1,0.1L9.5,22C9.3,21.9,9.1,21.7,9,21.5z M7.8,20l6.8-6.8c0.3,0,0.6,0,0.8,0c0.1,0,0.2,0,0.2,0l-7.4,7.4
	C8.1,20.4,7.9,20.2,7.8,20z M5.2,14.6c0.4-0.1,0.8-0.2,1.2-0.3l-1,1C5.3,15,5.3,14.8,5.2,14.6z M9.8,13.6l-3.6,3.6
	c-0.1-0.2-0.2-0.5-0.3-0.7l2.7-2.7C9,13.7,9.4,13.6,9.8,13.6z M6.8,18.3l4.8-4.8c0,0,0-0.1,0.1-0.1c0.4,0,0.8-0.1,1.2-0.1L7.1,19
	C7,18.7,6.9,18.5,6.8,18.3z M24.6,14C24.6,14,24.6,14,24.6,14c0.3,0,0.6,0.1,0.9,0.2L14.6,25c-0.3-0.1-0.6-0.1-0.8-0.2L24.6,14z
	 M15.9,25.3l0,0.4L15.9,25.3L15.9,25.3z M15.6,26.3c0.1,0,0.2,0,0.3,0h0c0.4,0,0.8,0,1.1-0.1c0.1,0,0.2,0.1,0.3,0.1l-0.2,8.3
	c0,0.4,0.2,0.7,0.5,1c-0.4,0.4-0.8,0.8-1.3,1.3c-0.2-0.2-0.6-0.4-0.9-0.4L15.6,26.3z M16.1,25.2l10-10c-0.2,0.6-0.4,1.1-0.6,1.6
	l-8.3,8.3C16.9,25.1,16.5,25.2,16.1,25.2z M19.4,24.6C19.4,24.6,19.3,24.6,19.4,24.6l4.7-4.7C22.8,22.1,21.2,23.8,19.4,24.6z M3.8,5
	c0-0.9,4.3-2.7,12.5-2.7c6.7,0,10.9,1.9,11.3,2.7c0,0.1,0,0.2,0,0.3c-1.5,0.9-6,2-11.9,2S5.3,6.3,3.8,5.4C3.8,5.2,3.8,5.1,3.8,5z
	 M15.7,8.5c4,0,9.2-0.6,11.9-1.9c-0.1,2.3-0.4,4.5-0.9,6.6c-2.2-0.5-6.5-1.2-11.3-1.2c-0.3,0-0.6,0-1,0c-0.1,0-0.2,0-0.2,0
	c-3.5,0.1-6.6,0.6-9.3,1.5c-0.6-2.1-0.9-4.4-1.1-6.8C6.5,7.9,11.7,8.5,15.7,8.5z M14.4,39.1c-1,1.3-1.9,2.7-2.9,4.2
	c-0.2-0.2-0.5-0.2-0.7-0.1c-1,0.7-1.6,1.4-1.6,2.2c0,1.3,1.5,2.4,4,3.3c0,0,0,0,0,0c0.1,0.1,0.2,0.1,0.3,0.1c1,0.4,2.2,0.7,3.5,1
	c0.1,0,0.2,0.1,0.2,0.1c0,0,0,0,0,0c0.7,0.2,1.5,0.3,2.2,0.5c0.1,0,0.1,0,0.2,0c0,0,0,0,0,0c0.1,0,0.3,0,0.4,0.1c0,0,0,0,0,0
	c0.1,0,0.1,0,0.2,0c0,0,0,0,0,0c0.5,0.1,1.1,0.2,1.6,0.3c0,0,0.1,0,0.2,0c0,0,0,0,0,0c0.6,0.1,1.2,0.2,1.8,0.2c0,0,0.1,0,0.1,0
	c0,0,0,0,0,0c0.6,0.1,1.2,0.1,1.8,0.2c0,0,0,0,0.1,0c0,0,0,0,0,0c1.2,0.1,2.4,0.2,3.6,0.3c0,0,0,0,0.1,0c0,0,0,0,0,0
	c0.7,0.1,1.4,0.1,2.1,0.1c0,0,0,0,0,0h0c0,0,0,0,0,0c0.5,0,1,0.1,1.5,0.1c0,0,0,0,0,0c0,0,0,0,0,0c0,0,0,0,0,0
	c2,0.1,4.1,0.2,6.2,0.2c0,0,0,0,0,0c0.1,0,0.2,0,0.3-0.1c0.3,0.1,0.6,0.3,1,0.4c0.8,0.3,1.6,0.7,2.6,1.1c0,0,0.1,0,0.1,0
	c0,0,0,0,0,0c-0.6,0-1.2,0-1.8,0c-24.3,0-39.3-5-39.3-8.5C2.4,43.5,5.6,41.1,14.4,39.1z M42.5,65.1c-11.4,0-21.8-2.7-27.4-6.8
	c7.4,1.5,16.7,2.3,26.5,2.3c10.9,0,21.2-1,28.9-2.8c0,0,0,0,0.1,0C65.4,62.2,54.6,65.1,42.5,65.1z M81,50.1c0,3.4-15,8.2-39.3,8.2
	S2.3,53.5,2.3,50.1c0,0,0,0,0,0c0,0,0,0,0,0v-1.2c6,4.7,23.1,7.1,39.4,7.1c16.2,0,33.2-2.4,39.3-7.1L81,50.1C81,50,81,50,81,50.1
	C81,50,81,50.1,81,50.1z"/>
</svg>
