<?xml version="1.0" encoding="utf-8"?>
<!-- Generator: Adobe Illustrator 21.1.0, SVG Export Plug-In . SVG Version: 6.00 Build 0)  -->
<svg version="1.1" id="Capa_1" xmlns="http://www.w3.org/2000/svg" xmlns:xlink="http://www.w3.org/1999/xlink" x="0px" y="0px"
	 viewBox="0 0 108.7 108.7" style="enable-background:new 0 0 108.7 108.7;" xml:space="preserve">
<g>
	<path d="M108.7,52.1C108.7,52.1,108.7,52.1,108.7,52.1c0-0.2-0.1-0.3-0.1-0.4c0,0,0,0,0,0c0,0,0,0,0,0c0-0.1-0.1-0.2-0.2-0.3
		c0,0,0,0,0-0.1c-0.1-0.1-0.1-0.1-0.2-0.2c0,0-0.1,0-0.1,0c-0.1,0-0.2-0.1-0.2-0.1c0,0,0,0-0.1,0c-0.1,0-0.2,0-0.2,0
		c0,0-0.1,0-0.1,0c0,0,0,0,0,0c-0.1,0-9.3,0.8-17.9-2.8l-0.1-6.7c0,0,0-0.1,0-0.1c-0.1-2.7-4.1-3.4-10.1-4.3C78.5,37,77.8,37,77,37
		c-1.4,0-2.7,0.2-3.8,0.5c-0.7-2.1-4.5-2.9-10-3.7c-0.7-0.1-1.5-0.2-2.2-0.2c-1.8,0-3.4,0.3-4.8,0.9c-1-1.9-4.6-2.6-9.9-3.3
		c-0.7-0.1-1.5-0.2-2.2-0.2c-4.5,0-8.2,2.1-8.2,4.6c0,0.2,0,0.4,0.1,0.5c-3.6,0.2-6.6,1.7-7.4,3.6c-0.2,0.2-0.4,0.5-0.4,0.9l0.2,4.6
		c-0.1,0-0.2,0.1-0.3,0.1L25.7,47c-0.1,0.1-0.1,0.1-0.2,0.2c-10.6-4.3-19.4-7.9-19.6-8c-0.3-0.1-0.7-0.1-0.9,0.2
		c-0.1,0.1-1.5,1.4-1.4,3.2c0,1.1,0.6,2.1,1.7,3c0.1,0,0.1,0.1,0.2,0.1C6.5,46.2,41.9,60,58.5,66.4c-16.7-5.9-52.8-18.7-54-19.1
		c-0.1,0-0.1,0-0.2,0c-1.4,0-2.5,0.3-3.3,1.2c-1.2,1.3-1,3.2-1,3.3c0,0.3,0.3,0.6,0.6,0.7c0.2,0.1,4.8,1.6,11.4,3.9c0,0,0,0,0,0.1
		l-0.2,4.7c0,0.5,0.2,0.9,0.6,1.1c0.3,0.2,7.8,4,15.7,5.8c3.9,0.9,7.7,1.3,11.4,1.7c3.6,0.4,7,0.8,9.8,1.6c1.8,0.5,4,1.2,6.3,2
		c4.7,1.6,9.9,3.3,14.4,3.9c2.7,0.3,5.9,0.4,8.9,0.4c4.3,0,8-0.2,8.3-0.2c0,0,0,0,0.1,0c0,0,0.1,0,0.1,0c0,0,0.1,0,0.1,0
		c0,0,0.1,0,0.1-0.1c0,0,0.1,0,0.1,0c0,0,0.1,0,0.1-0.1c0,0,0.1,0,0.1-0.1c0,0,0,0,0,0L108.3,57c0.2-0.2,0.3-0.5,0.3-0.8L108.7,52.1
		C108.7,52.2,108.7,52.2,108.7,52.1z M87.2,51.3c-0.2,0.5-1.3,2.5-5.2,3l-0.1-3.3l5.2-5.2l0,0.9L84,49.7c-0.2,0.2-0.2,0.6,0,0.8
		c0.1,0.1,0.3,0.2,0.4,0.2s0.3-0.1,0.4-0.2l2.3-2.3L87.2,51.3z M79.6,55.6C79.6,55.6,79.6,55.6,79.6,55.6
		C79.6,55.6,79.6,55.6,79.6,55.6l0,1c0,0.2-0.3,1.1-2,1.9c-0.2,0.1-0.3,0.2-0.4,0.3c0,0-0.7,0.8-2.5,0.5c-2.4-0.4-7.2-0.7-8.2-0.8
		C65.2,58,64.4,57.3,64,57L64,55.5c0,0,0,0,0,0l-0.2-3.7l1.8-1.8c0.3,0.1,0.7,0.2,1.1,0.2l-2.6,2.6c-0.2,0.2-0.2,0.6,0,0.8
		c0.1,0.1,0.3,0.2,0.4,0.2s0.3-0.1,0.4-0.2l3.1-3.1c0.4,0.1,0.7,0.1,1.1,0.2l-3.9,3.9c-0.2,0.2-0.2,0.6,0,0.8
		c0.1,0.1,0.3,0.2,0.4,0.2s0.3-0.1,0.4-0.2l4.5-4.5c0.3,0,0.5,0.1,0.8,0.1c0.1,0,0.2,0,0.3,0L66,56.8c-0.2,0.2-0.2,0.6,0,0.8
		c0.1,0.1,0.3,0.2,0.4,0.2s0.3-0.1,0.4-0.2l6.4-6.4c0.5,0,0.9-0.1,1.5-0.2l-5.2,5.2c-0.2,0.2-0.2,0.6,0,0.8c0.1,0.1,0.3,0.2,0.4,0.2
		c0.2,0,0.3-0.1,0.4-0.2l6.5-6.5c0.7-0.2,1.4-0.5,2.1-0.8l-6,6c-0.2,0.2-0.2,0.6,0,0.8c0.1,0.1,0.3,0.2,0.4,0.2s0.3-0.1,0.4-0.2
		l5.8-5.8l0,1.3L76.7,55c-0.2,0.2-0.2,0.6,0,0.8c0.1,0.1,0.3,0.2,0.4,0.2s0.3-0.1,0.4-0.2l2.1-2.1L79.6,55.6z M61.6,54.9
		c-1.3,0.8-3.1,1.2-5.2,1.2c-5.3,0-7.8-1.8-8.5-2.5l-0.2-3.7c0.1,0,0.1,0,0.2,0c0.2,0,0.3-0.1,0.4-0.2l2.7-2.7
		c0.4,0.1,0.7,0.1,1.1,0.2l-3.5,3.5c-0.2,0.2-0.2,0.6,0,0.8c0.1,0.1,0.3,0.2,0.4,0.2s0.3-0.1,0.4-0.2l4.1-4.1
		c0.4,0.1,0.7,0.1,1.1,0.2l-5.2,5.2c-0.2,0.2-0.2,0.6,0,0.8c0.1,0.1,0.3,0.2,0.4,0.2s0.3-0.1,0.4-0.2l5.8-5.8c0.2,0,0.4,0,0.6,0
		c0.2,0,0.4,0,0.7,0l-4.4,4.4c-0.2,0.2-0.2,0.6,0,0.8c0.1,0.1,0.3,0.2,0.4,0.2s0.3-0.1,0.4-0.2l5.5-5.5c0.6-0.1,1.1-0.2,1.7-0.4
		l-4.7,4.7c-0.2,0.2-0.2,0.6,0,0.8c0.1,0.1,0.3,0.2,0.4,0.2s0.3-0.1,0.4-0.2l4.2-4.2l0.1,1.3L60,51.1c-0.2,0.2-0.2,0.6,0,0.8
		c0.1,0.1,0.3,0.2,0.4,0.2s0.3-0.1,0.4-0.2l0.6-0.6L61.6,54.9z M47,55.9c-0.8-0.3-1.6-0.6-2.4-1c0.3-0.1,0.7-0.3,1-0.4
		c0,0.1,0.1,0.2,0.2,0.3C45.8,54.8,46.2,55.3,47,55.9z M45.4,51.8c-0.1,0-0.1,0.1-0.2,0.1c-0.7,0.5-1.7,0.9-2.8,1.2
		c-0.3,0.1-0.6,0.3-0.8,0.6c-2.6-1-5.2-2.1-7.8-3.2l5.3-5.3c0.2,0,0.4,0,0.6,0c0.2,0,0.4,0,0.7,0l-4.4,4.4c-0.2,0.2-0.2,0.6,0,0.8
		c0.1,0.1,0.3,0.2,0.4,0.2s0.3-0.1,0.4-0.2l5.5-5.5c0.6-0.1,1.2-0.3,1.7-0.4l-4.7,4.7c-0.2,0.2-0.2,0.6,0,0.8
		c0.1,0.1,0.3,0.2,0.4,0.2c0.2,0,0.3-0.1,0.4-0.2l4.9-4.9l0.1,1.3l-2,2c-0.2,0.2-0.2,0.6,0,0.8c0.1,0.1,0.3,0.2,0.4,0.2
		s0.3-0.1,0.4-0.2l1.3-1.3L45.4,51.8z M30.8,47.2c0,0,0.1,0,0.1,0c0.1,0,0.3-0.1,0.4-0.2l2.7-2.7c0.4,0.1,0.7,0.1,1.1,0.2l-3.5,3.5
		c-0.2,0.2-0.2,0.6,0,0.8c0.1,0.1,0.3,0.2,0.4,0.2s0.3-0.1,0.4-0.2l4.1-4.1c0.4,0.1,0.7,0.1,1.1,0.2l-5,5c-0.6-0.2-1.2-0.5-1.8-0.7
		c0-0.1,0-0.1,0-0.2L30.8,47.2z M69.5,44.4c0.6,0,1.3,0,1.9,0.1c0.3,0,0.6,0.1,1,0.2c1.5,0.4,3.4,0.8,5.5,1.1
		c0.8,0.2,1.4,0.5,1.5,0.8c-0.4,0.7-3.7,2.2-6.8,2.2c-0.4,0-0.7,0-1-0.1c-3.1-0.5-7.7-1.2-8.1-2.1v0C63.6,46.1,65.7,44.4,69.5,44.4z
		 M68.4,42.1c0.1,0,0.3-0.1,0.4-0.1c0,0,0,0.1,0,0.1C68.7,42.1,68.6,42.1,68.4,42.1z M81.8,46.6c0-0.2,0-0.4-0.1-0.6
		c0.3,0,0.6-0.1,0.9-0.2L81.8,46.6C81.8,46.6,81.8,46.6,81.8,46.6z M81.9,48.3l3-3c0.6-0.2,1.2-0.4,1.7-0.7l-4.7,4.7L81.9,48.3z
		 M63.7,49.4c0.2,0.1,0.4,0.1,0.6,0.2l-0.5,0.5L63.7,49.4z M56.7,45.5c-0.4,0-0.7,0-1-0.1c-3.1-0.5-7.7-1.2-8.1-2.1
		c0-0.6,2.1-2.2,5.9-2.2c0.6,0,1.3,0,1.9,0.1c0.3,0,0.6,0.1,1,0.2c1.5,0.4,3.4,0.8,5.5,1.1c0.8,0.2,1.4,0.5,1.5,0.8
		C63,44.1,59.7,45.5,56.7,45.5z M47.5,46.1c0.6,0.3,1.3,0.5,2.1,0.7l-2,2L47.5,46.1z M77,39.3c0.6,0,1.3,0,1.9,0.1
		c2.1,0.3,7.6,1.1,8.1,2.1c-0.4,0.7-3.7,2.2-6.8,2.2c-0.4,0-0.7,0-1-0.1c-0.3,0-0.6-0.1-0.9-0.1c-1.5-0.5-3.4-0.8-5.6-1.1
		c-0.9-0.3-1.5-0.5-1.7-0.8C71.1,41,73.2,39.3,77,39.3z M61,36c0.6,0,1.3,0,1.9,0.1c2.1,0.3,7.6,1.1,8.1,2.1
		c-0.4,0.7-3.7,2.2-6.8,2.2c-0.4,0-0.7,0-1-0.1c-0.3,0-0.6-0.1-0.8-0.1c-1.5-0.5-3.4-0.8-5.6-1.1c-0.9-0.3-1.5-0.5-1.7-0.8
		C55.1,37.7,57.2,36,61,36z M44.1,33.4c0.6,0,1.3,0,1.9,0.1c2.1,0.3,7.6,1.1,8.1,2.1c-0.4,0.7-3.7,2.2-6.8,2.2c-0.4,0-0.7,0-1-0.1
		c-0.3,0-0.6-0.1-0.8-0.1c-1.5-0.5-3.4-0.8-5.6-1.1c-0.9-0.3-1.5-0.5-1.7-0.8C38.2,35.1,40.3,33.4,44.1,33.4z M36.6,38.5
		c0.6,0,1.3,0,1.9,0.1c0.3,0,0.6,0.1,1,0.2c1.5,0.4,3.4,0.8,5.5,1.1c0.8,0.2,1.4,0.5,1.5,0.8c-0.4,0.7-3.7,2.2-6.8,2.2
		c-0.4,0-0.7,0-1-0.1c-3.1-0.5-7.7-1.2-8.1-2.1C30.7,40.2,32.8,38.5,36.6,38.5z M32.7,44.1l-2,2l-0.1-2.6
		C31.3,43.7,32,43.9,32.7,44.1z M28.5,47.9l0,0.5c-0.1-0.1-0.3-0.1-0.4-0.2L28.5,47.9z M6.2,44.1c-0.6-0.5-0.9-1-0.9-1.6
		c0-0.6,0.3-1.1,0.5-1.4c1,0.4,3,1.2,5.8,2.4l1.2,3.3C9.2,45.3,6.8,44.3,6.2,44.1z M14.3,47.3L13.1,44c0.3,0.1,0.6,0.2,0.9,0.4
		l1.2,3.3C14.9,47.5,14.6,47.4,14.3,47.3z M16.7,48.2c0,0,0-0.1,0-0.1L15.5,45c15.4,6.2,43,17.5,47.3,19.2c2.6,1,3.5,2.1,3.7,2.9
		c0.1,0.3,0.1,0.5,0.1,0.7C52.3,62.1,29.8,53.4,16.7,48.2z M1.8,51.1c0-0.4,0.2-1,0.5-1.4c0.4-0.4,1-0.6,1.8-0.6
		c0.6,0.2,3,1,6.7,2.3l-3.1,1.7C4.9,52.1,2.8,51.4,1.8,51.1z M9.2,53.6l3.1-1.7c0.3,0.1,0.6,0.2,0.9,0.3l-3.1,1.7
		C9.8,53.8,9.5,53.7,9.2,53.6z M39.8,67.4c-3.6-0.4-7.4-0.8-11.2-1.7c-6.3-1.4-12.5-4.3-14.5-5.2l0.1-3.3c10.1,3.4,23.6,8,33.4,11.3
		C45.2,68,42.6,67.7,39.8,67.4z M60,70.9c-4.4-1.5-32.7-11.1-48.4-16.5l2.9-1.6c0,0,0.1-0.1,0.1-0.1C28,57.5,50.7,65.5,65.2,70.7
		c-0.3,0.4-0.9,0.8-2.1,0.8C62.2,71.5,61.2,71.3,60,70.9z M70.3,74.9c-2.2-0.3-4.7-0.9-7.2-1.6c1.5,0,2.4-0.5,3-1
		c0.1,0.1,0.2,0.1,0.3,0.1c4.2,0.8,7.6,1.1,10.4,1.1c3.3,0,5.8-0.4,8.1-0.7c0.1,0,0.3,0,0.4-0.1l0.4,2.4
		C82.8,75.3,75.3,75.5,70.3,74.9z M86.3,70.2c0,0-0.1,0-0.1,0c0,0,0,0,0,0c0,0,0,0,0,0c-0.5,0.1-1,0.1-1.5,0.2
		c-4.2,0.6-9,1.3-17.4-0.3c0-0.1,0-0.3-0.1-0.4c0,0,0,0,0,0c0.3,0,0.6-0.1,0.7-0.4c0.1-0.1,0.8-1.3,0.3-2.8c-0.5-1.6-2.1-2.9-4.7-4
		c-1.5-0.6-5.7-2.3-11.2-4.5c1.2,0.2,2.5,0.4,4.1,0.4c2.1,0,3.9-0.3,5.3-0.9l0,0.1c0,0.2,0.1,0.5,0.3,0.7c0.1,0.2,1.2,1.5,3.9,2.5
		c0.1,0,0.2,0.1,0.3,0.1c0.1,0,5.6,0.4,8.2,0.8c0.4,0.1,0.8,0.1,1.1,0.1c1.9,0,2.9-0.8,3.4-1.2c3-1.5,3.2-3.6,3.2-3.8c0,0,0,0,0,0
		c6.3-0.7,7.4-4.7,7.5-4.8c0-0.1,0-0.2,0-0.3l0-0.7c5.7,2.2,11.4,2.7,14.9,2.7L86.3,70.2z M106.3,55.6L87.9,73.8l-0.3-1.7l18.7-17.3
		V55.6z"/>
	<path d="M79.6,42.9c0.5,0,1,0.1,1.4,0.1c1.8,0,2.6-0.3,2.7-1c0.1-1.2-2.7-1.6-3.8-1.8c-0.5,0-1-0.1-1.4-0.1c-1.8,0-2.6,0.3-2.7,1
		C75.6,42.4,78.4,42.8,79.6,42.9z M79.7,41.3c1,0.1,1.7,0.3,2.2,0.4c-0.5,0.1-1.4,0.1-2.2,0c-1-0.1-1.7-0.3-2.2-0.4
		C78,41.3,78.8,41.3,79.7,41.3z"/>
	<path d="M69.5,47.5c0.7,0.2,1.6,0.4,2.5,0.5c0.5,0,1,0.1,1.4,0.1c1.8,0,2.6-0.3,2.7-1c0.1-0.8-1-1.1-1.3-1.3
		c-0.7-0.2-1.6-0.4-2.5-0.5c-0.5,0-1-0.1-1.4-0.1c-1.8,0-2.6,0.3-2.7,1C68.1,47.1,69.2,47.4,69.5,47.5z M72.2,46.5
		c1,0.1,1.7,0.3,2.2,0.4c-0.5,0.1-1.4,0.1-2.2,0c-1-0.1-1.7-0.3-2.2-0.4C70.4,46.4,71.3,46.4,72.2,46.5z"/>
	<path d="M61,39.1c0.7,0.2,1.6,0.4,2.5,0.5c0.5,0,1,0.1,1.4,0.1c1.8,0,2.6-0.3,2.7-1c0.1-1.2-2.7-1.6-3.8-1.8c-0.5,0-1-0.1-1.4-0.1
		c-1.8,0-2.6,0.3-2.7,1C59.6,38.7,60.6,39,61,39.1z M63.7,38.1c1,0.1,1.7,0.3,2.2,0.4c-0.5,0.1-1.4,0.1-2.2,0
		c-1-0.1-1.7-0.3-2.2-0.4C61.9,38,62.8,38,63.7,38.1z"/>
	<path d="M58.7,42.5c-0.7-0.2-1.6-0.4-2.5-0.5c-0.5,0-1-0.1-1.4-0.1c-1.8,0-2.6,0.3-2.7,1c0,0.2,0,0.4,0.2,0.6
		c0.7,0.8,3.2,1.1,3.6,1.1c0.5,0,1,0.1,1.4,0.1c1.8,0,2.6-0.3,2.7-1C60.2,43,59.1,42.6,58.7,42.5z M56.1,43.6
		c-1-0.1-1.7-0.3-2.2-0.4c0.5-0.1,1.4-0.1,2.2,0c1,0.1,1.7,0.3,2.2,0.4C57.8,43.6,57,43.7,56.1,43.6z"/>
	<path d="M46.6,37c0.5,0,1,0.1,1.4,0.1c1.8,0,2.6-0.3,2.7-1c0.1-1.2-2.7-1.6-3.8-1.8c-0.5,0-1-0.1-1.4-0.1c-1.8,0-2.6,0.3-2.7,1
		C42.7,36.5,45.4,36.9,46.6,37z M46.8,35.4c1,0.1,1.7,0.3,2.2,0.4c-0.5,0.1-1.4,0.1-2.2,0c-1-0.1-1.7-0.3-2.2-0.4
		C45.1,35.4,45.9,35.3,46.8,35.4z"/>
	<path d="M39.1,42.1c0.5,0,1,0.1,1.4,0.1c1.8,0,2.6-0.3,2.7-1c0.1-0.8-1-1.1-1.3-1.3c-0.7-0.2-1.6-0.4-2.5-0.5c-0.5,0-1-0.1-1.4-0.1
		c-1.8,0-2.6,0.3-2.7,1c0,0.2,0,0.4,0.2,0.6C36.1,41.8,38.6,42.1,39.1,42.1z M39.3,40.5c1,0.1,1.7,0.3,2.2,0.4
		c-0.5,0.1-1.4,0.1-2.2,0c-1-0.1-1.7-0.3-2.2-0.4C37.5,40.5,38.4,40.5,39.3,40.5z"/>
</g>
</svg>
