<?xml version="1.0" encoding="utf-8"?>
<!-- Generator: Adobe Illustrator 21.1.0, SVG Export Plug-In . SVG Version: 6.00 Build 0)  -->
<svg version="1.1" id="Capa_1" xmlns="http://www.w3.org/2000/svg" xmlns:xlink="http://www.w3.org/1999/xlink" x="0px" y="0px"
	 viewBox="0 0 72 72" style="enable-background:new 0 0 72 72;" xml:space="preserve">
<path d="M66.5,27.5c-0.1-0.3-0.3-0.6-0.7-0.7l-10.6-4.4L65.4,3.7c0.1-0.3,0.1-0.6,0-0.9c-0.1-0.2-1.4-2.3-3.2-2.5
	c-0.6-0.1-1.5,0-2.4,1c-0.8,0.9-6.2,11.5-9.9,18.9l-2.2-1c-0.6-0.3-1.2,0-1.5,0.5L43.9,24c0,0.1-0.1,0.2-0.1,0.2
	c-0.4-0.2-0.8-0.3-1.1-0.4c0-0.1,0-0.1,0-0.2c-0.1-0.2-0.5-1.1-1.3-1.2c-0.3,0-0.7,0-1.2,0.5c0,0,0,0,0,0c-0.4-0.2-2.2-0.8-3.9-0.5
	c0-0.1,0-0.1-0.1-0.2c0-0.1-0.3-0.5-1-0.6c-0.1,0-0.2,0-0.3,0c0-0.1-0.1-0.1-0.1-0.2c-0.1-0.1-1.9-1.7-5.3-0.1
	c-4-7.4-10.3-19-10.8-20c0-0.1-0.1-0.1-0.1-0.2c-1-1-2-1.4-3.1-1.3c-1.8,0.1-3,1.7-3,1.8c-0.2,0.3-0.2,0.6-0.1,0.9L24,24.2
	c-0.5,0.5-1.1,1.4-1.6,3.2l-0.7-1.8c-0.1-0.3-0.3-0.5-0.5-0.6L7.1,17.5c-0.4-0.2-0.9-0.2-1.3,0.1c-0.4,0.3-0.5,0.8-0.3,1.3l4,11.2
	l5,31.6c0,0,0,0.1,0,0.1c0,0,0,0.1,0,0.1c0,0,0,0.1,0,0.1c0,0,0,0.1,0.1,0.1c0,0,0,0.1,0.1,0.1c0,0,0,0.1,0.1,0.1c0,0,0,0,0.1,0.1
	c0,0,0.1,0.1,0.1,0.1c0,0,0,0,0,0l12.5,9.3c0,0,0,0,0,0c0.1,0.1,0.2,0.1,0.3,0.2c0,0,0,0,0.1,0c0.1,0,0.2,0.1,0.3,0.1h0l0,0h0H55
	c0.6,0,1.1-0.4,1.2-1l3.7-32l6.5-10.4C66.6,28.2,66.6,27.8,66.5,27.5z M61,2.5c0.4-0.5,0.8-0.5,1-0.5c0.6,0.1,1.3,0.7,1.6,1.2
	l-2.5,4.6l-3.5,0.9C59.4,5.4,60.7,2.9,61,2.5z M56.9,10.1l3.4-0.9L60,10l-3.4,0.9C56.7,10.6,56.8,10.4,56.9,10.1z M55.9,12.2
	l3.4-0.8l-10,18.3c-0.2-0.8-0.6-1.6-1-2.2c0,0,0,0,0,0C50.5,23,53.4,17.1,55.9,12.2z M57.1,39.7c0,0-0.1,0.1-0.1,0.1l-28,28
	l-3.7-28.1C25.3,39.7,57.1,39.7,57.1,39.7z M51.4,35.6l3,1.8h-2.6C51.8,36.7,51.6,36.1,51.4,35.6z M50.8,69.6h-2.4l6.2-6.2L54.3,66
	l-3.4,3.4C50.8,69.5,50.8,69.6,50.8,69.6z M54.9,61.6c-0.1,0-0.2,0.1-0.2,0.1L47,69.4c-0.1,0.1-0.1,0.1-0.1,0.2h-2.4l10.7-10.7
	L54.9,61.6z M55.4,57.1L43,69.4c-0.1,0.1-0.1,0.1-0.1,0.2h-2.4l15.2-15.2L55.4,57.1z M55.9,52.6L39.1,69.4C39,69.5,39,69.6,39,69.6
	h-2.4L56.2,50L55.9,52.6z M56.4,48.6c-0.2,0-0.4,0-0.5,0.2L35.2,69.4c-0.1,0.1-0.1,0.1-0.1,0.2h-2.4l24.1-24.1L56.4,48.6z M25,33.7
	l-1.2-3l0.7-0.3c0,0,0.1,0.1,0.1,0.1c0,0,0.7,0.4,0.9,1c0.1,0.4,0.1,0.7-0.1,1.2C25.2,33.1,25.1,33.4,25,33.7z M25.8,35.5
	c0.1-2.9,2.4-4.2,3.1-4.5c0.1,0,0.2,0.1,0.3,0.1c-0.8,0.5-1.8,1.3-2.4,2.5c0,0,0,0,0,0.1c-0.4,0.7-0.7,1.6-0.8,2.7l-0.3-0.7
	C25.8,35.7,25.8,35.6,25.8,35.5z M25.8,30l1-0.4c0.3,0.3,0.6,0.6,1,0.8c-0.3,0.2-0.7,0.5-1.1,0.8C26.5,30.6,26.1,30.2,25.8,30z
	 M33.1,28.6c0.1,0.1,0.3,0.3,0.4,0.4c-1.1,0.9-2.1,1.4-3.2,1.2c-1-0.1-1.9-0.7-2.5-1.3c0.1-0.1,0.2-0.2,0.3-0.3
	c1.1,0.9,2.1,1.4,3.1,1.2C32.1,29.7,32.7,29.1,33.1,28.6z M31.8,25.8c-0.3-0.5-0.6-1.2-1-1.9c0.6-0.4,1.1-0.4,1.4-0.3
	C32,24.2,31.8,25,31.8,25.8z M40.8,27.2c0.1-0.1,0.2-0.3,0.2-0.4c0.4,0.1,4.7,1.1,5.4,4c0,0-0.1,0-0.1,0c0-0.1,0-0.1,0-0.2
	C45,27.8,42.1,27.3,40.8,27.2z M45.1,30.9c-1,0.1-1.9,0.4-2.5,0.9c0,0-0.1-0.1-0.1-0.1c0.8-0.5,1.2-1.5,1.5-2.3
	C44.4,29.8,44.8,30.3,45.1,30.9z M41.5,28.5c-0.3,0.5-0.9,1.4-1.9,1.4c-0.1-0.1-0.3-0.2-0.4-0.3c0.2-0.4,0.5-0.8,0.8-1.3
	c0,0,0.1,0,0.1,0C40.2,28.4,40.7,28.4,41.5,28.5z M42.6,28.8c0.1,0,0.1,0.1,0.2,0.1c-0.1,0.5-0.6,2-1.6,2.1
	c-0.1-0.1-0.2-0.1-0.3-0.2C41.8,30.2,42.4,29.2,42.6,28.8z M43,33c0.6-0.8,2.8-1,4.6-1c0,0,0,0,0,0c-1.1,0.1-2.7,0.3-3.4,1.1
	c-0.3,0.4-0.6,0.8-0.8,1.3c-0.5,0.8-1,1.8-2.2,2.5c-0.2,0.1-0.3,0.3-0.3,0.5h-2.2C40.7,36.1,42.2,34.1,43,33z M44,37.3h-1.4
	c1-0.8,1.5-1.7,1.9-2.4c0.1-0.1,0.1-0.2,0.1-0.3c0.2,0,0.4,0,0.6,0.1C44.7,35.4,43.9,36.4,44,37.3z M46.5,35.1
	c0.2,0.1,0.4,0.2,0.6,0.3c-0.5,0.5-1.1,1.2-1.1,1.9h-0.8C45,37,45.7,35.9,46.5,35.1z M40,34.8l-3-2.3c0.1-0.1,0.2-0.2,0.2-0.2
	c0,0,0.1,0,0.1-0.1c1.1,0.8,2.3,1.4,3.3,1.8C40.5,34.3,40.3,34.5,40,34.8z M39.1,35.5l-1.2,0.9l-2.2-2.7l0.4-0.4L39.1,35.5z
	 M36.9,37c-0.1,0.1-0.3,0.1-0.4,0.1c-0.1,0-0.2,0.1-0.3,0.2h-1.6c0-0.1,0-0.2,0-0.2c-0.2-0.9,0-1.7,0.4-2.4L36.9,37z M33.5,37.3
	h-0.7c0,0,0-0.1,0-0.1c-0.6-3.2,2.8-5.6,2.8-5.7c0.1-0.1,0.2-0.3,0.2-0.4c0.2,0.1,0.3,0.3,0.5,0.4C35.5,32.2,32.7,34.5,33.5,37.3z
	 M31.6,37.3h-1.3c0.2-0.9-0.1-1.6-0.4-2.2c0.9-0.1,1.5,0,1.8,0.1C31.5,35.9,31.5,36.6,31.6,37.3z M27.6,34.6c0-0.1,0.1-0.2,0.1-0.3
	c1.6-1.4,3.5-0.7,4.3-0.3c0,0,0,0.1-0.1,0.1C31.3,33.9,29.9,33.7,27.6,34.6z M29.1,37.3C29.1,37.3,29.1,37.3,29.1,37.3l-2,0.1
	c0-0.1,0-0.1,0-0.2c0-0.4,0-0.7,0.1-1.1c0.5-0.3,1-0.5,1.4-0.6c0,0,0,0,0,0C28.7,35.5,29.6,36.3,29.1,37.3z M29.6,32.3
	c0.9-0.6,1.7-0.9,2-1c0.1,0.4,0.4,1,1.5,1.2c-0.1,0.2-0.2,0.3-0.4,0.5C31.9,32.6,30.8,32.2,29.6,32.3z M35,30.6
	c-0.1,0-0.5,0.4-1.1,0.9c-0.1-0.1-0.3-0.2-0.4-0.2c-0.4,0-0.6,0-0.7-0.2c0-0.1-0.1-0.1-0.1-0.2c0.6-0.3,1.1-0.7,1.7-1.1
	c0.3,0.2,0.5,0.5,0.8,0.7C35.1,30.6,35,30.6,35,30.6z M47.1,37.3c0.1-0.2,0.4-0.7,0.8-1.1c0.2,0.3,0.5,0.7,0.6,1.1H47.1z M49.8,37.3
	c-0.2-1-0.7-1.7-1.3-2.3c0,0,0,0,0,0c0-0.1-0.1-0.1-0.1-0.1c-0.8-0.7-1.8-1.1-2.7-1.3c0.3-0.1,0.7-0.2,1.1-0.3c0.1,0,0.1,0,0.2,0
	c0.2,0,3.5,0.8,3.8,4H49.8z M45.9,25.1l1.8-3.4l1.1,0.5c-0.8,1.6-1.4,2.9-1.9,3.8c-0.4-0.3-0.7-0.6-1.1-0.8
	C45.9,25.2,45.9,25.2,45.9,25.1z M42.1,25c0.8,0.2,3,0.8,4.6,2.5c0.1,0.1,0.1,0.2,0.2,0.3c0.7,0.8,1.2,1.8,1.3,3.1
	c-0.2,0-0.4,0-0.7,0c0,0,0,0,0,0c-0.5-3.3-4.6-4.7-5.9-5.1C41.8,25.5,42,25.2,42.1,25z M41.1,23.8C41.1,23.7,41.1,23.7,41.1,23.8
	c0.1-0.1,0.2,0.1,0.3,0.2c-0.5,0.9-2.2,3.5-3.1,5c-0.1,0-0.1-0.1-0.2-0.1C39,27.6,40.7,24.4,41.1,23.8z M35.3,24.2
	c1.3-1,3.6-0.4,4.3-0.1c-0.1,0.1-0.1,0.2-0.2,0.3C38.7,24.1,37.2,23.7,35.3,24.2C35.2,24.2,35.2,24.2,35.3,24.2z M38.8,25.4
	c-0.1,0.1-0.1,0.2-0.2,0.3c-1-0.2-2.4-0.1-3.3,0.8c-0.1-0.1-0.1-0.1-0.1-0.2c-0.1-0.3-0.2-0.5-0.2-0.8
	C36.9,24.9,38.2,25.2,38.8,25.4z M38,26.8c-0.4,0.6-0.7,1.1-0.9,1.3c-0.3-0.3-0.6-0.5-0.9-0.8C36.6,26.8,37.4,26.7,38,26.8z
	 M34.2,26.9c0.7,1.3,3,2.9,5.8,4.7c0.6,0.4,1.3,0.9,1.8,1.2c-0.1,0.1-0.2,0.2-0.3,0.3c0,0,0,0-0.1,0c-3.1-0.8-7.4-4.9-8.2-6.1
	c-0.5-0.7-0.1-2.3,0.2-3.2c0.5-0.4,0.9-0.6,1.2-0.7c-0.1,0.1-0.2,0.3-0.3,0.5c0,0,0,0,0,0C33.9,24.3,33.5,25.6,34.2,26.9z
	 M33.6,22.2c-0.2,0.1-0.5,0.3-0.7,0.5c-0.5-0.2-1.5-0.5-2.6,0.2c-0.1-0.1-0.1-0.2-0.2-0.4C31.8,21.7,33,22,33.6,22.2z M14.1,2.4
	c0.3-0.3,0.8-0.6,1.4-0.7c0.5,0,1.1,0.2,1.7,0.8c0.4,0.6,1.7,3,3.4,6.3l-3.5-0.9L14.1,2.4z M17.9,9.3l3.5,0.9
	c0.1,0.3,0.3,0.6,0.5,0.8l-3.5-0.9L17.9,9.3z M19.1,11.6l3.2,0.8c0,0,0.1,0,0.1,0c0,0,0.1,0,0.1,0c2.9,5.4,6.3,11.8,8.7,16.1
	c0,0,0,0,0,0.1c-0.1,0-0.2,0.1-0.3,0.1c-0.9,0.1-2.1-0.6-3.4-2.2c0-0.1-0.1-0.1-0.2-0.1c0,0-0.2-0.1-0.3-0.1L19.1,11.6z M24.6,25.3
	l0.3,0.6l-0.2,1.6c0,0.1,0,0.1,0,0.2l-1.2,0.2C23.9,26.5,24.3,25.7,24.6,25.3z M25.5,28.7L25.5,28.7l-1.8,0.8L23.6,29L25.5,28.7z
	 M8.7,21l11.1,5.9l3.5,8.9L11.5,29L8.7,21z M12.1,32.3l3.9,2.5l1.3,15.9L15.9,56L12.1,32.3z M17,61.1l1.9-7l6.9,13.5L17,61.1z
	 M19.7,50.5l-1.2-14.1l4.3,2.8l3.1,23.5L19.7,50.5z M29.2,69.2l28.1-28.1l-0.3,2.6L31.2,69.4c-0.1,0.1-0.1,0.1-0.1,0.2h-1.9
	C29.2,69.5,29.2,69.3,29.2,69.2z M52.3,69.6l1.8-1.8l-0.2,1.8H52.3z M58.3,36.9L50,32l4.1-7.5l9.6,3.9L58.3,36.9z"/>
</svg>
