<?xml version="1.0" encoding="utf-8"?>
<!-- Generator: Adobe Illustrator 21.1.0, SVG Export Plug-In . SVG Version: 6.00 Build 0)  -->
<svg version="1.1" id="Capa_1" xmlns="http://www.w3.org/2000/svg" xmlns:xlink="http://www.w3.org/1999/xlink" x="0px" y="0px"
	 viewBox="0 0 344.5 344.5" style="enable-background:new 0 0 344.5 344.5;" xml:space="preserve">
<style type="text/css">
	.st0{fill:#84BD93;}
	.st1{fill:#CE593F;}
	.st2{fill:#3F2D20;}
</style>
<g>
	<g>
		<path class="st0" d="M179.1,44.3c0.2,0.3,0.3,0.7,0.5,1C179.4,45,179.3,44.7,179.1,44.3z"/>
		<path class="st0" d="M180,46.2c0.1,0.4,0.3,0.7,0.4,1.1C180.2,46.9,180.1,46.6,180,46.2z"/>
		<path class="st0" d="M180.6,48.1c0.1,0.4,0.2,0.7,0.2,1.1C180.8,48.8,180.7,48.5,180.6,48.1z"/>
		<path class="st0" d="M178,42.4c0.2,0.3,0.4,0.6,0.6,1C178.4,43.1,178.2,42.8,178,42.4z"/>
		<path class="st0" d="M175.6,39.4c-0.2-0.3-0.5-0.5-0.7-0.8C175.1,38.9,175.3,39.2,175.6,39.4z"/>
		<path class="st0" d="M180.8,49.4c-0.5-0.4-1.1-0.9-1.6-1.3c-12.8-10.1-38-19.7-51.9-19.7c-2.9,0-4.5,0.5-5.1,0.7
			c-0.5,1.9,0.6,8.4,6.5,19.1c5.4,7.3,11.3,13.7,16.8,18c5.4,4.3,10.5,6.5,15.1,6.5c6.8,0,12-4.8,15.2-8.8c3.6-4.5,5.3-8.9,5.2-13
			C181,50.4,180.9,49.9,180.8,49.4z"/>
		<path class="st0" d="M128.3,47.5c-0.9-1.2-1.7-2.4-2.6-3.6C126.6,45.1,127.5,46.3,128.3,47.5z"/>
		<path class="st0" d="M124.9,42.5c-1.1-1.6-2.1-3.3-3.1-5C122.7,39.2,123.8,40.9,124.9,42.5z"/>
		<path class="st0" d="M172.9,36.7c0.2,0.2,0.5,0.4,0.7,0.7C173.3,37.1,173.1,36.9,172.9,36.7z"/>
		<path class="st0" d="M176.5,40.5c0.2,0.3,0.5,0.6,0.7,0.9C177,41.1,176.8,40.8,176.5,40.5z"/>
	</g>
	<g>
		<path class="st1" d="M200.9,106.6c1.6-0.2,3.2-0.4,4.8-0.5C204.1,106.2,202.5,106.4,200.9,106.6z"/>
		<path class="st1" d="M287.4,156.1c-8.5-28.6-30.4-43.6-54.9-48.5c15.7,3.1,30.3,10.4,41,22.8c-19-14.3-44.9-17.9-68.4-13.6
			c-6.9,1.3-13.6,3.2-19.8,6.1c-1.1,0.5-3.1,1.5-6.1,0c-6.1-3-12.9-4.8-19.8-6.1c-36.7-6.7-79.5,5.8-92.3,48.6
			c-3,10.2-12.3,41.3,14.2,78.4c8.3,11.6,13.7,25.4,19,38.8c5.7,14.4,11.1,27.9,19.4,38.1c-10.1-7-16.6-17.6-22.1-29.8
			c11.8,26,27.8,44.7,73.4,36.8c0.9-0.2,1.7-0.1,2.5,0c0,0,0,0,0.1,0c55.3,9.7,67.1-20,80.6-54.3c5.3-13.4,10.7-27.2,19-38.8
			C299.7,197.4,290.4,166.3,287.4,156.1z M111.3,137.6c-26.6,8.5-25.6,36.9-25.6,38.1c0.2,4.1-3,7.7-7.1,7.9c-0.1,0-0.2,0-0.4,0
			c-4,0-7.3-3.1-7.5-7.1c-0.7-14.1,5.8-43.5,36-53.2c4-1.3,8.2,0.9,9.5,4.9C117.4,132.1,115.3,136.3,111.3,137.6z"/>
		<path class="st1" d="M205.8,106.1c1.6-0.1,3.2-0.2,4.7-0.2C209,105.9,207.4,106,205.8,106.1z"/>
		<path class="st1" d="M195.1,107.5c1.6-0.3,3.1-0.5,4.7-0.7C198.2,107,196.7,107.2,195.1,107.5z"/>
		<path class="st1" d="M211.5,105.8c3.3-0.1,6.7,0,10,0.3C218.2,105.8,214.8,105.8,211.5,105.8z"/>
		<path class="st1" d="M222.1,106.2c3.5,0.3,6.9,0.8,10.3,1.4C229,106.9,225.5,106.4,222.1,106.2z"/>
		<path class="st1" d="M97.6,290.8c-0.5-1.1-1-2.1-1.4-3.2C96.6,288.7,97.1,289.7,97.6,290.8z"/>
		<path class="st1" d="M96,287.2c-0.4-1-0.8-2-1.3-3C95.1,285.3,95.6,286.3,96,287.2z"/>
		<path class="st1" d="M94.5,283.7c-0.4-1-0.8-1.9-1.2-2.9C93.7,281.8,94.1,282.8,94.5,283.7z"/>
		<path class="st1" d="M93.1,280.3c-0.4-1-0.8-2-1.2-3C92.3,278.2,92.7,279.3,93.1,280.3z"/>
		<path class="st1" d="M91.7,276.8c-0.5-1.2-0.9-2.3-1.4-3.5C90.8,274.5,91.2,275.6,91.7,276.8z"/>
	</g>
	<path class="st2" d="M106.7,123.3c-30.2,9.7-36.8,39-36,53.2c0.2,4,3.5,7.1,7.5,7.1c0.1,0,0.2,0,0.4,0c4.1-0.2,7.3-3.7,7.1-7.9
		c-0.1-1.2-1-29.5,25.6-38.1c4-1.3,6.1-5.5,4.9-9.5C114.9,124.2,110.7,122,106.7,123.3z"/>
	<path class="st2" d="M301.8,151.8c-6.8-22.8-21.4-40.4-42.3-50.9c-19.2-9.7-43.1-12.6-67.1-8.2c-3.7,0.7-7.4,1.6-10.9,2.6
		c3-14.8,12.6-43.6,43-62.7c3.5-2.2,4.6-6.9,2.4-10.4c-2.2-3.5-6.9-4.6-10.4-2.4c-9.3,5.8-16.9,12.4-23.2,19.3
		c-2.6-5.7-7.1-11.1-13.4-16.1c-15.4-12.3-44-23-61.2-23c-7.8,0-13.5,2.1-16.9,6.4c-5.9,7.4-3.9,19.9,5.9,37.1
		c7.7,13.4,18.6,26.7,28.5,34.5c8.1,6.5,16.4,9.7,24.5,9.7c2.5,0,4.9-0.3,7.3-0.9c-0.9,3.6-1.5,6.8-2,9.5c-4.5-1.5-9.2-2.7-13.9-3.6
		c-24-4.4-47.9-1.5-67.1,8.2c-20.9,10.5-35.5,28.1-42.3,50.9c-3.6,12-14.4,48.4,16.3,91.4c7.2,10.1,12.1,22.5,17.3,35.6
		c12.3,31,26,65.7,74.8,65.7c6.4,0,13.4-0.6,21.1-1.9c7.7,1.3,14.7,1.9,21.1,1.9c48.8,0,62.5-34.7,74.8-65.7
		c5.2-13.1,10.1-25.5,17.3-35.6C316.2,200.2,305.4,163.8,301.8,151.8z M273.2,234.5c-8.3,11.6-13.7,25.4-19,38.8
		c-13.6,34.3-25.3,64-80.6,54.3c0,0,0,0-0.1,0c-0.8-0.1-1.7-0.1-2.5,0c-55.3,9.7-67.1-20-80.6-54.3c-5.3-13.4-10.7-27.2-19-38.8
		c-26.5-37.1-17.2-68.2-14.2-78.4c12.8-42.9,55.5-55.3,92.3-48.6c6.9,1.3,13.7,3.1,19.8,6.1c3.1,1.5,5.1,0.5,6.1,0
		c6.2-2.9,12.9-4.8,19.8-6.1c36.7-6.7,79.5,5.8,92.3,48.6C290.4,166.3,299.7,197.4,273.2,234.5z M121.7,37.6
		c-7.3-12.3-8.6-19.8-8.1-21.8c0.6-0.3,2.1-0.7,5.1-0.7c13.9,0,39.1,9.6,51.9,19.7c6.7,5.3,10.2,10.7,10.4,16.1
		c0.2,4.1-1.6,8.5-5.2,13c-3.2,4-8.4,8.8-15.2,8.8c-4.6,0-9.7-2.2-15.1-6.5C137.6,59.8,128.4,48.9,121.7,37.6z"/>
</g>
</svg>
