<?xml version="1.0" encoding="utf-8"?>
<!-- Generator: Adobe Illustrator 21.1.0, SVG Export Plug-In . SVG Version: 6.00 Build 0)  -->
<svg version="1.1" id="Capa_1" xmlns="http://www.w3.org/2000/svg" xmlns:xlink="http://www.w3.org/1999/xlink" x="0px" y="0px"
	 viewBox="0 0 401.9 401.9" style="enable-background:new 0 0 401.9 401.9;" xml:space="preserve">
<style type="text/css">
	.st0{fill:#CE593F;}
	.st1{fill:#3F2D20;}
</style>
<g>
	<g>
		<path class="st0" d="M195.4,189.9c0-0.3,0.1-0.3,0.1-0.6h0C195.4,189.3,195.4,189.8,195.4,189.9z"/>
		<polygon class="st0" points="143.4,261.4 142.3,254.5 142.3,254.5 		"/>
		<path class="st0" d="M217.1,248c-0.3,1.4-1,2.7-1.9,3.7C216.2,250.7,216.8,249.4,217.1,248z"/>
		<path class="st0" d="M214.6,252.2c0.2-0.1,0.3-0.3,0.5-0.4C214.9,252,214.8,252.1,214.6,252.2z"/>
	</g>
	<polygon class="st0" points="124.2,140.5 124.2,140.5 128.1,165 	"/>
	<g>
		<path class="st0" d="M286.4,75.7c0.2,0.3,0.3,0.6,0.4,0.9C286.7,76.3,286.5,76,286.4,75.7z"/>
		<path class="st0" d="M285.1,73.8c-0.2-0.2-0.4-0.5-0.6-0.7C284.7,73.3,284.9,73.6,285.1,73.8z"/>
		<path class="st0" d="M285.5,74.3c0.2,0.3,0.4,0.6,0.5,0.8C285.9,74.9,285.7,74.6,285.5,74.3z"/>
		<path class="st0" d="M287,77.2c0.1,0.3,0.1,0.7,0.2,1C287.1,77.9,287.1,77.5,287,77.2z"/>
		<path class="st0" d="M283.2,72.1c0.2,0.2,0.5,0.3,0.7,0.5C283.7,72.5,283.5,72.3,283.2,72.1z"/>
		<path class="st0" d="M280.2,70.9c0.2,0,0.4,0.1,0.6,0.2C280.6,71,280.4,71,280.2,70.9z"/>
		<path class="st0" d="M281.8,71.4c0.2,0.1,0.5,0.2,0.7,0.3C282.2,71.6,282,71.5,281.8,71.4z"/>
	</g>
	<g>
		<path class="st0" d="M194,311.2c3.5,0,6.5-2,7.3-6C200.5,308.5,197.6,311.2,194,311.2z"/>
		<path class="st0" d="M227.9,95.5h56.7l2.7-17.1c0-0.2-0.1-0.9-0.1-0.9H138.5c-4.7,0-8.6,4.3-8.8,9l5.9,38h24.6
			c4.2,0,7.7,3.4,7.7,7.5v0.5h7.3c4.2,0,7.5,3.3,7.5,7.5s-3.4,7.5-7.5,7.5h-36l5.4,34h43.4c4.2,0,7.5,4,7.5,8h7.5
			c4.2,0,7.5,3.8,7.5,8s-3.4,8-7.5,8h-54.7l5.4,33h56.2c4.2,0,8.1,3.6,8.1,7.8v-0.8h7c4.2,0,7.5,4.3,7.5,8.5c0,4.2-3.4,8.5-7.5,8.5
			h-67.5l5.3,33H194c4.2,0,6.8,4,6.8,8.1v-0.1h8.2c4.2,0,7.5,3.8,7.5,8s-3.4,8-7.5,8h-42.7l3.2,20h76.5l9-57h0l-1.2,8H243
			c-4.2,0-7.5-3.4-7.5-7.6c0-0.1,0-0.4,0-0.4h-7.5c-4.2,0-7.5-3.3-7.5-7.5s3.4-7.5,7.5-7.5h29.5l6.7-42h0l-1.2,8h-34.1
			c-4.2,0-7.5-3.5-7.5-7.7c0-0.1,0-0.3,0-0.3h-7.5c-4.2,0-7.5-3.3-7.5-7.5s3.4-7.5,7.5-7.5h52.8l6.7-42h-0.1l-1.2,7h-16.1
			c-4.2,0-7.5-3.1-7.5-7.2c0,0,0,0.2,0,0.2h-7.5c-4.2,0-7.5-3.8-7.5-8s3.4-8,7.5-8h34.8l6.7-41.3l-0.1,0.2l-1.2,8H243
			c-4.2,0-7.5-3.4-7.5-7.6c0-0.1-0.1-1.9-0.1-1.9l28.9-0.2l-35.7,0.6c-4.2,0-8.1-2.6-8.1-6.7S223.8,95.5,227.9,95.5z"/>
		<path class="st0" d="M201.3,305.2c0.1-0.6,0.2-1.2,0.2-1.8h0C201.5,304,201.4,304.6,201.3,305.2z"/>
	</g>
	<path class="st0" d="M217.2,247.3c0.1-0.4,0.1-0.6,0.1-1h0C217.3,246.3,217.2,247.1,217.2,247.3z"/>
	<path class="st0" d="M167.6,132.5c0-0.1,0-0.1,0-0.3h0C167.7,132.2,167.6,132.4,167.6,132.5z"/>
	<g>
		<polygon class="st0" points="135.7,213.2 133.3,197.5 133.2,197.5 		"/>
		<path class="st0" d="M195.2,191c0,0.1-0.1,0.3-0.1,0.4C195.2,191.3,195.2,191.2,195.2,191z"/>
	</g>
	<path class="st1" d="M278.5,55.7h-70V7.5c0-4.2-3.4-7.5-7.5-7.5c-4.2,0-7.5,3.4-7.5,7.5v48.2h-70c-13.2,0-23.9,10.3-23.9,23.5
		c0,0.3,0.1,1.5,0.1,1.6L142,348c0.6,3.7,3.7,6.3,7.4,6.3h44v40c0,4.2,3.4,7.5,7.5,7.5c4.2,0,7.5-3.4,7.5-7.5v-40h44
		c3.7,0,6.8-2.7,7.4-6.3l42.4-267.2c0-0.1,0.1-1.5,0.1-1.6C302.2,66.2,291.5,55.7,278.5,55.7z M284.7,96h-56.7
		c-4.2,0-7.5,3.4-7.5,7.5s3.4,7.5,7.5,7.5h54.3l-6.7,42.2h-34.8c-4.2,0-7.5,3.4-7.5,7.5s3.4,7.5,7.5,7.5h32.4l-6.7,42.2h-52.8
		c-4.2,0-7.5,3.4-7.5,7.5s3.4,7.5,7.5,7.5h50.4l-6.7,42.2h-29.5c-4.2,0-7.5,3.4-7.5,7.5s3.4,7.5,7.5,7.5h27.1l-9,56.7h-90.3
		l-4.5-28.1H194c4.2,0,7.5-3.4,7.5-7.5s-3.4-7.5-7.5-7.5H149l-6.7-42.2h67.5c4.2,0,7.5-3.4,7.5-7.5s-3.4-7.5-7.5-7.5h-69.9
		l-6.7-42.2h54.7c4.2,0,7.5-3.4,7.5-7.5s-3.4-7.5-7.5-7.5h-57.1l-6.7-42.2h36c4.2,0,7.5-3.4,7.5-7.5c0-4.2-3.4-7.5-7.5-7.5h-38.4
		l-7.2-45.4c0.2-4.7,4.1-8.4,8.8-8.4h155.1c4.7,0,8.6,3.7,8.8,8.4L284.7,96z"/>
</g>
</svg>
