<?xml version="1.0" encoding="utf-8"?>
<!-- Generator: Adobe Illustrator 21.1.0, SVG Export Plug-In . SVG Version: 6.00 Build 0)  -->
<svg version="1.1" id="Capa_1" xmlns="http://www.w3.org/2000/svg" xmlns:xlink="http://www.w3.org/1999/xlink" x="0px" y="0px"
	 viewBox="0 0 344.1 344.1" style="enable-background:new 0 0 344.1 344.1;" xml:space="preserve">
<style type="text/css">
	.st0{fill:#CE593F;}
	.st1{fill:#3F2D20;}
	.st2{fill:#EF8829;}
	.st3{fill:#FDD44B;}
	.st4{fill:#84BD93;}
</style>
<g>
	<path class="st0" d="M128.1,60.3c5.1,0,8.1-2.2,8.4-3.1c-0.4-0.9-3.3-3.1-8.4-3.1c-5.1,0-8.1,2.2-8.4,3.1
		C120,58.1,123,60.3,128.1,60.3z"/>
	<path class="st0" d="M216.1,60.3c5.1,0,8.1-2.2,8.4-3.1c-0.4-0.9-3.3-3.1-8.4-3.1c-5.1,0-8.1,2.2-8.4,3.1
		C208,58.1,211,60.3,216.1,60.3z"/>
	<path class="st0" d="M216.1,145c5.1,0,8.1-2.2,8.4-3.1c-0.4-0.9-3.3-3.1-8.4-3.1s-8.1,2.2-8.4,3.1C208,142.8,211,145,216.1,145z"/>
	<path class="st0" d="M128.1,145c5.1,0,8.1-2.2,8.4-3.1c-0.4-0.9-3.3-3.1-8.4-3.1c-5.1,0-8.1,2.2-8.4,3.1
		C120,142.8,123,145,128.1,145z"/>
	<path class="st1" d="M128.1,75.3c13.2,0,23.5-8,23.5-18.2c0-10.2-10.3-18.2-23.5-18.2s-23.5,8-23.5,18.2
		C104.6,67.4,114.9,75.3,128.1,75.3z M128.1,54.1c5.1,0,8.1,2.2,8.4,3.1c-0.4,0.9-3.3,3.1-8.4,3.1c-5.1,0-8.1-2.2-8.4-3.1
		C120,56.3,123,54.1,128.1,54.1z"/>
	<path class="st1" d="M216.1,75.3c13.2,0,23.5-8,23.5-18.2c0-10.2-10.3-18.2-23.5-18.2s-23.5,8-23.5,18.2
		C192.6,67.4,202.9,75.3,216.1,75.3z M216.1,54.1c5.1,0,8.1,2.2,8.4,3.1c-0.4,0.9-3.3,3.1-8.4,3.1s-8.1-2.2-8.4-3.1
		C208,56.3,211,54.1,216.1,54.1z"/>
	<path class="st1" d="M128.1,160c13.2,0,23.5-8,23.5-18.2c0-10.2-10.3-18.2-23.5-18.2s-23.5,8-23.5,18.2
		C104.6,152,114.9,160,128.1,160z M128.1,138.7c5.1,0,8.1,2.2,8.4,3.1c-0.4,0.9-3.3,3.1-8.4,3.1c-5.1,0-8.1-2.2-8.4-3.1
		C120,140.9,123,138.7,128.1,138.7z"/>
	<path class="st1" d="M216.1,160c13.2,0,23.5-8,23.5-18.2c0-10.2-10.3-18.2-23.5-18.2s-23.5,8-23.5,18.2
		C192.6,152,202.9,160,216.1,160z M216.1,138.7c5.1,0,8.1,2.2,8.4,3.1c-0.4,0.9-3.3,3.1-8.4,3.1s-8.1-2.2-8.4-3.1
		C208,140.9,211,138.7,216.1,138.7z"/>
	<g>
		<polygon class="st2" points="15.6,276 15.6,273.2 328.3,256.8 15.6,273.2 15.6,276 31.3,275.5 		"/>
		<path class="st2" d="M328.8,266l-0.4-9.1L328.8,266z"/>
		<polygon class="st2" points="77.6,274.1 325.3,266.1 316.1,266.4 315.9,261.6 		"/>
	</g>
	<polygon class="st2" points="315.8,310.1 316,305.1 65.3,297 	"/>
	<path class="st3" d="M154.4,40.6c-4.9-1.7-10.5-2.7-16.3-2.7c-3.6,0-7.1,0.4-10.4,1.1c-0.1,0-0.1,0-0.2,0c0.2,0,0.4,0,0.6,0
		c13.2,0,23.5,8,23.5,18.2c0,10.2-10.3,18.2-23.5,18.2s-23.5-8-23.5-18.2c0-2.3,0.6-4.5,1.5-6.5c0,0.1-0.1,0.2-0.2,0.3
		c-2.8,3.4-4.4,7.2-4.4,11.3c0,6.3,3.9,12.1,10.1,16.5c5,1.7,10.5,2.7,16.4,2.7c19.8,0,36.5-11.1,36.5-24.2
		C164.6,50.9,160.6,45,154.4,40.6z"/>
	<g>
		<path class="st4" d="M97.8,173.6c-0.4-0.2-0.7-0.4-1.1-0.6C97.1,173.2,97.5,173.4,97.8,173.6z"/>
		<path class="st4" d="M133.8,212.8c-1.6,0.1-3.1,0.2-4.7,0.2C130.6,213,132.2,212.9,133.8,212.8z"/>
		<path class="st4" d="M165.6,167.8c-9.9,6.9-22.9,13.3-36.6,13.3c-9.9,0-19.5-2-27.8-5.7c0.2,0.1,0.4,0.2,0.4,0.2v13.2
			c0,12,14.4,22.2,32.4,24c18.1-1.7,32.6-11.9,32.6-24V167C166.6,167.3,166,167.5,165.6,167.8z"/>
	</g>
	<g>
		<path class="st4" d="M162.8,85.7c-9.6,6.9-21.8,10.7-35.1,10.7c-9.6,0-18.7-2-26.7-5.7c0.1,0.1,0.6,0.2,0.6,0.2v13.2
			c0,1.3,0.2,2.6,0.5,3.8c-0.1,0-0.1,0.1-0.2,0.1c7.8-3.5,16.8-5.4,26.2-5.4c12.8,0,24.6,4,33.9,10.3c1.3-2.3,3-4,3-7.2l0.2-21.8
			C165.3,84.2,163.1,85.5,162.8,85.7z"/>
		<path class="st4" d="M97.8,89c-0.4-0.2-0.7-0.4-1.1-0.6C97.1,88.6,97.4,88.8,97.8,89z"/>
		<path class="st4" d="M98.6,109.6c-0.3,0.1-0.5,0.3-0.8,0.4C98,109.9,98.3,109.8,98.6,109.6z"/>
	</g>
	<g>
		<path class="st4" d="M250.9,85.7c-9.6,6.9-22,10.7-35.3,10.7c-9.6,0-26-5.6-26-5.5v13.2c0,1.3,0.2,2.6,0.5,3.8
			c-0.1,0-0.1,0.1-0.2,0.1c7.8-3.5,16.8-5.4,26.2-5.4c12.7,0,26,5,35.4,11.3c1.3-2.3,3-6,3-9.2L254,83.9
			C254,84.1,251.3,85.5,250.9,85.7z"/>
		<path class="st4" d="M185.8,89c-0.4-0.2-0.7-0.4-1.1-0.6C185,88.6,185.4,88.8,185.8,89z"/>
		<path class="st4" d="M186.6,109.6c-0.3,0.1-0.6,0.3-0.8,0.4C186,109.9,186.3,109.8,186.6,109.6z"/>
	</g>
	<g>
		<path class="st4" d="M251.3,169.2c-9.7,6.9-21.9,11.8-35.4,11.8c-9.8,0-18.9-2-27-5.7c0.2,0.1,0.7,0.2,0.7,0.2v13.2
			c0,12,12.9,22.2,30.6,24c17.8-1.7,33.9-10.6,33.9-22.6l1.7-20.6C255.8,169.8,251.7,169,251.3,169.2z"/>
		<path class="st4" d="M185.8,173.6c-0.4-0.2-0.7-0.4-1.1-0.6C185.1,173.2,185.4,173.4,185.8,173.6z"/>
		<path class="st4" d="M221.3,212.8c-1.5,0.1-3.1,0.2-4.7,0.2C218.2,213,219.7,212.9,221.3,212.8z"/>
	</g>
	<path class="st3" d="M179.9,60c0-0.2-0.1-0.4-0.1-0.6C179.8,59.6,179.8,59.8,179.9,60z"/>
	<path class="st3" d="M181.5,64.7c-0.1-0.2-0.2-0.3-0.3-0.5C181.3,64.3,181.4,64.5,181.5,64.7z"/>
	<path class="st3" d="M180.4,62.1c0-0.1-0.1-0.3-0.1-0.4C180.3,61.8,180.3,62,180.4,62.1z"/>
	<path class="st3" d="M182.7,66.7c-0.1-0.2-0.2-0.4-0.4-0.6C182.4,66.3,182.5,66.5,182.7,66.7z"/>
	<path class="st3" d="M196.5,77.5c-0.3-0.1-0.7-0.3-1-0.4C195.9,77.2,196.2,77.4,196.5,77.5z"/>
	<path class="st3" d="M184.4,68.9c-0.1-0.1-0.2-0.3-0.3-0.4C184.1,68.7,184.2,68.8,184.4,68.9z"/>
	<path class="st3" d="M242.4,40.6c-4.9-1.7-10.5-2.7-16.3-2.7c-3.6,0-7.1,0.4-10.4,1.1c-0.1,0-0.1,0-0.2,0c0.2,0,0.4,0,0.6,0
		c13.2,0,23.5,8,23.5,18.2c0,10.2-10.3,18.2-23.5,18.2s-23.5-8-23.5-18.2c0-2.3,0.6-4.5,1.5-6.5c0,0.1-0.1,0.2-0.1,0.3
		c-2.8,3.4-4.4,7.2-4.4,11.3c0,6.3,3.9,12.1,10.1,16.5c5,1.7,10.5,2.7,16.4,2.7c19.8,0,36.5-11.1,36.5-24.2
		C252.5,50.9,248.6,45,242.4,40.6z"/>
	<path class="st3" d="M185.6,70.3c0.2,0.2,0.4,0.4,0.6,0.6C186,70.7,185.8,70.5,185.6,70.3z"/>
	<path class="st3" d="M190.9,74.5c-0.3-0.2-0.6-0.4-0.8-0.5C190.4,74.2,190.7,74.4,190.9,74.5z"/>
	<path class="st3" d="M188.1,72.6c-0.2-0.1-0.3-0.3-0.5-0.4C187.8,72.3,188,72.4,188.1,72.6z"/>
	<path class="st3" d="M199.3,78.6c-0.4-0.1-0.7-0.3-1.1-0.4C198.6,78.3,199,78.5,199.3,78.6z"/>
	<path class="st3" d="M193.3,75.9c-0.3-0.2-0.6-0.3-0.9-0.5C192.7,75.6,193,75.8,193.3,75.9z"/>
	<path class="st3" d="M158.2,128.4c-1.1-1.1-2.4-2.1-3.8-3.1c-4.9-1.7-10.5-2.7-16.3-2.7c-3.6,0-7.1,0.4-10.4,1.1
		c-0.1,0-0.1,0-0.2,0c0.2,0,0.4,0,0.6,0c13.2,0,23.5,8,23.5,18.2S141.3,160,128.1,160s-23.5-8-23.5-18.2c0-2.3,0.6-4.5,1.5-6.5
		c0,0.1-0.1,0.2-0.2,0.3c-2.8,3.4-4.4,7.2-4.4,11.3c0,6.3,3.9,12.1,10.1,16.5c5,1.7,10.5,2.7,16.4,2.7c19.8,0,36.5-11.1,36.5-24.2
		C164.6,135.8,161.1,131.2,158.2,128.4z"/>
	<path class="st3" d="M240.4,124c0.6,0.4,1.2,0.7,1.8,1.1C241.6,124.8,241,124.4,240.4,124z"/>
	<path class="st3" d="M199.3,163.2c-0.4-0.1-0.8-0.3-1.1-0.4C198.6,163,199,163.1,199.3,163.2z"/>
	<path class="st3" d="M242.4,125.3c-4.9-1.7-10.5-2.7-16.3-2.7c-3.6,0-7.1,0.4-10.4,1.1c-0.1,0-0.1,0-0.2,0c0.2,0,0.4,0,0.6,0
		c13.2,0,23.5,8,23.5,18.2S229.2,160,216.1,160s-23.5-8-23.5-18.2c0-2.3,0.6-4.5,1.5-6.5c0,0.1-0.1,0.2-0.2,0.3
		c-2.8,3.4-4.4,7.2-4.4,11.3c0,6.3,3.9,12.1,10.1,16.5c5,1.7,10.5,2.7,16.4,2.7c19.8,0,36.5-11.1,36.5-24.2
		C252.5,135.5,248.6,129.7,242.4,125.3z"/>
	<path class="st1" d="M336.6,286.9l-94.7-3.1l95-3.1c2-0.1,3.9-0.9,5.3-2.4c1.4-1.5,2.1-3.4,2-5.5l-1.1-24.3c-0.1-2-1-3.9-2.5-5.2
		c-1.5-1.3-3.4-2-5.4-1.9L7.4,258.6c-4.1,0.2-7.2,3.6-7.1,7.7l0.5,17.4L0,301.1c-0.2,4.1,3,7.6,7.1,7.9l327.7,17.2
		c0.1,0,0.3,0,0.4,0c1.9,0,3.7-0.7,5-1.9c1.5-1.3,2.4-3.2,2.5-5.2l1.1-24.3c0.1-2-0.6-4-2-5.5C340.5,287.8,338.6,286.9,336.6,286.9z
		 M15.6,276l-0.1-2.8l312.8-16.4l0.4,9.1L15.6,276z M15.5,291.6l312.9,10.1l-0.4,9.1L15.4,294.4L15.5,291.6z"/>
	<path class="st1" d="M92.6,217.3c9.6,6.9,22.2,10.7,35.5,10.7s25.9-3.8,35.5-10.7c3.3-2.4,6.2-5.1,8.5-8c2.3,2.9,5.2,5.6,8.5,8
		c9.6,6.9,22.2,10.7,35.5,10.7s25.9-3.8,35.5-10.7c10.3-7.4,16-17.6,16-28.5v-46.9c0-6.7-2.2-13.2-6.2-18.9
		c4.1-5.7,6.2-12.1,6.2-18.8V57.2c0-11-5.7-21.1-16-28.5c-9.6-6.9-22.2-10.7-35.5-10.7s-25.9,3.8-35.5,10.7c-3.3,2.4-6.2,5.1-8.5,8
		c-2.3-2.9-5.2-5.6-8.5-8c-9.6-6.9-22.2-10.7-35.5-10.7c-13.3,0-25.9,3.8-35.5,10.7c-10.3,7.4-16,17.6-16,28.5v46.9
		c0,6.7,2.1,13.1,6.2,18.8c-4.1,5.7-6.2,12.1-6.2,18.9v46.9C76.6,199.7,82.3,209.9,92.6,217.3z M128.1,33
		c19.8,0,36.5,11.1,36.5,24.2c0,13.1-16.7,24.2-36.5,24.2c-19.8,0-36.5-11.1-36.5-24.2C91.6,44.1,108.3,33,128.1,33z M216.1,33
		c19.8,0,36.5,11.1,36.5,24.2c0,13.1-16.7,24.2-36.5,24.2s-36.5-11.1-36.5-24.2C179.6,44.1,196.3,33,216.1,33z M252.5,188.8
		c0,13.1-16.7,24.2-36.5,24.2s-36.5-11.1-36.5-24.2v-19.1c0.3,0.2,0.6,0.5,1,0.7c9.6,6.9,22.2,10.7,35.5,10.7s25.9-3.8,35.5-10.7
		c0.3-0.2,0.6-0.5,1-0.7L252.5,188.8L252.5,188.8z M164.6,104.1c0,3.2-1,5.9-2.3,8.3c-9.3-6.3-21.4-9.8-34.2-9.8
		c-12.7,0-24.8,3.5-34.2,9.8c-1.3-2.3-2.3-5.1-2.3-8.3V85c0.3,0.2,0.6,0.5,1,0.7c9.6,6.9,22.2,10.7,35.5,10.7
		c13.3,0,25.9-3.8,35.5-10.7c0.3-0.2,0.6-0.5,1-0.7L164.6,104.1L164.6,104.1z M128.1,117.6c12,0,23.2,4,30.1,10.7
		c2.9,2.8,6.3,7.4,6.3,13.5c0,13.1-16.7,24.2-36.5,24.2c-19.8,0-36.5-11.1-36.5-24.2C91.6,128.7,108.3,117.6,128.1,117.6z
		 M216.1,96.4c13.3,0,25.9-3.8,35.5-10.7c0.3-0.2,0.6-0.5,1-0.7v19.1c0,3.2-1,5.9-2.3,8.3c-9.4-6.3-21.5-9.8-34.2-9.8
		c-12.7,0-24.8,3.5-34.2,9.8c-1.3-2.3-2.3-5.1-2.3-8.3V85c0.3,0.2,0.6,0.5,1,0.7C190.1,92.6,202.7,96.4,216.1,96.4z M216.1,117.6
		c19.8,0,36.5,11.1,36.5,24.2S235.8,166,216.1,166s-36.5-11.1-36.5-24.2C179.6,128.7,196.3,117.6,216.1,117.6z M91.6,169.6
		c0.3,0.2,0.6,0.5,1,0.7c9.6,6.9,22.2,10.7,35.5,10.7s25.9-3.8,35.5-10.7c0.3-0.2,0.6-0.5,1-0.7v19.1c0,13.1-16.7,24.2-36.5,24.2
		c-19.8,0-36.5-11.1-36.5-24.2V169.6z"/>
</g>
</svg>
