<?xml version="1.0" encoding="utf-8"?>
<!-- Generator: Adobe Illustrator 21.1.0, SVG Export Plug-In . SVG Version: 6.00 Build 0)  -->
<svg version="1.1" id="Capa_1" xmlns="http://www.w3.org/2000/svg" xmlns:xlink="http://www.w3.org/1999/xlink" x="0px" y="0px"
	 viewBox="0 0 512 512" style="enable-background:new 0 0 512 512;" xml:space="preserve">
<style type="text/css">
	.st0{fill:#F2EDEC;}
	.st1{fill:#E4DAD8;}
	.st2{fill:#D7C8C5;}
	.st3{fill:#FEE2CA;}
	.st4{fill:#FDD0AB;}
	.st5{fill:#F56C6C;}
	.st6{fill:#DB4D4D;}
	.st7{fill:#956B64;}
	.st8{fill:#3F3F3F;}
</style>
<polygon class="st0" points="308.1,504.5 99.7,504.5 27.5,256 380.2,256 "/>
<g>
	<polygon class="st1" points="27.5,256 99.7,504.5 131.8,504.5 59.6,256 	"/>
	<polygon class="st1" points="380.2,256 139.8,256 163.8,183.9 356.2,183.9 	"/>
	<polygon class="st1" points="139.8,256 27.5,256 51.6,183.9 115.7,183.9 	"/>
</g>
<polygon class="st2" points="51.6,183.9 27.5,256 59.6,256 83.7,183.9 "/>
<circle class="st3" cx="203.9" cy="384.3" r="56.1"/>
<path class="st4" d="M227.9,432.3c-31,0-56.1-25.1-56.1-56.1c0-20.2,10.7-38,26.8-47.8c-28.5,2.7-50.8,26.6-50.8,55.9
	c0,31,25.1,56.1,56.1,56.1c10.8,0,20.8-3,29.3-8.3C231.5,432.3,229.7,432.3,227.9,432.3z"/>
<polygon class="st5" points="115.7,376.2 292.1,376.2 203.9,312.1 "/>
<polygon class="st6" points="203.9,312.1 115.7,376.2 147.8,376.2 219.9,323.8 "/>
<g>
	<rect x="107.7" y="15.5" class="st7" width="376.7" height="24"/>
	<rect x="107.7" y="63.6" class="st7" width="376.7" height="24"/>
</g>
<path class="st8" d="M199.5,306l-88.2,64.1c-2.6,1.9-3.7,5.3-2.7,8.4s3.9,5.2,7.1,5.2h24.6c0,0.2,0,0.3,0,0.5
	c0,35.1,28.5,63.6,63.6,63.6s63.6-28.5,63.6-63.6c0-0.2,0-0.3,0-0.5h24.6c3.2,0,6.1-2.1,7.1-5.1c1.1-3.1,0-6.6-2.7-8.5L208.3,306
	C205.7,304.1,202.1,304.1,199.5,306z M252.5,384.3c0,26.8-21.8,48.6-48.6,48.6s-48.6-21.8-48.6-48.6c0-0.2,0-0.3,0-0.5h97.2
	C252.5,383.9,252.5,384.1,252.5,384.3z M138.8,368.7l65.1-47.3l65.1,47.3H138.8z"/>
<path class="st8" d="M171.8,407.8h9c4.1,0,7.5-3.4,7.5-7.5s-3.4-7.5-7.5-7.5h-9c-4.1,0-7.5,3.4-7.5,7.5S167.7,407.8,171.8,407.8z"/>
<path class="st8" d="M226.9,407.8h9c4.1,0,7.5-3.4,7.5-7.5s-3.4-7.5-7.5-7.5h-9c-4.1,0-7.5,3.4-7.5,7.5S222.8,407.8,226.9,407.8z"/>
<path class="st8" d="M203.9,423.8c3.2,0,6.1-2.1,7.1-5.1c1-3,0-6.5-2.6-8.4c-5.5-4.2-13.5,1.1-11.8,7.8
	C197.5,421.4,200.5,423.8,203.9,423.8z"/>
<path class="st8" d="M283.5,47.1h200.9c4.1,0,7.5-3.4,7.5-7.5s-3.4-7.5-7.5-7.5H283.5v-9h200.9c4.1,0,7.5-3.4,7.5-7.5
	S488.6,8,484.4,8H283.5V7.5c0-4.2-3.4-7.5-7.5-7.5c-4.1,0-7.5,3.4-7.5,7.5V8h-17V7.5c0-4.2-3.4-7.5-7.5-7.5s-7.5,3.4-7.5,7.5V8h-17
	V7.5c0-4.2-3.4-7.5-7.5-7.5s-7.5,3.4-7.5,7.5V8h-17V7.5c0-4.2-3.4-7.5-7.5-7.5s-7.5,3.4-7.5,7.5V8h-64.6c-4.2,0-7.5,3.4-7.5,7.5v24
	c0,4.2,3.4,7.5,7.5,7.5h64.6v9h-64.6c-4.2,0-7.5,3.4-7.5,7.5v24c0,4.2,3.4,7.5,7.5,7.5h64.6v81.2h-8.5c-3.2,0-6.1,2.1-7.1,5.1
	l-16.9,50.8l-16.9-50.8c-1-3.1-3.9-5.1-7.1-5.1H51.6c-3.2,0-6.1,2.1-7.1,5.1l-24,72.1c-0.5,1.4-0.5,3-0.1,4.5l72.1,248.5
	c0.9,3.2,3.9,5.4,7.2,5.4h208.4c3.3,0,6.3-2.2,7.2-5.4l72.1-248.5c0.4-1.4,0.4-3-0.1-4.5l-24-72.1c-1-3.1-3.9-5.1-7.1-5.1H251.5
	V95.2h17v8.5c0,4.2,3.4,7.5,7.5,7.5c4.1,0,7.5-3.4,7.5-7.5v-8.5h17v64.6c0,4.1,3.4,7.5,7.5,7.5c4.1,0,7.5-3.4,7.5-7.5V95.2h168.8
	c4.1,0,7.5-3.4,7.5-7.5s-3.4-7.5-7.5-7.5H315.6v-9h168.8c4.1,0,7.5-3.4,7.5-7.5s-3.4-7.5-7.5-7.5H315.6v-0.5c0-4.2-3.4-7.5-7.5-7.5
	c-4.1,0-7.5,3.4-7.5,7.5v0.5h-17L283.5,47.1L283.5,47.1L283.5,47.1z M268.5,56.1h-17v-9h17V56.1z M219.4,71.1h17v9h-17V71.1z
	 M204.4,80.2h-17v-9h17V80.2z M219.4,56.1v-9h17v9H219.4z M268.5,23v9h-17v-9H268.5z M236.5,23v9h-17v-9H236.5z M204.4,23v9h-17v-9
	H204.4z M115.2,32.1v-9h57.1v9H115.2z M187.4,47.1h17v9h-17V47.1z M115.2,80.2v-9h57.1v9H115.2z M187.4,95.2h17v81.2h-17V95.2z
	 M57,191.4h53.3l19,57.1H38L57,191.4z M369.8,248.5h-68.7c-4.1,0-7.5,3.4-7.5,7.5s3.4,7.5,7.5,7.5h69.1L302.5,497H105.3L37.6,263.5
	h227.8c4.1,0,7.5-3.4,7.5-7.5c0-4.1-3.4-7.5-7.5-7.5H150.2l19-57.1h181.5L369.8,248.5z M236.5,176.3h-17V95.2h17V176.3z M251.5,80.2
	v-9h17v9H251.5z M300.6,71.1v9h-17v-9H300.6z"/>
</svg>
