<?xml version="1.0" encoding="utf-8"?>
<!-- Generator: Adobe Illustrator 21.1.0, SVG Export Plug-In . SVG Version: 6.00 Build 0)  -->
<svg version="1.1" id="Capa_1" xmlns="http://www.w3.org/2000/svg" xmlns:xlink="http://www.w3.org/1999/xlink" x="0px" y="0px"
	 viewBox="0 0 512 512" style="enable-background:new 0 0 512 512;" xml:space="preserve">
<style type="text/css">
	.st0{fill:#F2EDEC;}
	.st1{fill:#E4DAD8;}
	.st2{fill:#A27E77;}
	.st3{fill:#956B64;}
	.st4{fill:#FBDC40;}
	.st5{fill:#FAD000;}
	.st6{fill:#885951;}
	.st7{fill:#BDA39E;}
	.st8{fill:#CAD95E;}
	.st9{fill:#B9CC29;}
	.st10{fill:#3F3F3F;}
</style>
<polygon class="st0" points="368.2,504.5 143.8,504.5 95.7,151.8 416.3,151.8 "/>
<polygon class="st1" points="95.7,151.8 143.8,504.5 175.8,504.5 127.8,151.8 "/>
<rect x="63.6" y="95.7" class="st2" width="384.8" height="56.1"/>
<rect x="63.6" y="95.7" class="st3" width="32.1" height="56.1"/>
<polygon class="st4" points="408.3,95.7 103.7,95.7 119.7,7.5 392.3,7.5 "/>
<polygon class="st5" points="119.7,7.5 103.7,95.7 135.8,95.7 151.8,7.5 "/>
<rect x="191.9" y="47.6" class="st6" width="128.3" height="48.1"/>
<polygon class="st7" points="360.2,304.1 280,304.1 280,240 320.1,207.9 360.2,240 "/>
<path class="st8" d="M201.7,213.4c-24,13.9-40.1,39.7-40.1,69.4s16.1,55.5,40.1,69.4c24-13.9,40.1-39.7,40.1-69.4
	C241.8,253.1,225.6,227.2,201.7,213.4z"/>
<path class="st9" d="M161.6,282.8c0,29.7,16.1,55.5,40.1,69.4V213.4C177.7,227.2,161.6,253.1,161.6,282.8z"/>
<path class="st8" d="M341.5,332.7c-26.7-7.1-56.4-0.2-77.4,20.7c-21,21-27.9,50.7-20.7,77.4c26.7,7.1,56.4,0.2,77.4-20.7
	C341.7,389.1,348.6,359.4,341.5,332.7z"/>
<path class="st9" d="M264,353.4c-21,21-27.9,50.7-20.7,77.4l98.2-98.2C314.7,325.5,285,332.4,264,353.4z"/>
<path class="st10" d="M448.4,88.2h-33.8l-14.9-82C399,2.6,395.9,0,392.3,0H119.7c-3.6,0-6.7,2.6-7.4,6.2l-14.9,82H63.6
	c-4.2,0-7.5,3.4-7.5,7.5v56.1c0,4.1,3.4,7.5,7.5,7.5h25.5l47.2,346.2c0.5,3.7,3.7,6.5,7.4,6.5h224.4c3.8,0,6.9-2.8,7.4-6.5
	l47.2-346.2h25.5c4.1,0,7.5-3.4,7.5-7.5V95.7C455.9,91.5,452.5,88.2,448.4,88.2z M126,15h260l13.3,73.1h-71.7V47.6
	c0-4.2-3.4-7.5-7.5-7.5H191.9c-4.1,0-7.5,3.4-7.5,7.5v40.6h-71.7L126,15z M312.6,88.2H199.4V55.1h113.2L312.6,88.2L312.6,88.2z
	 M440.9,144.3h-269c-4.1,0-7.5,3.4-7.5,7.5s3.4,7.5,7.5,7.5h140.8v45l-37.3,29.8c-1.8,1.4-2.8,3.6-2.8,5.9v64.1
	c0,4.1,3.4,7.5,7.5,7.5h80.2c4.1,0,7.5-3.4,7.5-7.5V240c0-2.3-1-4.4-2.8-5.9l-37.3-29.8v-45h80.1l-46,337.7H150.3l-46-337.7h32
	c4.1,0,7.5-3.4,7.5-7.5s-3.4-7.5-7.5-7.5H71.1v-41.1h369.7V144.3z M320.1,217.5l32.6,26.1v53h-65.1v-53L320.1,217.5z"/>
<path class="st10" d="M194.2,356.4v116c0,6.5,8.2,10,12.8,5.3l38.6-38.6c6.1,1.3,12.2,1.9,18.3,1.9c23,0,45.5-9,62.1-25.6
	c22-22,30.7-54.5,22.7-84.7c-0.7-2.6-2.7-4.6-5.3-5.3c-30.2-8.1-62.6,0.6-84.7,22.7c-21,21-29.9,51.4-23.7,80.4l-25.8,25.8v-97.9
	c24.8-16.1,40.1-43.9,40.1-73.6c0-31.2-16.8-60.3-43.8-75.9c-2.3-1.3-5.2-1.3-7.5,0c-27,15.6-43.8,44.7-43.8,75.9
	C154.1,312.5,169.3,340.3,194.2,356.4z M269.3,358.7c17.2-17.2,42.1-24.6,65.9-19.8c4.8,23.8-2.6,48.6-19.8,65.9
	c-15,15-35.7,22.5-56.5,21.1l55.8-55.8c2.9-2.9,2.9-7.7,0-10.6c-2.9-2.9-7.7-2.9-10.6,0l-55.8,55.8
	C246.9,394.4,254.4,373.7,269.3,358.7z M201.7,222.2c20.2,13.4,32.6,36.2,32.6,60.6c0,21.2-9.3,41.2-25,54.8V264
	c0-4.1-3.4-7.5-7.5-7.5s-7.5,3.4-7.5,7.5v73.6c-15.7-13.7-25-33.7-25-54.8C169.1,258.4,181.5,235.6,201.7,222.2z"/>
</svg>
