<?xml version="1.0" encoding="utf-8"?>
<!-- Generator: Adobe Illustrator 21.1.0, SVG Export Plug-In . SVG Version: 6.00 Build 0)  -->
<svg version="1.1" id="Layer_1" xmlns="http://www.w3.org/2000/svg" xmlns:xlink="http://www.w3.org/1999/xlink" x="0px" y="0px"
	 viewBox="0 0 384.7 276.8" style="enable-background:new 0 0 384.7 276.8;" xml:space="preserve">
<style type="text/css">
	.st0{fill-rule:evenodd;clip-rule:evenodd;fill:url(#SVGID_1_);}
	.st1{fill-rule:evenodd;clip-rule:evenodd;fill:url(#SVGID_2_);}
	.st2{fill-rule:evenodd;clip-rule:evenodd;fill:url(#SVGID_3_);}
	.st3{fill-rule:evenodd;clip-rule:evenodd;fill:url(#SVGID_4_);}
	.st4{fill-rule:evenodd;clip-rule:evenodd;fill:url(#SVGID_5_);}
	.st5{fill-rule:evenodd;clip-rule:evenodd;fill:url(#SVGID_6_);}
	.st6{fill-rule:evenodd;clip-rule:evenodd;fill:url(#SVGID_7_);}
	.st7{fill-rule:evenodd;clip-rule:evenodd;fill:url(#SVGID_8_);}
	.st8{fill-rule:evenodd;clip-rule:evenodd;fill:url(#SVGID_9_);}
	.st9{fill-rule:evenodd;clip-rule:evenodd;fill:url(#SVGID_10_);}
	.st10{fill-rule:evenodd;clip-rule:evenodd;fill:url(#SVGID_11_);}
	.st11{fill-rule:evenodd;clip-rule:evenodd;fill:url(#SVGID_12_);}
	.st12{fill-rule:evenodd;clip-rule:evenodd;fill:url(#SVGID_13_);}
</style>
<linearGradient id="SVGID_1_" gradientUnits="userSpaceOnUse" x1="-70.5" y1="181.1167" x2="441.6972" y2="181.1167">
	<stop  offset="0" style="stop-color:#FF6479"/>
	<stop  offset="1" style="stop-color:#FE997D"/>
</linearGradient>
<path class="st0" d="M71,237.9h148.5c6.2,0,11.4-5.1,11.4-11.4l0,0c0-6.2-5.1-11.4-11.4-11.4H198c-6.2,0-11.4-5.1-11.4-11.4
	c0-6.2,5.1-11.4,11.4-11.4H225c6.2,0,11.4-5.1,11.4-11.4l0,0c0-6.2-5.1-11.4-11.4-11.4h-33.5c-6.2,0-11.4-5.1-11.4-11.4
	s5.1-11.4,11.4-11.4h3.1c6.2,0,11.4-5.1,11.4-11.4l0,0c0-6.3-5.1-11.4-11.4-11.4h-80.8c-6.3,0-11.4,5.1-11.4,11.4l0,0
	c0,6.2,5.1,11.4,11.4,11.4h19.1c6.2,0,11.4,5.1,11.4,11.4s-5.1,11.4-11.4,11.4H59.3c-6.2,0-11.4,5.1-11.4,11.4l0,0
	c0,6.2,5.1,11.4,11.4,11.4H91c6.2,0,11.4,5.1,11.4,11.4c0,6.2-5.1,11.4-11.4,11.4H71c-6.2,0-11.4,5.1-11.4,11.4l0,0
	C59.6,232.8,64.7,237.9,71,237.9z"/>
<linearGradient id="SVGID_2_" gradientUnits="userSpaceOnUse" x1="-70.5" y1="226.5691" x2="441.6972" y2="226.5691">
	<stop  offset="0" style="stop-color:#FF6479"/>
	<stop  offset="1" style="stop-color:#FE997D"/>
</linearGradient>
<path class="st1" d="M255,237.9h2.7c6.2,0,11.4-5.1,11.4-11.4v0c0-6.2-5.1-11.4-11.4-11.4H255c-6.2,0-11.4,5.1-11.4,11.4v0
	C243.6,232.8,248.7,237.9,255,237.9z"/>
<linearGradient id="SVGID_3_" gradientUnits="userSpaceOnUse" x1="-70.5" y1="263.4454" x2="441.6972" y2="263.4454">
	<stop  offset="0" style="stop-color:#FF6479"/>
	<stop  offset="1" style="stop-color:#FE997D"/>
</linearGradient>
<path class="st2" d="M96.9,274.8h15.3c6.2,0,11.4-5.1,11.4-11.4v0c0-6.2-5.1-11.4-11.4-11.4H96.9c-6.2,0-11.4,5.1-11.4,11.4v0
	C85.5,269.7,90.7,274.8,96.9,274.8z"/>
<linearGradient id="SVGID_4_" gradientUnits="userSpaceOnUse" x1="-70.5" y1="263.4454" x2="441.6972" y2="263.4454">
	<stop  offset="0" style="stop-color:#FF6479"/>
	<stop  offset="1" style="stop-color:#FE997D"/>
</linearGradient>
<path class="st3" d="M211,274.8h-29.1c-6.2,0-11.4-5.1-11.4-11.4v0c0-6.2,5.1-11.4,11.4-11.4H211c6.2,0,11.4,5.1,11.4,11.4v0
	C222.4,269.7,217.2,274.8,211,274.8z"/>
<linearGradient id="SVGID_5_" gradientUnits="userSpaceOnUse" x1="-70.5" y1="227.0406" x2="441.6972" y2="227.0406">
	<stop  offset="0" style="stop-color:#FF6479"/>
	<stop  offset="1" style="stop-color:#FE997D"/>
</linearGradient>
<path class="st4" d="M39.4,238.4h2.7c6.2,0,11.4-5.1,11.4-11.4v0c0-6.2-5.1-11.4-11.4-11.4h-2.7c-6.2,0-11.4,5.1-11.4,11.4v0
	C28,233.3,33.2,238.4,39.4,238.4z"/>
<linearGradient id="SVGID_6_" gradientUnits="userSpaceOnUse" x1="-70.5" y1="109.6802" x2="441.6972" y2="109.6802">
	<stop  offset="0" style="stop-color:#FF6479"/>
	<stop  offset="1" style="stop-color:#FE997D"/>
</linearGradient>
<path class="st5" d="M340.1,166.2H192.3c-6.2,0-11.3-5.1-11.3-11.3l0,0c0-6.2,5.1-11.3,11.3-11.3h21.4c6.2,0,11.3-5.1,11.3-11.3
	c0-6.2-5.1-11.3-11.3-11.3h-26.9c-6.2,0-11.3-5.1-11.3-11.3l0,0c0-6.2,5.1-11.3,11.3-11.3h33.3c6.2,0,11.3-5.1,11.3-11.3
	c0-6.2-5.1-11.3-11.3-11.3H217c-6.2,0-11.3-5.1-11.3-11.3l0,0c0-6.2,5.1-11.3,11.3-11.3h80.4c6.2,0,11.3,5.1,11.3,11.3l0,0
	c0,6.2-5.1,11.3-11.3,11.3h-19c-6.2,0-11.3,5.1-11.3,11.3c0,6.2,5.1,11.3,11.3,11.3h73.2c6.2,0,11.3,5.1,11.3,11.3l0,0
	c0,6.2-5.1,11.3-11.3,11.3h-31.6c-6.2,0-11.3,5.1-11.3,11.3c0,6.2,5.1,11.3,11.3,11.3h20c6.2,0,11.3,5.1,11.3,11.3l0,0
	C351.4,161.1,346.3,166.2,340.1,166.2z"/>
<linearGradient id="SVGID_7_" gradientUnits="userSpaceOnUse" x1="-70.5" y1="191.5883" x2="441.6972" y2="191.5883">
	<stop  offset="0" style="stop-color:#FF6479"/>
	<stop  offset="1" style="stop-color:#FE997D"/>
</linearGradient>
<path class="st6" d="M314.2,202.9H299c-6.2,0-11.3-5.1-11.3-11.3v0c0-6.2,5.1-11.3,11.3-11.3h15.2c6.2,0,11.3,5.1,11.3,11.3v0
	C325.5,197.8,320.5,202.9,314.2,202.9z"/>
<linearGradient id="SVGID_8_" gradientUnits="userSpaceOnUse" x1="-70.5" y1="191.5883" x2="441.6972" y2="191.5883">
	<stop  offset="0" style="stop-color:#FF6479"/>
	<stop  offset="1" style="stop-color:#FE997D"/>
</linearGradient>
<path class="st7" d="M200.7,202.9h28.9c6.2,0,11.3-5.1,11.3-11.3v0c0-6.2-5.1-11.3-11.3-11.3h-28.9c-6.2,0-11.3,5.1-11.3,11.3v0
	C189.4,197.8,194.5,202.9,200.7,202.9z"/>
<linearGradient id="SVGID_9_" gradientUnits="userSpaceOnUse" x1="-70.5" y1="155.3695" x2="441.6972" y2="155.3695">
	<stop  offset="0" style="stop-color:#FF6479"/>
	<stop  offset="1" style="stop-color:#FE997D"/>
</linearGradient>
<path class="st8" d="M371.4,166.7h-2.7c-6.2,0-11.3-5.1-11.3-11.3v0c0-6.2,5.1-11.3,11.3-11.3h2.7c6.2,0,11.3,5.1,11.3,11.3v0
	C382.7,161.6,377.7,166.7,371.4,166.7z"/>
<linearGradient id="SVGID_10_" gradientUnits="userSpaceOnUse" x1="-70.5" y1="83.4463" x2="441.6972" y2="83.4463">
	<stop  offset="0" style="stop-color:#FF6479"/>
	<stop  offset="1" style="stop-color:#FE997D"/>
</linearGradient>
<path class="st9" d="M171.8,35.1H45.5c-5.3,0-9.7,4.4-9.7,9.7l0,0c0,5.3,4.4,9.7,9.7,9.7h18.3c5.3,0,9.7,4.4,9.7,9.7
	c0,5.3-4.4,9.7-9.7,9.7h-23c-5.3,0-9.7,4.4-9.7,9.7l0,0c0,5.3,4.4,9.7,9.7,9.7h28.5c5.3,0,9.7,4.4,9.7,9.7c0,5.3-4.4,9.7-9.7,9.7
	h-2.6c-5.3,0-9.7,4.4-9.7,9.7l0,0c0,5.3,4.4,9.7,9.7,9.7h68.7c5.3,0,9.7-4.4,9.7-9.7l0,0c0-5.3-4.4-9.7-9.7-9.7h-16.2
	c-5.3,0-9.7-4.4-9.7-9.7c0-5.3,4.4-9.7,9.7-9.7h62.6c5.3,0,9.7-4.4,9.7-9.7l0,0c0-5.3-4.4-9.7-9.7-9.7h-27c-5.3,0-9.7-4.4-9.7-9.7
	c0-5.3,4.4-9.7,9.7-9.7h17.1c5.3,0,9.7-4.4,9.7-9.7l0,0C181.5,39.5,177.1,35.1,171.8,35.1z"/>
<linearGradient id="SVGID_11_" gradientUnits="userSpaceOnUse" x1="-70.5" y1="44.7725" x2="441.6972" y2="44.7725">
	<stop  offset="0" style="stop-color:#FF6479"/>
	<stop  offset="1" style="stop-color:#FE997D"/>
</linearGradient>
<path class="st10" d="M15.2,35.1h-2.3c-5.3,0-9.7,4.4-9.7,9.7l0,0c0,5.3,4.4,9.7,9.7,9.7h2.3c5.3,0,9.7-4.4,9.7-9.7l0,0
	C24.9,39.5,20.6,35.1,15.2,35.1z"/>
<linearGradient id="SVGID_12_" gradientUnits="userSpaceOnUse" x1="-70.5" y1="13.3958" x2="441.6972" y2="13.3958">
	<stop  offset="0" style="stop-color:#FF6479"/>
	<stop  offset="1" style="stop-color:#FE997D"/>
</linearGradient>
<path class="st11" d="M149.7,3.7h-13c-5.3,0-9.7,4.4-9.7,9.7l0,0c0,5.3,4.4,9.7,9.7,9.7h13c5.3,0,9.7-4.4,9.7-9.7l0,0
	C159.4,8.1,155,3.7,149.7,3.7z"/>
<linearGradient id="SVGID_13_" gradientUnits="userSpaceOnUse" x1="-70.5" y1="13.3958" x2="441.6972" y2="13.3958">
	<stop  offset="0" style="stop-color:#FF6479"/>
	<stop  offset="1" style="stop-color:#FE997D"/>
</linearGradient>
<path class="st12" d="M52.7,3.7h24.7c5.3,0,9.7,4.4,9.7,9.7l0,0c0,5.3-4.4,9.7-9.7,9.7H52.7c-5.3,0-9.7-4.4-9.7-9.7l0,0
	C43,8.1,47.3,3.7,52.7,3.7z"/>
</svg>
