<?xml version="1.0" encoding="utf-8"?>
<!-- Generator: Adobe Illustrator 21.1.0, SVG Export Plug-In . SVG Version: 6.00 Build 0)  -->
<svg version="1.1" id="Capa_1" xmlns="http://www.w3.org/2000/svg" xmlns:xlink="http://www.w3.org/1999/xlink" x="0px" y="0px"
	 viewBox="0 0 512 512" style="enable-background:new 0 0 512 512;" xml:space="preserve">
<style type="text/css">
	.st0{fill:#FBA761;}
	.st1{fill:#FA892D;}
	.st2{fill:#E06B1D;}
	.st3{fill:#F56C6C;}
	.st4{fill:#DB4D4D;}
	.st5{fill:#956B64;}
	.st6{fill:#F2EDEC;}
	.st7{fill:#E4DAD8;}
	.st8{fill:#FEF3BF;}
</style>
<path class="st0" d="M335.6,86.3C334.8,38,298.4-0.7,254.5,0C233.1,0.4,213.1,10,198.4,27c-14.6,16.8-22.4,38.8-22,62.1
	c0.4,23.6,9.4,52.8,23.5,76.1c16.5,27.3,36.8,42.3,57.5,42.3c0.2,0,0.5,0,0.7,0C303.5,206.6,336.5,133.4,335.6,86.3z"/>
<path class="st1" d="M223.4,165.1c-14.1-23.3-23.1-52.5-23.5-76.1c-0.4-23.3,7.4-45.3,22-62.1c12.3-14.2,28.3-23.2,45.6-26
	c-4.3-0.7-8.6-1-13.1-1C233.1,0.4,213.1,10,198.4,27c-14.6,16.8-22.4,38.8-22,62.1c0.4,23.6,9.4,52.8,23.5,76.1
	c16.5,27.3,36.8,42.3,57.5,42.3c0.2,0,0.5,0,0.7,0c3.8-0.1,7.4-0.6,11-1.6C252.5,201.2,236.7,187.2,223.4,165.1z"/>
<g>
	<path class="st2" d="M254.5,59.8c-3.1,0-6-2-7.1-5c-1.1-3.1,0-6.6,2.6-8.6c5.3-4,13.1,0.8,11.9,7.3
		C261.2,57.1,258.1,59.8,254.5,59.8z"/>
	<path class="st2" d="M223,84.6c-3.4,0-6.4-2.4-7.3-5.7c-0.8-3,0.4-6.2,2.9-8c5.5-3.9,13.1,1.1,11.7,7.7
		C229.6,82,226.5,84.6,223,84.6z"/>
	<path class="st2" d="M287.1,83.1c-3.1,0-5.9-2-7-4.8c-1.2-3.2-0.1-6.9,2.7-8.8c5.4-3.7,12.9,1,11.7,7.4
		C293.8,80.4,290.7,83.1,287.1,83.1z"/>
</g>
<path class="st0" d="M432.7,28c-18.8-10.4-40.8-12-62.1-4.6c-21,7.3-38.8,22.5-50,42.9c-11.4,20.7-18.1,50.4-17.6,77.7
	c0.7,32.2,11.1,55.6,29.5,65.7c6.8,3.8,14.6,5.6,23.1,5.6c14.4,0,30.8-5.3,48.1-15.7c23.3-14,44.9-35.6,56.3-56.3
	C483.4,100.9,471.1,49.2,432.7,28z"/>
<path class="st1" d="M357,209.6c-18.3-10.1-28.8-33.4-29.5-65.7c-0.6-27.2,6.2-57,17.6-77.7c11.2-20.4,29-35.6,50-42.9
	c4.7-1.6,9.4-2.8,14-3.5c-12.6-2.1-25.7-0.9-38.6,3.5c-21,7.3-38.8,22.5-50,42.9c-11.4,20.7-18.1,50.4-17.6,77.7
	c0.7,32.2,11.1,55.6,29.5,65.7c6.8,3.8,14.6,5.6,23.1,5.6c4.1,0,8.4-0.4,12.8-1.3C364.4,213,360.6,211.5,357,209.6z"/>
<g>
	<path class="st2" d="M406.6,80.8c-6.8,0-10.1-8.8-4.9-13.2c5.2-4.5,13.5,0.2,12.3,7C413.4,78.1,410.2,80.8,406.6,80.8z"/>
	<path class="st2" d="M366.9,86.6c-6.7,0-10-8.6-5-13.1c5.2-4.7,13.6,0,12.4,6.9C373.7,83.9,370.6,86.6,366.9,86.6z"/>
</g>
<path class="st0" d="M191.4,66.3c-11.2-20.4-29-35.6-50-42.9C120.1,16,98.1,17.6,79.3,28C40.9,49.2,28.6,100.9,52,143.2
	c11.4,20.7,33,42.2,56.3,56.3c17.3,10.4,33.8,15.7,48.1,15.7c8.5,0,16.3-1.9,23.1-5.6c18.3-10.1,28.8-33.4,29.5-65.7
	C209.6,116.7,202.8,86.9,191.4,66.3z"/>
<path class="st1" d="M131.2,196.2c-23.3-14-44.9-35.6-56.3-56.3c-23.4-42.3-11.1-94,27.4-115.2c4.4-2.4,9-4.4,13.7-5.8
	c-12.8-0.2-25.3,2.9-36.6,9.1C40.9,49.2,28.6,100.9,52,143.2c11.4,20.7,33,42.2,56.3,56.3c17.3,10.4,33.8,15.7,48.1,15.7
	c6.7,0,12.9-1.2,18.6-3.5C161.7,210.8,146.8,205.6,131.2,196.2z"/>
<g>
	<path class="st2" d="M105.4,80.8c-6.8,0-10.1-8.8-4.9-13.2c5.2-4.5,13.5,0.2,12.3,7C112.2,78.1,109,80.8,105.4,80.8z"/>
	<path class="st2" d="M145.1,86.6c-6.7,0-10-8.6-5-13.1c2.4-2.2,6.1-2.6,8.9-0.9c2.6,1.6,4.1,4.7,3.5,7.7
		C151.8,83.9,148.7,86.6,145.1,86.6z"/>
</g>
<path class="st3" d="M486.2,131c-1.4-1.7-3.6-2.7-5.8-2.7H31.6c-2.2,0-4.4,1-5.8,2.7c-1.4,1.7-2,4-1.6,6.2l64.1,328.6
	c0.7,3.5,3.8,6.1,7.4,6.1h320.6c3.6,0,6.7-2.5,7.4-6.1l64.1-328.6C488.2,135,487.7,132.7,486.2,131z"/>
<path class="st4" d="M111.9,465.8L47.7,137.2c-0.4-2.2,0.1-4.5,1.6-6.2c1.4-1.7,3.6-2.7,5.8-2.7H31.6c-2.2,0-4.4,1-5.8,2.7
	c-1.4,1.7-2,4-1.6,6.2l64.1,328.6c0.7,3.5,3.8,6.1,7.4,6.1h23.5C115.6,471.9,112.5,469.4,111.9,465.8z"/>
<path class="st5" d="M397.9,130.8c-1.4-1.6-3.5-2.5-5.6-2.5H119.7c-2.1,0-4.2,0.9-5.6,2.5c-1.4,1.6-2.1,3.7-1.8,5.9l38.9,328.6
	c0.4,3.8,3.7,6.6,7.5,6.6h194.7c3.8,0,7-2.8,7.5-6.6l38.9-328.6C400,134.5,399.3,132.4,397.9,130.8z"/>
<path class="st3" d="M309.5,130.6c-1.4-1.5-3.4-2.3-5.4-2.3h-96.2c-2,0-4,0.8-5.4,2.3c-1.4,1.5-2.2,3.5-2.1,5.5l13.7,328.6
	c0.2,4,3.5,7.2,7.5,7.2h68.7c4,0,7.3-3.2,7.5-7.2l13.7-328.6C311.7,134,310.9,132,309.5,130.6z"/>
<path class="st6" d="M488.5,96.2H23.5c-13,0-23.5,10.6-23.5,23.5s10.6,23.5,23.5,23.5h464.9c13,0,23.5-10.6,23.5-23.5
	S501.4,96.2,488.5,96.2z"/>
<path class="st7" d="M23.5,119.7c0-13,10.6-23.5,23.5-23.5H23.5c-13,0-23.5,10.6-23.5,23.5s10.6,23.5,23.5,23.5h23.5
	C34.1,143.3,23.5,132.7,23.5,119.7z"/>
<path class="st6" d="M88.2,504.5c0,4.1,3.4,7.5,7.5,7.5h320.6c4.1,0,7.5-3.4,7.5-7.5v-40.1H88.2V504.5z"/>
<g>
	<path class="st7" d="M111.7,504.5v-40.1H88.2v40.1c0,4.1,3.4,7.5,7.5,7.5h23.5C115.1,512,111.7,508.6,111.7,504.5z"/>
	<path class="st7" d="M362.2,237.8c-28.5-19-66.2-29.4-106.2-29.4s-77.7,10.5-106.2,29.4c-29.4,19.6-45.6,46-45.6,74.3
		c0,28.3,16.2,54.7,45.6,74.3c28.5,19,66.2,29.4,106.2,29.4s77.7-10.5,106.2-29.4c29.4-19.6,45.6-46,45.6-74.3
		C407.8,283.8,391.6,257.4,362.2,237.8z"/>
</g>
<path class="st6" d="M256,391.8c-35.3,0-68.3-9-92.9-25.4c-22.5-15-34.9-34.3-34.9-54.3s12.4-39.3,34.9-54.3
	c24.6-16.4,57.5-25.4,92.9-25.4s68.3,9,92.9,25.4c22.5,15,34.9,34.3,34.9,54.3s-12.4,39.3-34.9,54.3
	C324.3,382.7,291.3,391.8,256,391.8z"/>
<path class="st8" d="M359.3,208.4c9.4-9.3,9.5-24.6,0.2-34c-9.3-9.4-24.6-9.5-34-0.2c-9.4,9.3-9.5,24.6-0.2,34c2,2,4.2,3.6,6.6,4.7
	l-63.7,62.9l22.5,22.8l63.7-62.9c1.1,2.4,2.7,4.7,4.7,6.7c9.3,9.4,24.6,9.5,34,0.2c9.4-9.3,9.5-24.6,0.2-34
	C384,199.1,368.8,199,359.3,208.4z"/>
<path class="st0" d="M307.7,259.4c-14.7-14.9-40-18.6-71.2-10.5c-26.4,6.8-53.2,21.4-70,38c-34.4,34-37.3,87-6.4,118.3
	c14.6,14.8,34.1,22.1,54.3,22.1c22.5,0,45.9-9.1,64-27C312,367.1,339.6,291.8,307.7,259.4z"/>
<path class="st1" d="M284.8,381.3c-18.1,17.9-41.5,27-64,27c-20.2,0-39.7-7.3-54.3-22.1c-18.7-18.9-25-45.9-19.4-71.7
	c-14.3,30.9-10.3,67,13.1,90.6c14.6,14.8,34.1,22.1,54.3,22.1c22.5,0,45.9-9.1,64-27c16.7-16.5,31.9-43.4,39-70.2
	C309.4,350.1,297.5,368.7,284.8,381.3z"/>
<g>
	<path class="st2" d="M232,342.6c-6.7,0-10-8.6-5-13.1c2.5-2.2,6.2-2.6,9.1-0.8c2.6,1.6,3.9,4.7,3.4,7.7
		C238.7,340,235.5,342.6,232,342.6z"/>
	<path class="st2" d="M266,308.6c-3.3,0-6.2-2.2-7.2-5.3c-0.9-3,0.2-6.3,2.7-8.2c5.4-4,13.1,0.8,11.9,7.4
		C272.7,306,269.5,308.6,266,308.6z"/>
	<path class="st2" d="M198,376.6c-3.1,0-5.9-2-7-4.8c-1.1-3-0.2-6.5,2.2-8.5c2.6-2.1,6.3-2.3,9.1-0.3c2.4,1.7,3.6,4.7,3,7.6
		C204.6,374.1,201.5,376.6,198,376.6z"/>
	<path class="st2" d="M271.6,348.3c-2.9,0-5.6-1.7-6.8-4.3c-1.4-3-0.6-6.8,1.9-8.9c5-4.2,13-0.2,12.3,6.5
		C278.7,345.3,275.5,348.3,271.6,348.3z"/>
	<path class="st2" d="M237.6,382.3c-3.1,0-6-2-7.1-5c-1-2.8-0.2-6.2,2.1-8.2c4.9-4.3,13-0.4,12.5,6.2
		C244.8,379.2,241.5,382.3,237.6,382.3z"/>
	<path class="st2" d="M192.3,337c-6.9,0-10.1-8.9-4.8-13.3c5.2-4.2,13,0.2,12.2,6.7C199.3,334.1,196,337,192.3,337z"/>
	<path class="st2" d="M226.3,303c-6.6,0-10-8.4-5.2-13c2.4-2.3,6.2-2.7,9-1c2.8,1.6,4.2,5,3.5,8.1C232.8,300.5,229.8,303,226.3,303z
		"/>
</g>
</svg>
