<?xml version="1.0" encoding="utf-8"?>
<!-- Generator: Adobe Illustrator 21.1.0, SVG Export Plug-In . SVG Version: 6.00 Build 0)  -->
<svg version="1.1" id="Layer_1" xmlns="http://www.w3.org/2000/svg" xmlns:xlink="http://www.w3.org/1999/xlink" x="0px" y="0px"
	 viewBox="0 0 512 512" style="enable-background:new 0 0 512 512;" xml:space="preserve">
<style type="text/css">
	.st0{fill:#F0C087;}
	.st1{fill:#E6B273;}
	.st2{fill:#D9A86C;}
	.st3{fill:#3F3F3F;}
</style>
<path class="st0" d="M211,349.5l62.5,10.4v112.7c0,17.2,14,31.2,31.2,31.2l0,0c17.2,0,31.2-14,31.2-31.2V323.3l0.6-5l45.9,19.7
	c15.8,6.8,34.2-0.5,41-16.4l0,0c6.8-15.8-0.5-34.2-16.4-41l-62.7-27C344,165,290.1,152,290.1,152V8.2H157.8V152
	c0,0-54.2,24.2-54.2,113.5l44.9,63.1L211,349.5z"/>
<path class="st1" d="M242.2,391.1L242.2,391.1c17.2,0,31.2-14,31.2-31.2v-63.5c0-17.2-14-31.2-31.2-31.2l0,0
	c-17.2,0-31.2,14-31.2,31.2v63.5C211,377.1,225,391.1,242.2,391.1z"/>
<path class="st2" d="M179.8,380.7L179.8,380.7c17.2,0,31.2-14,31.2-31.2v-63.5c0-17.2-14-31.2-31.2-31.2l0,0
	c-17.2,0-31.2,14-31.2,31.2v63.5C148.5,366.7,162.5,380.7,179.8,380.7z"/>
<path class="st1" d="M117.2,359.8L117.2,359.8c17.2,0,31.2-14,31.2-31.2v-63.5c0-17.2-14-31.2-31.2-31.2l0,0
	c-17.2,0-31.2,14-31.2,31.2v63.5C86,345.9,100,359.8,117.2,359.8z"/>
<path class="st3" d="M157.8,53.1c4.5,0,8.2-3.7,8.2-8.2V16.4h115.9V152c0,3.8,2.5,7.1,6.2,8c0.1,0,14.4,3.9,27.1,20
	c2.8,3.6,8,4.2,11.5,1.4c3.6-2.8,4.2-8,1.4-11.5c-10.8-13.8-22.7-20.5-29.8-23.6V8.2c0-4.5-3.7-8.2-8.2-8.2H157.8
	c-4.5,0-8.2,3.7-8.2,8.2v36.7C149.6,49.4,153.3,53.1,157.8,53.1z"/>
<path class="st3" d="M117.2,368.1c9.2,0,17.7-3.2,24.4-8.5c4.5,16.9,19.9,29.3,38.1,29.3c10.6,0,20.3-4.2,27.4-11.1
	c6.5,12.7,19.8,21.5,35.1,21.5c8.6,0,16.5-2.8,23-7.4v80.7c0,21.8,17.7,39.4,39.4,39.4c21.8,0,39.4-17.7,39.4-39.4v-142
	c0,0,35.1,15.1,35.1,15.1c19.8,8.5,43.4-1,51.8-20.7c8.6-20-0.7-43.2-20.7-51.8l-57.8-24.9c-0.5-16.6-2.9-31.8-7.1-45.1
	c-1.4-4.3-6-6.7-10.3-5.3c-4.3,1.4-6.7,6-5.3,10.3c4.2,13.2,6.3,28.5,6.4,45.6c0,3.3,2,6.2,5,7.5c0,0,62.7,27,62.7,27
	c11.5,4.9,17,18.7,12.1,30.2c-4.9,11.5-18.7,17-30.2,12l-45.9-19.7c-2.4-1-5.1-0.9-7.3,0.4c-2.2,1.3-3.8,3.6-4.1,6.1
	c-0.2,2-0.7,4-0.7,6v149.3c0,12.7-10.3,23-23,23s-23-10.3-23-23V359.9v-63.5c0-3.4-0.4-6.7-1.2-9.8c-4.4-17-19.9-29.6-38.2-29.6
	c-6.3,0-11-2-14.8-6.4c-12-13.9-10.1-46.9-8.3-58.4c0.7-4.5-2.4-8.7-6.9-9.4c-0.4-0.1-0.8-0.1-1.3-0.1c-4,0-7.5,2.9-8.1,7
	c-0.1,0.5-1.8,12.2-1.4,26.5c0.6,20.2,5.1,35.3,13.5,45.1c1.1,1.3,2.3,2.5,3.6,3.6c-0.1-0.1-1.7,1.4-1.9,1.5
	c-0.6,0.5-1.2,1.1-1.8,1.6c-0.1-0.1-0.1-0.2-0.2-0.3c-4.3-8.3-11.7-14.9-20.3-18.4c-8-3.2-17.1-3.7-25.4-1.3
	c-4.7,1.3-9.2,3.6-13.1,6.6c-0.2,0.1-0.3,0.3-0.5,0.4c-0.1-0.5-0.3-1.1-0.5-1.6c0,0,0-0.1,0-0.1c-1.9-6.1-5.4-11.8-10-16.3
	c-4.3-4.2-9.6-7.5-15.3-9.4c-3.9-1.3-8.2-2-12.3-2c-0.4,0-0.8,0-1.1,0c11.8-50.3,43.6-65.5,45-66.2c3-1.3,4.9-4.3,4.9-7.5V77.8
	c0-4.5-3.7-8.2-8.2-8.2s-8.2,3.7-8.2,8.2v69.3c-11.9,7.2-41.7,30.2-51.2,83.4c-12.2,6.7-20.6,19.7-20.6,34.6v63.5
	C77.8,350.4,95.5,368.1,117.2,368.1z M219.2,349.5v-53.1c0-12.7,10.3-23,23-23s23,10.3,23,23v63.5c0,12.7-10.3,23-23,23
	s-23-10.3-23-23V349.5z M156.8,296.3v-10.4c0-12.7,10.3-23,23-23s23,10.3,23,23v10.4v53.1c0,12.7-10.3,23-23,23s-23-10.3-23-23
	V296.3z M94.2,265.1c0-10,6.4-18.5,15.4-21.7c0.3-0.1,0.7-0.3,1-0.4c0.4-0.1,0.8-0.2,1.2-0.3c0.3-0.1,0.7-0.2,1-0.2
	c0.5-0.1,0.9-0.2,1.4-0.2c0.3,0,0.5-0.1,0.8-0.1c0.7-0.1,1.5-0.1,2.3-0.1c12.7,0,23,10.3,23,23v31.1v32.4c0,12.7-10.3,23-23,23
	s-23-10.3-23-23L94.2,265.1L94.2,265.1z"/>
</svg>
