<?xml version="1.0" encoding="utf-8"?>
<!-- Generator: Adobe Illustrator 21.1.0, SVG Export Plug-In . SVG Version: 6.00 Build 0)  -->
<svg version="1.1" id="Capa_1" xmlns="http://www.w3.org/2000/svg" xmlns:xlink="http://www.w3.org/1999/xlink" x="0px" y="0px"
	 viewBox="0 0 512 512" style="enable-background:new 0 0 512 512;" xml:space="preserve">
<style type="text/css">
	.st0{fill:#FDD0AB;}
	.st1{fill:#FEE2CA;}
	.st2{fill:#F56C6C;}
	.st3{fill:#DB4D4D;}
	.st4{fill:#F2EDEC;}
	.st5{fill:#FBDC40;}
	.st6{fill:#FAD000;}
	.st7{fill:#BDA39E;}
	.st8{fill:#956B64;}
	.st9{fill:#E4DAD8;}
	.st10{fill:#3F3F3F;}
</style>
<circle class="st0" cx="368.2" cy="175.8" r="24"/>
<g>
	<circle class="st1" cx="143.8" cy="175.8" r="24"/>
	<circle class="st1" cx="256" cy="135.8" r="112.2"/>
</g>
<path class="st0" d="M280,240c-62,0-112.2-50.2-112.2-112.2c0-45.1,26.6-83.9,64.9-101.8c-50.8,10.7-89,55.8-89,109.8
	c0,62,50.2,112.2,112.2,112.2c16.9,0,32.9-3.7,47.3-10.4C295.8,239.1,288,240,280,240z"/>
<path class="st2" d="M207.9,7.5h96.2c35.4,0,64.1,28.7,64.1,64.1v40.1H143.8V71.6C143.8,36.2,172.5,7.5,207.9,7.5z"/>
<path class="st3" d="M240,7.5h-32.1c-35.4,0-64.1,28.7-64.1,64.1v40.1h32.1V71.6C175.8,36.2,204.6,7.5,240,7.5z"/>
<path class="st4" d="M256,7.5L256,7.5c35.4,0,64.1,28.7,64.1,64.1v40.1H191.9V71.6C191.9,36.2,220.6,7.5,256,7.5z"/>
<path class="st5" d="M336.2,159.8H175.8c-17.7,0-32.1-14.4-32.1-32.1v-16h224.4v16C368.2,145.5,353.9,159.8,336.2,159.8z"/>
<path class="st6" d="M175.8,127.8v-16h-32.1v16c0,17.7,14.4,32.1,32.1,32.1h32.1C190.2,159.8,175.8,145.5,175.8,127.8z"/>
<path class="st7" d="M248,244h-32.1v-24H248c4.4,0,8,3.6,8,8v8C256,240.4,252.4,244,248,244z"/>
<path class="st1" d="M384.3,504.5H127.8V296.1c0-17.7,14.4-32.1,32.1-32.1h192.4c17.7,0,32.1,14.4,32.1,32.1L384.3,504.5
	L384.3,504.5z"/>
<path class="st2" d="M352.2,264h-64.1L256,320.1L223.9,264h-64.1c-17.7,0-32.1,14.4-32.1,32.1v208.4h256.5V296.1
	C384.3,278.4,369.9,264,352.2,264z"/>
<g>
	<polygon class="st4" points="320.1,296.1 256,320.1 288.1,264 320.1,264 	"/>
	<polygon class="st4" points="191.9,296.1 256,320.1 223.9,264 191.9,264 	"/>
</g>
<polygon class="st8" points="376.2,504.5 127.8,504.5 127.8,384.3 191.9,352.2 320.1,352.2 376.2,384.3 "/>
<rect x="368.2" y="336.2" class="st4" width="128.3" height="168.3"/>
<rect x="368.2" y="336.2" class="st9" width="24" height="168.3"/>
<path class="st5" d="M127.8,344.2H79.7l-64.1,56.1v104.2h176.3V400.3L127.8,344.2z M127.8,408.3H79.7v-24h48.1V408.3z"/>
<polygon class="st6" points="103.7,344.2 79.7,344.2 15.5,400.3 15.5,504.5 39.6,504.5 39.6,400.3 "/>
<path class="st10" d="M136.6,206.6c0.1,0,0.2,0,0.3,0c3.2,18.6,19.5,32.8,39,32.8h32.6v4.5c0,4.1,3.4,7.5,7.5,7.5H248
	c8.6,0,15.5-7,15.5-15.5v-8c0-8.6-7-15.5-15.5-15.5h-32.1c-4.2,0-7.5,3.4-7.5,7.5v4.5h-32.6c-13.5,0-24.5-11-24.5-24.5v-6
	c4.7,8.5,10.5,16.5,17.3,23.7c3,3.2,8.2,3.1,11.1-0.2c2.5-2.9,2.5-7.3-0.1-10.1c-12.4-13.2-21-29.1-25.2-46.4
	c6.2,4,13.6,6.4,21.5,6.4h160.3c7.9,0,15.3-2.3,21.5-6.4c-9.7,39.6-41.9,70.7-83.5,77.9c-4,0.7-6.8,4.6-6.1,8.6
	c0.6,4.1,4.6,7,8.7,6.3c32.5-5.7,60-24,77.7-49.5c4.3,2.1,9,3.2,13.9,3.2c17.4,0,31.6-14.2,31.6-31.6c0-14.7-10.3-27.5-24.4-30.7
	c0.2-3.1,0.4-6.2,0.4-9.3V71.6c0-39.5-32.1-71.6-71.6-71.6h-96.2c-39.5,0-71.6,32.1-71.6,71.6v73.5c-14,3.4-24,16-24,30.7
	C112.2,190.6,122.2,203.2,136.6,206.6z M223.4,227.4H248c0.3,0,0.5,0.2,0.5,0.5v8c0,0.3-0.2,0.5-0.5,0.5h-24.5V227.4z M336.2,152.3
	H175.8c-13.5,0-24.5-11-24.5-24.5v-8.5h209.4v8.5C360.7,141.3,349.7,152.3,336.2,152.3z M384.8,175.8c0,9.1-7.4,16.5-16.5,16.5
	c-2.1,0-4.1-0.4-6-1.1c5.1-9.7,8.8-20.2,11.1-31.1C380,162.3,384.8,168.6,384.8,175.8z M304.1,15c31.2,0,56.6,25.4,56.6,56.6v32.6
	h-33.1V71.6c0-7.3-1.1-14.4-3.2-21.3c-1.2-4-5.4-6.2-9.4-4.9c-4,1.2-6.2,5.4-4.9,9.4c1.7,5.4,2.5,11.1,2.5,16.8v32.6H199.4V71.6
	c0-31.2,25.4-56.6,56.6-56.6c13.5,0,26.5,4.8,36.8,13.6c3.2,2.7,7.9,2.3,10.6-0.8s2.3-7.9-0.8-10.6c-0.9-0.7-1.7-1.4-2.6-2.1
	C299.9,15,304.1,15,304.1,15z M151.3,71.6c0-31.2,25.4-56.6,56.6-56.6h4.3c-16.9,13.1-27.8,33.6-27.8,56.6v32.6h-33.1L151.3,71.6
	L151.3,71.6z M136.3,161.1v29.5c-5.5-2.8-9-8.4-9-14.7C127.2,169.5,130.9,163.9,136.3,161.1z"/>
<path class="st10" d="M214.2,171.7c-1.7-2.5-4.9-3.8-7.9-3.2c-3,0.7-5.3,3.2-5.8,6.2c-0.5,3,1.1,6.1,3.7,7.6c2.8,1.6,6.4,1.2,8.8-1
	C215.7,178.9,216.2,174.7,214.2,171.7z"/>
<path class="st10" d="M297.8,180c3.7,5.4,12.2,3.8,13.6-2.6c1.4-6.7-6.5-11.6-11.9-7.5C296.4,172.2,295.7,176.8,297.8,180z"/>
<path class="st10" d="M496.5,328.6H391.8v-32.6c0-21.8-17.8-39.6-39.6-39.6H159.8c-21.8,0-39.6,17.8-39.6,39.6v40.6H79.7
	c-1.8,0-3.6,0.7-4.9,1.9l-64.1,56.1C9,396.1,8,398.1,8,400.3v104.2c0,4.1,3.4,7.5,7.5,7.5h480.9c4.2,0,7.5-3.4,7.5-7.5V336.2
	C504,332,500.6,328.6,496.5,328.6z M376.7,296.1v32.6h-8.5c-4.2,0-7.5,3.4-7.5,7.5v27.9l-33.1-16.5v-51.5v-24.5h24.5
	C365.7,271.5,376.7,282.5,376.7,296.1z M196.8,394.6l-26.6-23.2l23.4-11.7h124.7l42.4,21.2V497H199.4v-96.7
	C199.4,398.1,198.5,396.1,196.8,394.6z M256,305l-19.1-33.4h38.2L256,305z M253.4,327.2c1.7,0.6,3.6,0.6,5.3,0l54-20.2v37.8H199.4
	v-37.8L253.4,327.2z M312.6,271.5v19.3l-39.8,14.9l19.6-34.3H312.6z M219.6,271.5l19.6,34.3l-39.8-14.9v-19.3H219.6z M159.8,271.5
	h24.5v24.5v51.5l-26.3,13.2l-22.8-19.9v-44.7C135.3,282.5,146.3,271.5,159.8,271.5z M23,497v-93.3l59.4-52h42.4l59.4,52V497H23z
	 M489,497H376.2h-0.5V343.7H489V497z"/>
<path class="st10" d="M408.3,375.7h48.1c4.2,0,7.5-3.4,7.5-7.5s-3.4-7.5-7.5-7.5h-48.1c-4.2,0-7.5,3.4-7.5,7.5
	S404.1,375.7,408.3,375.7z"/>
<path class="st10" d="M392.3,407.8h80.2c4.2,0,7.5-3.4,7.5-7.5s-3.4-7.5-7.5-7.5h-80.2c-4.2,0-7.5,3.4-7.5,7.5
	S388.1,407.8,392.3,407.8z"/>
<path class="st10" d="M392.3,439.9h80.2c4.2,0,7.5-3.4,7.5-7.5s-3.4-7.5-7.5-7.5h-80.2c-4.2,0-7.5,3.4-7.5,7.5
	S388.1,439.9,392.3,439.9z"/>
<path class="st10" d="M392.3,471.9h24c4.2,0,7.5-3.4,7.5-7.5s-3.4-7.5-7.5-7.5h-24c-4.2,0-7.5,3.4-7.5,7.5S388.1,471.9,392.3,471.9z
	"/>
<path class="st10" d="M456.4,456.9h-16c-4.2,0-7.5,3.4-7.5,7.5s3.4,7.5,7.5,7.5h16c4.2,0,7.5-3.4,7.5-7.5S460.5,456.9,456.4,456.9z"
	/>
<path class="st10" d="M127.8,376.7H79.7c-4.2,0-7.5,3.4-7.5,7.5v24c0,4.1,3.4,7.5,7.5,7.5h48.1c4.2,0,7.5-3.4,7.5-7.5v-24
	C135.3,380.1,131.9,376.7,127.8,376.7z M120.2,400.8H87.2v-9h33.1V400.8z"/>
</svg>
