<?xml version="1.0" encoding="utf-8"?>
<!-- Generator: Adobe Illustrator 21.1.0, SVG Export Plug-In . SVG Version: 6.00 Build 0)  -->
<svg version="1.1" id="Capa_1" xmlns="http://www.w3.org/2000/svg" xmlns:xlink="http://www.w3.org/1999/xlink" x="0px" y="0px"
	 viewBox="0 0 512 512" style="enable-background:new 0 0 512 512;" xml:space="preserve">
<style type="text/css">
	.st0{fill:#FA892D;}
	.st1{fill:#F2EDEC;}
	.st2{fill:#956B64;}
	.st3{fill:#7A463D;}
	.st4{fill:#7FDECF;}
	.st5{fill:#55D4BE;}
	.st6{fill:#E4DAD8;}
	.st7{fill:#F79191;}
	.st8{fill:#F56C6C;}
	.st9{fill:#885951;}
</style>
<path class="st0" d="M364,312h-14.9c-4.4,0-8-3.6-8-8s3.6-8,8-8H364c0.3,0,0.7,0,1,0c0,0,0.1,0,0.1,0c4.4,0,7.9,3.5,8,7.9
	c0.1,4.4-3.4,8.1-7.9,8.1C364.9,312,364.4,312,364,312z M317.1,312H316c-5.6,0-11.2-0.7-16.6-2.1c-4.3-1.1-6.9-5.4-5.8-9.7
	c1.1-4.3,5.4-6.9,9.7-5.8c4.1,1,8.4,1.6,12.7,1.6h1.1c4.4,0,8,3.6,8,8S321.6,312,317.1,312z M395.5,303.1c-2.7,0-5.3-1.3-6.8-3.8
	c-2.3-3.8-1.2-8.7,2.6-11c3.9-2.4,7.5-5.4,10.7-8.8c3-3.2,8.1-3.4,11.3-0.4s3.4,8.1,0.4,11.3c-4.1,4.4-8.8,8.3-14,11.4
	C398.4,302.7,396.9,303.1,395.5,303.1z M273.8,294.6c-2,0-4.1-0.8-5.6-2.3c-4.3-4.3-8-9.1-11-14.3c-2.2-3.8-0.9-8.7,2.9-10.9
	c3.8-2.2,8.7-0.9,10.9,2.9c2.3,4,5.2,7.7,8.5,10.9c3.1,3.1,3.2,8.2,0.1,11.3C277.9,293.8,275.8,294.6,273.8,294.6z M422.6,265
	c-0.6,0-1.2-0.1-1.7-0.2c-4.3-1-7-5.2-6.1-9.5c0.8-3.7,1.2-7.5,1.2-11.3v-2.9c0-4.4,3.6-8,8-8s8,3.6,8,8v2.9c0,5-0.5,9.9-1.6,14.8
	C429.6,262.5,426.3,265,422.6,265z M88,256c-4.4,0-8-3.6-8-8v-16c0-4.4,3.6-8,8-8s8,3.6,8,8v16C96,252.4,92.4,256,88,256z
	 M256,251.4c-4.4,0-8-3.6-8-8v-16c0-4.4,3.6-8,8-8s8,3.6,8,8v16C264,247.9,260.4,251.4,256,251.4z M424,217.1c-4.4,0-8-3.6-8-8v-16
	c0-4.4,3.6-8,8-8s8,3.6,8,8v16C432,213.6,428.4,217.1,424,217.1z M88,208c-4.4,0-8-3.6-8-8v-16c0-4.4,3.6-8,8-8s8,3.6,8,8v16
	C96,204.4,92.4,208,88,208z M256,203.4c-4.4,0-8-3.6-8-8v-16c0-4.4,3.6-8,8-8s8,3.6,8,8v16C264,199.9,260.4,203.4,256,203.4z
	 M424,169.1c-4.4,0-8-3.6-8-8v-16c0-4.4,3.6-8,8-8s8,3.6,8,8v16C432,165.6,428.4,169.1,424,169.1z M88,160c-4.4,0-8-3.6-8-8v-16
	c0-4.4,3.6-8,8-8s8,3.6,8,8v16C96,156.4,92.4,160,88,160z M256,155.4c-4.4,0-8-3.6-8-8v-16c0-4.4,3.6-8,8-8s8,3.6,8,8v16
	C264,151.9,260.4,155.4,256,155.4z M88,112c-4.4,0-8-3.6-8-8V88c0-4.4,3.6-8,8-8s8,3.6,8,8v16C96,108.4,92.4,112,88,112z M256,107.4
	c-4.4,0-8-3.6-8-8v-16c0-4.4,3.6-8,8-8s8,3.6,8,8v16C264,103.8,260.4,107.4,256,107.4z M89.2,64.1c-0.5,0-1.1-0.1-1.6-0.2
	c-4.3-0.9-7.1-5.1-6.3-9.4c1.2-5.9,3.2-11.7,5.9-17.1c2-3.9,6.8-5.5,10.7-3.5c3.9,2,5.5,6.8,3.5,10.7c-2.1,4.1-3.6,8.5-4.5,13
	C96.3,61.5,92.9,64.1,89.2,64.1z M253.7,59.6c-3.5,0-6.7-2.3-7.7-5.8c-1.3-4.4-3.1-8.7-5.5-12.7c-2.3-3.8-1.1-8.7,2.7-11
	c3.8-2.3,8.7-1.1,11,2.7c3.1,5.2,5.6,10.8,7.2,16.6c1.2,4.3-1.3,8.7-5.5,9.9C255.2,59.5,254.5,59.6,253.7,59.6z M115.6,25.5
	c-2.6,0-5.2-1.3-6.7-3.7c-2.4-3.7-1.3-8.7,2.4-11.1c5.1-3.3,10.6-5.9,16.4-7.7c4.2-1.3,8.7,1,10,5.2c1.3,4.2-1,8.7-5.2,10
	c-4.4,1.4-8.6,3.4-12.5,5.9C118.6,25.1,117.1,25.5,115.6,25.5z M224.5,23.2c-1.3,0-2.6-0.3-3.8-1c-4.1-2.2-8.4-3.8-12.9-4.9
	c-4.3-1-7-5.3-6-9.6c1-4.3,5.3-7,9.6-6c5.9,1.4,11.6,3.5,16.9,6.4c3.9,2.1,5.3,7,3.2,10.8C230.1,21.7,227.3,23.2,224.5,23.2z
	 M177.7,16h-16c-4.4,0-8-3.6-8-8s3.6-8,8-8h16c4.4,0,8,3.6,8,8S182.1,16,177.7,16z"/>
<path class="st1" d="M144,240H32c-17.6,0-32,14.4-32,32v208c0,17.6,14.4,32,32,32h112c17.6,0,32-14.4,32-32V272
	C176,254.4,161.6,240,144,240z"/>
<g>
	<path class="st2" d="M144,240H32c-17.7,0-32,14.3-32,32v16h176v-16C176,254.3,161.7,240,144,240z"/>
	<path class="st2" d="M176,464H0v16c0,17.7,14.3,32,32,32h112c17.7,0,32-14.3,32-32V464z"/>
</g>
<path class="st3" d="M96,496H80c-4.4,0-8-3.6-8-8s3.6-8,8-8h16c4.4,0,8,3.6,8,8S100.4,496,96,496z"/>
<path class="st4" d="M88,312c-26.5,0-48,21.5-48,48c0,24.2,37.5,71.7,41.8,77c3.2,3.9,9.3,3.9,12.5,0c4.3-5.3,41.8-52.8,41.8-77
	C136,333.5,114.5,312,88,312z"/>
<path class="st5" d="M56,360c0-23.7,17.3-43.5,40-47.3c-2.6-0.4-5.3-0.7-8-0.7c-26.5,0-48,21.5-48,48c0,24.2,37.5,71.7,41.8,77
	c3.2,3.9,9.3,3.9,12.5,0c0.4-0.5,1-1.2,1.8-2.2C87.4,423.8,56,382.2,56,360z"/>
<path class="st6" d="M88,328c-17.6,0-32,14.4-32,32s14.4,32,32,32s32-14.4,32-32S105.6,328,88,328z"/>
<g>
	<path class="st1" d="M88,336c-13.2,0-24,10.8-24,24s10.8,24,24,24s24-10.8,24-24S101.2,336,88,336z"/>
	<path class="st1" d="M488,40H360c-4.4,0-8,3.6-8,8v96c0,4.4,3.6,8,8,8h128c4.4,0,8-3.6,8-8V48C496,43.6,492.4,40,488,40z"/>
</g>
<path class="st6" d="M368,144V48c0-4.4,3.6-8,8-8h-16c-4.4,0-8,3.6-8,8v96c0,4.4,3.6,8,8,8h16C371.6,152,368,148.4,368,144z"/>
<polygon class="st1" points="504,48 344,48 360,0 488,0 "/>
<path class="st2" d="M416,88h-32c-4.4,0-8,3.6-8,8v48c0,4.4,3.6,8,8,8h32c4.4,0,8-3.6,8-8V96C424,91.6,420.4,88,416,88z"/>
<g>
	<rect x="408" class="st7" width="32" height="48"/>
	<polygon class="st7" points="504,48 472,48 464,0 488,0 	"/>
	<polygon class="st7" points="376,48 344,48 360,0 384,0 	"/>
</g>
<g>
	<path class="st8" d="M496,72h-24V48h32v16C504,68.4,500.4,72,496,72z"/>
	<rect x="408" y="48" class="st8" width="32" height="24"/>
	<path class="st8" d="M376,72h-24c-4.4,0-8-3.6-8-8V48h32V72z"/>
</g>
<g>
	<rect x="376" y="48" class="st6" width="32" height="24"/>
	<rect x="440" y="48" class="st6" width="32" height="24"/>
</g>
<path class="st9" d="M504,152H344c-4.4,0-8-3.6-8-8s3.6-8,8-8h160c4.4,0,8,3.6,8,8S508.4,152,504,152z"/>
<path class="st4" d="M472,88h-32c-4.4,0-8,3.6-8,8v24c0,4.4,3.6,8,8,8h32c4.4,0,8-3.6,8-8V96C480,91.6,476.4,88,472,88z"/>
</svg>
