<?xml version="1.0" encoding="utf-8"?>
<!-- Generator: Adobe Illustrator 21.1.0, SVG Export Plug-In . SVG Version: 6.00 Build 0)  -->
<svg version="1.1" id="Capa_1" xmlns="http://www.w3.org/2000/svg" xmlns:xlink="http://www.w3.org/1999/xlink" x="0px" y="0px"
	 viewBox="0 0 512 512" style="enable-background:new 0 0 512 512;" xml:space="preserve">
<style type="text/css">
	.st0{fill:#FBA761;}
	.st1{fill:#FA892D;}
	.st2{fill:#E4DAD8;}
	.st3{fill:#F2EDEC;}
	.st4{fill:#AF908B;}
	.st5{fill:#F79191;}
	.st6{fill:#F56C6C;}
	.st7{fill:#885951;}
</style>
<path class="st0" d="M437,75C388.7,26.6,324.4,0,256,0S123.3,26.6,75,75C26.6,123.3,0,187.6,0,256s26.6,132.7,75,181
	c48.4,48.4,112.6,75,181,75s132.7-26.6,181-75c48.4-48.4,75-112.6,75-181S485.4,123.3,437,75z"/>
<path class="st1" d="M420,92C376.2,48.1,318,24,256,24c-62,0-120.2,24.1-164,68C48.1,135.8,24,194,24,256s24.1,120.2,68,164
	c43.8,43.8,102.1,68,164,68c62,0,120.2-24.1,164-68c43.8-43.8,68-102.1,68-164S463.9,135.8,420,92z"/>
<path class="st2" d="M408.7,103.3C367.9,62.5,313.7,40,256,40c-57.7,0-111.9,22.5-152.7,63.3C62.5,144.1,40,198.3,40,256
	s22.5,111.9,63.3,152.7S198.3,472,256,472c57.7,0,111.9-22.5,152.7-63.3S472,313.7,472,256S449.5,144.1,408.7,103.3z"/>
<path class="st3" d="M397.4,114.6C359.6,76.8,309.4,56,256,56s-103.6,20.8-141.4,58.6C76.8,152.4,56,202.6,56,256
	s20.8,103.6,58.6,141.4c37.8,37.8,88,58.6,141.4,58.6s103.6-20.8,141.4-58.6c37.8-37.8,58.6-88,58.6-141.4S435.2,152.4,397.4,114.6z
	"/>
<g>
	<path class="st4" d="M416,279.5c0-4.4-3.6-8-8-8h-40v-8h40c4.4,0,8-3.6,8-8s-3.6-8-8-8h-40v-8h40c4.4,0,8-3.6,8-8s-3.6-8-8-8h-48
		c-8.8,0-16,7.2-16,16v4h-92c-6.6,0-12,5.4-12,12c0,6.6,5.4,12,12,12h92v4c0,8.8,7.2,16,16,16h48C412.4,287.5,416,284,416,279.5z"/>
	<path class="st4" d="M267.5,267.5l-3.8-101.9c5.6-1.9,10.7-5.7,14.7-11c5.5-7.3,8.5-17,8.5-27.1c0-21.8-14.1-39.5-31.5-39.5
		c-17.4,0-31.5,17.7-31.5,39.5c0,12.5,4.6,23.7,11.9,30.9c3.3,3.3,7.2,5.8,11.4,7.2l-3.8,101.9c0,6.6,5.4,12,12,12
		C262.1,279.5,267.5,274.1,267.5,267.5z"/>
</g>
<path class="st5" d="M256,216c-22.1,0-40,17.9-40,40s17.9,40,40,40s40-17.9,40-40S278.1,216,256,216z"/>
<path class="st6" d="M256,232c-13.2,0-24,10.8-24,24s10.8,24,24,24c13.2,0,24-10.8,24-24S269.2,232,256,232z"/>
<g>
	<path class="st7" d="M256,64c4.4,0,8-3.6,8-8V40.2c-2.7-0.1-5.3-0.2-8-0.2c-2.7,0-5.3,0.1-8,0.2V56C248,60.4,251.6,64,256,64z"/>
	<path class="st7" d="M156,90.8c1.4,0,2.7-0.3,4-1.1c3.8-2.2,5.1-7.1,2.9-10.9L155,65c-4.7,2.5-9.3,5.2-13.8,8l8,13.8
		C150.6,89.4,153.2,90.8,156,90.8z"/>
	<path class="st7" d="M82.8,164c2.8,0,5.5-1.4,6.9-4c2.2-3.8,0.9-8.7-2.9-10.9l-13.8-8c-2.9,4.5-5.5,9.1-8,13.8l13.8,8
		C80.1,163.7,81.4,164,82.8,164z"/>
	<path class="st7" d="M64,256c0-4.4-3.6-8-8-8H40.2c-0.1,2.7-0.2,5.3-0.2,8c0,2.7,0.1,5.3,0.2,8H56C60.4,264,64,260.4,64,256z"/>
	<path class="st7" d="M89.7,352c-2.2-3.8-7.1-5.1-10.9-2.9L65,357c2.5,4.7,5.2,9.3,8,13.8l13.8-8C90.6,360.7,91.9,355.8,89.7,352z"
		/>
	<path class="st7" d="M160,422.3c-3.8-2.2-8.7-0.9-10.9,2.9l-8,13.8c4.5,2.9,9.1,5.5,13.8,8l8-13.8
		C165.1,429.4,163.8,424.5,160,422.3z"/>
	<path class="st7" d="M256,448c-4.4,0-8,3.6-8,8v15.8c2.7,0.1,5.3,0.2,8,0.2c2.7,0,5.3-0.1,8-0.2V456C264,451.6,260.4,448,256,448z"
		/>
	<path class="st7" d="M352,422.3c-3.8,2.2-5.1,7.1-2.9,10.9l8,13.8c4.7-2.5,9.3-5.2,13.8-8l-8-13.8
		C360.7,421.4,355.8,420.1,352,422.3z"/>
	<path class="st7" d="M422.3,352c-2.2,3.8-0.9,8.7,2.9,10.9l13.8,8c2.9-4.5,5.5-9.1,8-13.8l-13.8-8
		C429.4,346.9,424.5,348.2,422.3,352z"/>
	<path class="st7" d="M471.8,248H456c-4.4,0-8,3.6-8,8s3.6,8,8,8h15.8c0.1-2.7,0.2-5.3,0.2-8S471.9,250.7,471.8,248z"/>
	<path class="st7" d="M422.3,160c1.5,2.6,4.2,4,6.9,4c1.4,0,2.7-0.3,4-1.1l13.8-8c-2.5-4.7-5.2-9.3-8-13.8l-13.8,8
		C421.4,151.3,420.1,156.2,422.3,160z"/>
	<path class="st7" d="M352,89.7c1.3,0.7,2.6,1.1,4,1.1c2.8,0,5.5-1.4,6.9-4l8-13.8c-4.5-2.9-9.1-5.5-13.8-8l-8,13.8
		C346.9,82.6,348.2,87.5,352,89.7z"/>
</g>
</svg>
