<?xml version="1.0" encoding="utf-8"?>
<!-- Generator: Adobe Illustrator 21.1.0, SVG Export Plug-In . SVG Version: 6.00 Build 0)  -->
<svg version="1.1" id="Layer_1" xmlns="http://www.w3.org/2000/svg" xmlns:xlink="http://www.w3.org/1999/xlink" x="0px" y="0px"
	 viewBox="0 0 512 512" style="enable-background:new 0 0 512 512;" xml:space="preserve">
<style type="text/css">
	.st0{fill:url(#SVGID_1_);}
	.st1{fill:#3F3F3F;}
</style>
<linearGradient id="SVGID_1_" gradientUnits="userSpaceOnUse" x1="17.247" y1="259" x2="504.753" y2="259">
	<stop  offset="0" style="stop-color:#FF6479"/>
	<stop  offset="1" style="stop-color:#FE997D"/>
</linearGradient>
<circle class="st0" cx="261" cy="259" r="243.8"/>
<g>
	<g>
		<path class="st1" d="M393.6,465.7c-2.4-4.5-7.9-6.1-12.4-3.8c-2.4,1.3-4.8,2.5-7.2,3.7c-10.1,4.8-20.4,9.1-30.6,12.7
			c-4.8,1.7-7.3,6.9-5.6,11.7c1.3,3.8,4.9,6.1,8.6,6.1c1,0,2-0.2,3-0.5c10.9-3.8,21.8-8.3,32.5-13.5c2.7-1.3,5.3-2.6,7.9-4
			C394.3,475.7,395.9,470.1,393.6,465.7z"/>
	</g>
</g>
<g>
	<g>
		<path class="st1" d="M494,327.6c-4.8-1.5-9.9,1.2-11.4,6.1c-2.1,6.7-4.4,13.4-7,19.9c-1.9,4.7,0.4,10,5,11.9
			c1.1,0.5,2.3,0.7,3.4,0.7c3.6,0,7-2.2,8.5-5.7c2.8-6.9,5.4-14.1,7.6-21.3C501.6,334.2,498.9,329.1,494,327.6z"/>
	</g>
</g>
<g>
	<g>
		<path class="st1" d="M474.3,378.5c-4.4-2.5-10-1-12.5,3.4c-8.8,15.5-19.3,29.6-31.1,42.1c-3.5,3.7-3.3,9.4,0.3,12.9
			c1.8,1.7,4,2.5,6.3,2.5c2.4,0,4.8-1,6.6-2.8c12.8-13.5,24.2-28.9,33.7-45.6C480.2,386.6,478.7,381,474.3,378.5z"/>
	</g>
</g>
<g>
	<g>
		<path class="st1" d="M54.7,115.9c-4.2-2.8-9.9-1.6-12.7,2.6c-10.4,15.8-19,32.7-25.7,50.4c-1.8,4.7,0.6,10,5.3,11.8
			c1.1,0.4,2.1,0.6,3.2,0.6c3.7,0,7.2-2.3,8.6-5.9c6.2-16.4,14.2-32.1,23.8-46.8C60.1,124.3,58.9,118.7,54.7,115.9z"/>
	</g>
</g>
<g>
	<g>
		<path class="st1" d="M207,17c-1.2-4.9-6.1-7.9-11-6.8c-7.3,1.8-14.6,3.9-21.8,6.3c-4.8,1.6-7.4,6.8-5.7,11.6
			c1.3,3.8,4.8,6.2,8.7,6.2c1,0,2-0.2,2.9-0.5c6.6-2.2,13.4-4.2,20.2-5.8C205.1,26.8,208.1,21.9,207,17z"/>
	</g>
</g>
<g>
	<g>
		<path class="st1" d="M26.2,320.2c-5.2-19.8-7.9-40.4-7.9-61c0-4,0.1-8,0.3-12c0.2-5-3.6-9.3-8.7-9.6c-5.1-0.3-9.3,3.6-9.6,8.7
			c-0.2,4.2-0.3,8.6-0.3,12.9c0,22.3,2.9,44.4,8.5,65.7c1.1,4.1,4.8,6.8,8.8,6.8c0.8,0,1.6-0.1,2.3-0.3
			C24.6,330.1,27.5,325.1,26.2,320.2z"/>
	</g>
</g>
<g>
	<g>
		<path class="st1" d="M286,4.9C276.1,3.7,266,3.1,256,3.1c0,0,0,0,0,0c-8.9,0-17.8,0.5-26.6,1.4c-5,0.5-8.7,5-8.2,10
			c0.5,5,5,8.7,10,8.2c8.1-0.8,16.5-1.3,24.7-1.3c0,0,0,0,0,0c9.3,0,18.7,0.5,27.8,1.6c0.4,0,0.7,0.1,1.1,0.1c4.6,0,8.5-3.4,9.1-8.1
			C294.6,10,291,5.4,286,4.9z"/>
	</g>
</g>
<g>
	<g>
		<path class="st1" d="M17.5,194.6c-4.9-1.1-9.8,1.9-11,6.9c-1.7,7.3-3.1,14.8-4.1,22.3c-0.7,5,2.8,9.6,7.8,10.3
			c0.4,0.1,0.8,0.1,1.3,0.1c4.5,0,8.4-3.3,9-7.9c1-6.9,2.2-13.9,3.8-20.7C25.5,200.6,22.4,195.7,17.5,194.6z"/>
	</g>
</g>
<g>
	<g>
		<path class="st1" d="M81.5,420.6c-11.9-12.9-22.4-27.1-31.2-42.2c-2.5-4.4-8.1-5.8-12.5-3.3c-4.4,2.5-5.9,8.1-3.3,12.5
			c9.5,16.3,20.8,31.6,33.6,45.5c1.8,1.9,4.3,2.9,6.7,2.9c2.2,0,4.4-0.8,6.2-2.4C84.7,430.1,85,424.3,81.5,420.6z"/>
	</g>
</g>
<g>
	<g>
		<path class="st1" d="M121.2,455c-5.7-4-11.4-8.2-16.8-12.7c-3.9-3.2-9.7-2.7-12.9,1.2c-3.2,3.9-2.7,9.7,1.2,12.9
			c5.8,4.8,11.9,9.4,18.1,13.7c1.6,1.1,3.4,1.6,5.2,1.6c2.9,0,5.8-1.4,7.5-4C126.4,463.5,125.4,457.8,121.2,455z"/>
	</g>
</g>
<g>
	<g>
		<path class="st1" d="M165.1,29.4c-2-4.6-7.4-6.7-12.1-4.7c-24.2,10.7-46.6,25-66.6,42.6c-3.8,3.3-4.1,9.1-0.8,12.9
			c1.8,2,4.3,3.1,6.9,3.1c2.2,0,4.3-0.8,6.1-2.3c18.5-16.4,39.3-29.7,61.8-39.6C165,39.4,167.1,34,165.1,29.4z"/>
	</g>
</g>
<g>
	<g>
		<path class="st1" d="M451.6,94c-4.9-5.7-10-11.4-15.4-16.6c-3.6-3.6-9.4-3.5-12.9,0.1c-3.6,3.6-3.5,9.4,0.1,12.9
			c5,4.9,9.8,10.1,14.3,15.5c1.8,2.1,4.4,3.2,7,3.2c2.1,0,4.2-0.7,5.9-2.2C454.4,103.6,454.9,97.9,451.6,94z"/>
	</g>
</g>
<g>
	<g>
		<path class="st1" d="M496.8,172.1c-6.4-17.7-14.8-34.8-25-50.7c-2.7-4.3-8.4-5.5-12.6-2.8c-4.3,2.7-5.5,8.4-2.8,12.6
			c9.5,14.8,17.3,30.6,23.2,47.1c1.3,3.7,4.9,6,8.6,6c1,0,2.1-0.2,3.1-0.5C496.1,182.1,498.5,176.8,496.8,172.1z"/>
	</g>
</g>
<g>
	<g>
		<path class="st1" d="M419.5,62.1c-20.4-17-43.3-30.6-67.8-40.5c-4.7-1.9-10,0.4-11.9,5.1c-1.9,4.7,0.4,10,5.1,11.9
			c22.8,9.2,44,21.8,63,37.6c1.7,1.4,3.8,2.1,5.8,2.1c2.6,0,5.2-1.1,7-3.3C423.9,71.1,423.4,65.3,419.5,62.1z"/>
	</g>
</g>
<g>
	<g>
		<path class="st1" d="M511.2,238.3c-0.4-5-4.8-8.8-9.8-8.4c-5,0.4-8.8,4.8-8.4,9.8c0.5,6.4,0.8,12.9,0.8,19.3
			c0,18.2-1.9,36.4-5.8,54.1c-1.1,4.9,2.1,9.8,7,10.9c0.7,0.1,1.3,0.2,1.9,0.2c4.2,0,8-2.9,8.9-7.2c4.1-18.9,6.2-38.4,6.2-58
			C512,252.2,511.7,245.2,511.2,238.3z"/>
	</g>
</g>
<g>
	<g>
		<path class="st1" d="M176.9,481.9c-20.5-6.4-34-13.6-37.6-15.6c-4.4-2.5-10-0.9-12.4,3.5c-2.5,4.4-0.9,10,3.5,12.4
			c5.2,2.9,19.5,10.3,41.1,17.1c0.9,0.3,1.8,0.4,2.7,0.4c3.9,0,7.5-2.5,8.7-6.4C184.4,488.5,181.8,483.4,176.9,481.9z"/>
	</g>
</g>
</svg>
