<?xml version="1.0" encoding="utf-8"?>
<!-- Generator: Adobe Illustrator 21.1.0, SVG Export Plug-In . SVG Version: 6.00 Build 0)  -->
<svg version="1.1" id="Capa_1" xmlns="http://www.w3.org/2000/svg" xmlns:xlink="http://www.w3.org/1999/xlink" x="0px" y="0px"
	 viewBox="0 0 512 512" style="enable-background:new 0 0 512 512;" xml:space="preserve">
<style type="text/css">
	.st0{fill:#55D4BE;}
	.st1{fill:#24BFB2;}
	.st2{fill:#F2EDEC;}
	.st3{fill:#FCE780;}
	.st4{fill:#FEE2CA;}
	.st5{fill:#FDD0AB;}
	.st6{fill:#FA892D;}
</style>
<path class="st0" d="M148.8,344H85.2c-11.7,0-21.2-9.5-21.2-21.2V149.2c0-11.7,9.5-21.2,21.2-21.2h63.6c11.7,0,21.2,9.5,21.2,21.2
	v173.6C169.9,334.5,160.5,344,148.8,344z"/>
<path class="st1" d="M85.2,312.2V128c-11.7,0-21.2,9.5-21.2,21.2v173.6c0,11.7,9.5,21.2,21.2,21.2h63.6c11.7,0,21.2-9.5,21.2-21.2
	H95.8C89.9,322.8,85.2,318.1,85.2,312.2z"/>
<circle class="st2" cx="117" cy="296.3" r="15.9"/>
<path class="st3" d="M456,153L456,153c0-14.6-11.9-26.5-26.5-26.5H296c0,0,11.3-13.9,16-46.5c8-56-12.1-77.5-32-79.9
	c-5-0.6-9.3,3.3-9.3,8.3c0,0-5,52.3-14.7,71.7c-24,48-86.1,72-86.1,72v170.6c0,0,14.1,15.8,42.4,15.8c67.7,0,196,0,196,0
	c14.6,0,26.5-11.9,26.5-26.5s-11.9-26.5-26.5-26.5h10.6c14.6,0,26.5-11.9,26.5-26.5l0,0c0-14.6-11.9-26.5-26.5-26.5h10.6
	c14.6,0,26.5-11.9,26.5-26.5l0,0c0-14.6-11.9-26.5-26.5-26.5C444.1,179.5,456,167.6,456,153z"/>
<path class="st4" d="M456,153L456,153c0-14.6-11.9-26.5-26.5-26.5H296c0,0,11.3-13.9,16-46.5c8-56-12.1-77.5-32-79.9
	c-5-0.6-9.3,3.3-9.3,8.3c0,0-5,52.3-14.7,71.7c-24,48-86.1,72-86.1,72v170.6c0,0,14.1,15.8,42.4,15.8c67.7,0,196,0,196,0
	c14.6,0,26.5-11.9,26.5-26.5s-11.9-26.5-26.5-26.5h10.6c14.6,0,26.5-11.9,26.5-26.5l0,0c0-14.6-11.9-26.5-26.5-26.5h10.6
	c14.6,0,26.5-11.9,26.5-26.5l0,0c0-14.6-11.9-26.5-26.5-26.5C444.1,179.5,456,167.6,456,153z"/>
<g>
	<path class="st5" d="M408.3,322.4c0,0-128.3,0-196,0c-28.3,0-42.4-15.8-42.4-15.8v16c0,0,14.1,15.8,42.4,15.8c67.7,0,196,0,196,0
		c14.6,0,26.5-11.9,26.5-26.5c0-2.8-0.4-5.5-1.2-8C430.2,314.6,420.2,322.4,408.3,322.4z"/>
	<path class="st5" d="M429.5,158.3H403v21.2h26.5c14.6,0,26.5-11.9,26.5-26.5l0,0c0-3.8-0.8-7.3-2.2-10.6
		C449.7,151.8,440.4,158.3,429.5,158.3z"/>
	<path class="st5" d="M429.5,211.3H403v21.2h26.5c14.6,0,26.5-11.9,26.5-26.5l0,0c0-3.8-0.8-7.3-2.2-10.6
		C449.7,204.7,440.4,211.3,429.5,211.3z"/>
	<path class="st5" d="M418.9,264.2H403v21.2h15.9c14.6,0,26.5-11.9,26.5-26.5l0,0c0-3.8-0.8-7.3-2.2-10.6
		C439.1,257.7,429.8,264.2,418.9,264.2z"/>
</g>
<g>
	<path class="st6" d="M321.5,420.1h-44.6l-13.8-42.4c-1-3.1-3.9-5.2-7.1-5.2s-6.1,2.1-7.1,5.2l-13.8,42.4h-44.6
		c-3.2,0-6.1,2.1-7.1,5.2c-1,3.1,0.1,6.5,2.7,8.4l36,26.2l-13.8,42.4c-1,3,0,6.3,2.5,8.2c2.6,2.1,6.4,2.1,9.1,0.2l36-26.2l36,26.2
		c2.8,2,6.8,1.9,9.4-0.5c2.2-2,3.1-5.1,2.2-7.9l-13.8-42.4l36-26.2c2.6-1.9,3.7-5.3,2.7-8.4C327.6,422.2,324.7,420.1,321.5,420.1z"
		/>
	<path class="st6" d="M511.1,425.3c-1-3.1-3.9-5.2-7.1-5.2h-44.6l-13.8-42.4c-1-3.1-3.9-5.2-7.1-5.2s-6.1,2.1-7.1,5.2l-13.8,42.4
		h-44.6c-3.2,0-6.1,2.1-7.1,5.2c-1,3.1,0.1,6.5,2.7,8.4l36,26.2L391,502.2c-1,3,0,6.3,2.5,8.2c2.6,2.1,6.4,2.1,9.1,0.2l36-26.2
		l36,26.2c2.8,2,6.8,1.9,9.4-0.5c2.2-2,3.1-5.1,2.2-7.9l-13.8-42.4l36-26.2C511,431.7,512.1,428.3,511.1,425.3z"/>
	<path class="st6" d="M138.9,420.1H94.3l-13.8-42.4c-1-3.1-3.9-5.2-7.1-5.2s-6.1,2.1-7.1,5.2l-13.8,42.4H8c-3.2,0-6.1,2.1-7.1,5.2
		c-1,3.1,0.1,6.5,2.7,8.4l36,26.2l-13.8,42.4c-1,3,0,6.3,2.5,8.2c2.6,2.1,6.4,2.1,9.1,0.2l36-26.2l36,26.2c2.8,2,6.8,1.9,9.4-0.5
		c2.2-2,3.1-5.1,2.2-7.9l-13.8-42.4l36-26.2c2.6-1.9,3.7-5.3,2.7-8.4C145,422.2,142.1,420.1,138.9,420.1z"/>
</g>
</svg>
