<?xml version="1.0" encoding="utf-8"?>
<!-- Generator: Adobe Illustrator 21.1.0, SVG Export Plug-In . SVG Version: 6.00 Build 0)  -->
<svg version="1.1" id="Capa_1" xmlns="http://www.w3.org/2000/svg" xmlns:xlink="http://www.w3.org/1999/xlink" x="0px" y="0px"
	 viewBox="0 0 512 512" style="enable-background:new 0 0 512 512;" xml:space="preserve">
<style type="text/css">
	.st0{fill:#FDD0AB;}
	.st1{fill:#FCC496;}
	.st2{fill:#FEE2CA;}
	.st3{fill:#E4DAD8;}
	.st4{fill:#D7C8C5;}
	.st5{fill:#956B64;}
	.st6{fill:#885951;}
	.st7{fill:#F79191;}
	.st8{fill:#F56C6C;}
	.st9{fill:#FCE780;}
</style>
<path class="st0" d="M184.9,457.3l-74.9-74.9c-8.1-8.1-8.1-21.2,0-29.2c8.1-8.1,21.2-8.1,29.2,0l81.7,81.7"/>
<path class="st1" d="M196.9,445.3l-74.9-74.9c-5.9-5.9-7.5-14.6-4.7-21.9c-2.7,1-5.2,2.6-7.3,4.7c-8.1,8.1-8.1,21.2,0,29.2
	l74.9,74.9l36.1-22.4l-2.8-2.8L196.9,445.3z"/>
<path class="st0" d="M222.9,436.8l-54.3-54.3c-8.1-8.1-8.1-21.2,0-29.2c8.1-8.1,21.2-8.1,29.2,0l79.9,79.9"/>
<path class="st1" d="M241.2,428.8l-54.3-54.3c-7.4-7.4-8-19.1-1.8-27.2c-5.9-0.6-12,1.4-16.6,6c-8.1,8.1-8.1,21.2,0,29.2l54.3,54.3
	l54.8-3.7l-6.4-6.4L241.2,428.8z"/>
<path class="st0" d="M275.7,431.5l-47.9-48c-8.1-8.1-8.1-21.2,0-29.2s21.2-8.1,29.2,0l47,47"/>
<path class="st1" d="M243.7,371.2c-6.1-6.1-7.6-15.1-4.4-22.7c-4.2,0.6-8.3,2.5-11.6,5.8c-8.1,8.1-8.1,21.2,0,29.2l48,48l13.7-14.6
	L243.7,371.2z"/>
<g>
	<path class="st2" d="M274,371.7l-29.2,29.2l-95,21.9l-51.2-51.2c-7.9-7.9-20.9-8.5-29.1-0.9c-8.6,8-8.7,21.5-0.5,29.7l80.8,80.8
		h131.5l73.1-14.6l39.9,39.9c3.1,3.1,8.2,3.1,11.3,0l54.4-54.4c3.1-3.1,3.1-8.2,0-11.3l-69.1-69.1
		C358.6,339.4,306.3,339.4,274,371.7z"/>
	<path class="st2" d="M166.7,400l77.8,0.6v41.3l-78.1-0.6c-11.4-0.1-20.6-9.4-20.5-20.8S155.3,399.9,166.7,400z"/>
</g>
<g>
	<path class="st0" d="M244.5,424.9v17l-78.1-0.6c-9.9-0.1-18.1-7.1-20.1-16.4L244.5,424.9z"/>
	<path class="st0" d="M69,371.3l88.1,88.1h131.5l74.6-20.3c3.6-1,7.4,0,10,2.7l48.6,48.6l-16.3,16.3c-3.1,3.1-8.2,3.1-11.3,0
		l-39.9-39.9l-73.1,14.6H149.8L69,400.5C60.9,392.4,61,379.3,69,371.3z"/>
</g>
<path class="st3" d="M420,135.1c-43.8-43.8-102.1-68-164-68s-120.2,24.1-164,68s-68,102.1-68,164c0,4.4,3.6,8,8,8h448
	c4.4,0,8-3.6,8-8C488,237.2,463.9,178.9,420,135.1z"/>
<path class="st4" d="M48,299.1c0-62,24.1-120.2,68-164c41-41,94.6-64.7,152-67.6c-4-0.2-8-0.3-12-0.3c-62,0-120.2,24.1-164,68
	s-68,102.1-68,164c0,4.4,3.6,8,8,8h24C51.6,307.1,48,303.6,48,299.1z"/>
<path class="st5" d="M504,291.1H8c-4.4,0-8,3.6-8,8v32c0,4.4,3.6,8,8,8h496c4.4,0,8-3.6,8-8v-32C512,294.7,508.4,291.1,504,291.1z"
	/>
<path class="st6" d="M24,331.1v-32c0-4.4,3.6-8,8-8H8c-4.4,0-8,3.6-8,8v32c0,4.4,3.6,8,8,8h24C27.6,339.1,24,335.6,24,331.1z"/>
<path class="st7" d="M256,3.2c-17.6,0-32,14.4-32,32s14.4,32,32,32s32-14.4,32-32S273.6,3.2,256,3.2z"/>
<path class="st8" d="M272,59.2c-17.6,0-32-14.4-32-32c0-9.3,4-17.6,10.3-23.5C235.4,6.4,224,19.5,224,35.2c0,17.6,14.4,32,32,32
	c8.4,0,16-3.2,21.7-8.5C275.9,59,274,59.2,272,59.2z"/>
<g>
	<path class="st9" d="M504,115.2c-4,0-16,0-16-24c0-4.4-3.6-8-8-8s-8,3.6-8,8c0,24-12,24-16,24c-4.4,0-8,3.6-8,8s3.6,8,8,8
		c4,0,16,0,16,24c0,4.4,3.6,8,8,8s8-3.6,8-8c0-24,12-24,16-24c4.4,0,8-3.6,8-8S508.4,115.2,504,115.2z"/>
	<path class="st9" d="M408,43.2c-4,0-16,0-16-24c0-4.4-3.6-8-8-8s-8,3.6-8,8c0,24-12,24-16,24c-4.4,0-8,3.6-8,8s3.6,8,8,8
		c4,0,16,0,16,24c0,4.4,3.6,8,8,8s8-3.6,8-8c0-24,12-24,16-24c4.4,0,8-3.6,8-8S412.4,43.2,408,43.2z"/>
	<path class="st9" d="M152,43.2c-4,0-16,0-16-24c0-4.4-3.6-8-8-8s-8,3.6-8,8c0,24-12,24-16,24c-4.4,0-8,3.6-8,8s3.6,8,8,8
		c4,0,16,0,16,24c0,4.4,3.6,8,8,8s8-3.6,8-8c0-24,12-24,16-24c4.4,0,8-3.6,8-8S156.4,43.2,152,43.2z"/>
	<path class="st9" d="M56,115.2c-4,0-16,0-16-24c0-4.4-3.6-8-8-8s-8,3.6-8,8c0,24-12,24-16,24c-4.4,0-8,3.6-8,8s3.6,8,8,8
		c4,0,16,0,16,24c0,4.4,3.6,8,8,8s8-3.6,8-8c0-24,12-24,16-24c4.4,0,8-3.6,8-8S60.4,115.2,56,115.2z"/>
</g>
</svg>
