<?xml version="1.0" encoding="utf-8"?>
<!-- Generator: Adobe Illustrator 21.1.0, SVG Export Plug-In . SVG Version: 6.00 Build 0)  -->
<svg version="1.1" id="Calque_1" xmlns="http://www.w3.org/2000/svg" xmlns:xlink="http://www.w3.org/1999/xlink" x="0px" y="0px"
	 viewBox="0 0 3203.2 566" style="enable-background:new 0 0 3203.2 566;" xml:space="preserve">
<style type="text/css">
	.st0{fill:#3F3F3F;}
	.st1{fill:url(#SVGID_1_);}
	.st2{fill:url(#SVGID_2_);}
	.st3{fill:url(#SVGID_3_);}
	.st4{fill:url(#SVGID_4_);}
	.st5{fill:#FBA761;}
	.st6{fill:#FA892D;}
	.st7{fill:#F56C6C;}
	.st8{fill:#DB4D4D;}
	.st9{fill:#A27E77;}
	.st10{fill:#956B64;}
	.st11{fill:#FBDC40;}
	.st12{fill:#FAD000;}
	.st13{fill:#E4DAD8;}
	.st14{fill:#B9CC29;}
	.st15{fill:#A4BA29;}
</style>
<g id="Calque_2_1_">
	<g>
		<path class="st0" d="M503.7,199.6l-80.4,336.3H322.5l-53.8-225l-54.2,225H113.6L33.2,199.6h88.5L165,443.2l59-243.6h89l59,243.6
			l43.8-243.6H503.7z"/>
		<path class="st0" d="M1086.3,417.9H902.2c1,20,6,34.3,15.2,43s20.9,13.1,35.2,13.1c12,0,22-3,30-9c7.9-6,13.2-13.8,15.7-23.3h86.1
			c-3.5,18.7-11.1,35.4-22.8,50.2c-11.7,14.7-26.6,26.3-44.7,34.7c-18.1,8.4-38.2,12.6-60.4,12.6c-26,0-49.1-5.5-69.2-16.4
			c-20.1-10.9-35.9-26.7-47.3-47.3c-11.4-20.6-17.1-44.7-17.1-72.3c0-27.9,5.6-52.1,16.9-72.5c11.3-20.5,27-36.2,47.3-47.1
			s43.4-16.4,69.5-16.4c26.3,0,49.5,5.4,69.5,16.2c20,10.8,35.4,25.9,46.4,45.4c10.9,19.5,16.4,41.9,16.4,67.3
			C1088.6,402.7,1087.9,410,1086.3,417.9z M992.3,344.5c-9.7-8.7-21.6-13.1-35.9-13.1c-14.9,0-27.3,4.4-37.1,13.3
			s-15.4,21.9-16.7,39h103.7C1006.7,366.3,1002,353.2,992.3,344.5z"/>
		<path class="st0" d="M1380.7,417.9h-184.1c1,20,6,34.3,15.2,43s20.9,13.1,35.2,13.1c12,0,22-3,30-9c7.9-6,13.2-13.8,15.7-23.3
			h86.1c-3.5,18.7-11.1,35.4-22.8,50.2c-11.7,14.7-26.6,26.3-44.7,34.7s-38.2,12.6-60.4,12.6c-26,0-49.1-5.5-69.2-16.4
			c-20.1-10.9-35.9-26.7-47.3-47.3c-11.4-20.6-17.1-44.7-17.1-72.3c0-27.9,5.6-52.1,16.9-72.5c11.3-20.5,27-36.2,47.3-47.1
			s43.4-16.4,69.5-16.4c26.3,0,49.5,5.4,69.5,16.2c20,10.8,35.4,25.9,46.4,45.4c10.9,19.5,16.4,41.9,16.4,67.3
			C1383.1,402.7,1382.3,410,1380.7,417.9z M1286.8,344.5c-9.7-8.7-21.6-13.1-35.9-13.1c-14.9,0-27.3,4.4-37.1,13.3
			c-9.8,8.9-15.4,21.9-16.7,39h103.7C1301.1,366.3,1296.4,353.2,1286.8,344.5z"/>
		<path class="st0" d="M1506.8,183.9v352h-81.3v-352L1506.8,183.9L1506.8,183.9z"/>
		<linearGradient id="SVGID_1_" gradientUnits="userSpaceOnUse" x1="2006" y1="367.75" x2="3234.2346" y2="367.75">
			<stop  offset="0" style="stop-color:#FF6479"/>
			<stop  offset="1" style="stop-color:#FE997D"/>
		</linearGradient>
		<path class="st1" d="M2257.9,199.6v64.7h-138V338h106.6v61.8H2120v136.1h-81.3V199.6H2257.9z"/>
		<linearGradient id="SVGID_2_" gradientUnits="userSpaceOnUse" x1="2006" y1="403.1994" x2="3234.2346" y2="403.1994">
			<stop  offset="0" style="stop-color:#FF6479"/>
			<stop  offset="1" style="stop-color:#FE997D"/>
		</linearGradient>
		<path class="st2" d="M2494.6,283.6c20.8,10.9,37.1,26.7,49,47.3c11.9,20.6,17.8,44.7,17.8,72.3s-5.9,51.7-17.8,72.3
			c-11.9,20.6-28.2,36.4-49,47.3c-20.8,10.9-44.3,16.4-70.6,16.4s-49.9-5.5-70.9-16.4c-20.9-10.9-37.3-26.7-49.2-47.3
			c-11.9-20.6-17.8-44.7-17.8-72.3c0-27.6,5.9-51.7,17.8-72.3c11.9-20.6,28.3-36.4,49.2-47.3s44.6-16.4,70.9-16.4
			C2450.3,267.1,2473.8,272.6,2494.6,283.6z M2384.7,354.4c-10.6,11.3-15.9,27.5-15.9,48.8s5.3,37.4,15.9,48.5
			c10.6,11.1,23.7,16.7,39.2,16.7s28.5-5.5,39-16.7c10.5-11.1,15.7-27.3,15.7-48.5s-5.2-37.5-15.7-48.8s-23.5-16.9-39-16.9
			C2408.4,337.6,2395.3,343.2,2384.7,354.4z"/>
		<linearGradient id="SVGID_3_" gradientUnits="userSpaceOnUse" x1="2006" y1="403.1994" x2="3234.2346" y2="403.1994">
			<stop  offset="0" style="stop-color:#FF6479"/>
			<stop  offset="1" style="stop-color:#FE997D"/>
		</linearGradient>
		<path class="st3" d="M2798.5,283.6c20.8,10.9,37.1,26.7,49,47.3c11.9,20.6,17.8,44.7,17.8,72.3s-5.9,51.7-17.8,72.3
			c-11.9,20.6-28.2,36.4-49,47.3c-20.8,10.9-44.3,16.4-70.6,16.4s-49.9-5.5-70.9-16.4c-20.9-10.9-37.3-26.7-49.2-47.3
			c-11.9-20.6-17.8-44.7-17.8-72.3c0-27.6,5.9-51.7,17.8-72.3c11.9-20.6,28.3-36.4,49.2-47.3s44.6-16.4,70.9-16.4
			C2754.2,267.1,2777.8,272.6,2798.5,283.6z M2688.7,354.4c-10.6,11.3-15.9,27.5-15.9,48.8s5.3,37.4,15.9,48.5
			c10.6,11.1,23.7,16.7,39.2,16.7s28.5-5.5,39-16.7c10.5-11.1,15.7-27.3,15.7-48.5s-5.2-37.5-15.7-48.8s-23.5-16.9-39-16.9
			C2712.4,337.6,2699.3,343.2,2688.7,354.4z"/>
		<linearGradient id="SVGID_4_" gradientUnits="userSpaceOnUse" x1="2006" y1="361.6" x2="3234.2346" y2="361.6">
			<stop  offset="0" style="stop-color:#FF6479"/>
			<stop  offset="1" style="stop-color:#FE997D"/>
		</linearGradient>
		<path class="st4" d="M3060.9,280.9c14.6,9.2,25.2,21.7,31.9,37.6V183.9h81.3v352h-81.3v-48c-6.7,15.9-17.3,28.4-31.9,37.6
			c-14.6,9.2-32,13.8-52.3,13.8c-21.9,0-41.5-5.5-58.8-16.4c-17.3-10.9-30.9-26.7-40.9-47.3c-10-20.6-15-44.7-15-72.3
			c0-27.9,5-52.1,15-72.5c10-20.5,23.6-36.2,40.9-47.1c17.3-10.9,36.9-16.4,58.8-16.4C3028.8,267.1,3046.3,271.8,3060.9,280.9z
			 M2992.6,355.6c-10.6,11.4-15.9,27.3-15.9,47.6c0,20.3,5.3,36.2,15.9,47.6c10.6,11.4,24.7,17.1,42.1,17.1
			c17.1,0,31.2-5.9,42.1-17.6c10.9-11.7,16.4-27.4,16.4-47.1c0-20-5.5-35.8-16.4-47.3c-10.9-11.6-25-17.4-42.1-17.4
			C3017.3,338.5,3003.2,344.2,2992.6,355.6z"/>
	</g>
</g>
<g>
	<path class="st0" d="M772.8,297.9c17.9,20.3,26.8,48.1,26.8,83.6v153.9h-81.2V391c0-17.7-4.7-31.6-14-41.6s-21.8-15-37.3-15
		c-16.5,0-29.5,5.2-39.2,15.7s-14.5,25.3-14.5,44.7v140.6h-81.2V183.9h81.2v134.9c7.6-15.8,18.9-28.3,34-37.5
		c15-9.2,32.7-13.8,53-13.8C730.8,267.5,754.9,277.6,772.8,297.9z"/>
</g>
<path class="st5" d="M1917.7,525.5h-288.6c-26.6,0-48.1-21.5-48.1-48.1v-32.1h384.8v32.1C1965.8,504,1944.3,525.5,1917.7,525.5z"/>
<path class="st6" d="M1613.1,477.4v-32.1H1581v32.1c0,26.6,21.5,48.1,48.1,48.1h32.1C1634.6,525.5,1613.1,504,1613.1,477.4z"/>
<path class="st5" d="M1965.8,277H1581v-24c0-35.4,28.7-64.1,64.1-64.1h256.5c35.4,0,64.1,28.7,64.1,64.1L1965.8,277L1965.8,277z"/>
<path class="st6" d="M1677.2,188.8h-32.1c-35.4,0-64.1,28.7-64.1,64.1v24h32.1v-24C1613.1,217.5,1641.8,188.8,1677.2,188.8z"/>
<path class="st7" d="M1957.8,397.2H1589c-13.3,0-24-10.8-24-24l0,0c0-13.3,10.8-24,24-24h368.7c13.3,0,24,10.8,24,24l0,0
	C1981.8,386.5,1971,397.2,1957.8,397.2z"/>
<path class="st8" d="M1597.1,373.2L1597.1,373.2c0-13.3,10.8-24,24-24H1589c-13.3,0-24,10.8-24,24l0,0c0,13.3,10.8,24,24,24h32.1
	C1607.8,397.2,1597.1,386.5,1597.1,373.2z"/>
<path class="st9" d="M1957.8,325.1H1589c-13.3,0-24-10.8-24-24l0,0c0-13.3,10.8-24,24-24h368.7c13.3,0,24,10.8,24,24l0,0
	C1981.8,314.3,1971,325.1,1957.8,325.1z"/>
<path class="st10" d="M1597.1,301L1597.1,301c0-13.3,10.8-24,24-24H1589c-13.3,0-24,10.8-24,24l0,0c0,13.3,10.8,24,24,24h32.1
	C1607.8,325.1,1597.1,314.3,1597.1,301z"/>
<path class="st9" d="M1957.8,445.3H1589c-13.3,0-24-10.8-24-24l0,0c0-13.3,10.8-24,24-24h368.7c13.3,0,24,10.8,24,24l0,0
	C1981.8,434.6,1971,445.3,1957.8,445.3z"/>
<path class="st10" d="M1597.1,421.3L1597.1,421.3c0-13.3,10.8-24,24-24H1589c-13.3,0-24,10.8-24,24l0,0c0,13.3,10.8,24,24,24h32.1
	C1607.8,445.3,1597.1,434.6,1597.1,421.3z"/>
<polygon class="st11" points="1773.4,469.4 1941.7,397.2 1605.1,397.2 "/>
<polygon class="st12" points="1661.2,397.2 1605.1,397.2 1773.4,469.4 1801.5,457.4 "/>
<polygon class="st13" points="1773.4,52.6 1645.2,52.6 1669.2,92.6 1645.2,132.7 1773.4,132.7 "/>
<path class="st14" d="M1605.1,325.1v24c21.4,0,21.4,24,42.8,24c21.4,0,21.4-16,42.7-16c21.4,0,21.4,16,42.7,16
	c21.4,0,21.4-16,42.8-16s21.4,16,42.8,16c21.4,0,21.4-16,42.7-16c21.4,0,21.4,16,42.7,16s24-24,45.4-24v-24H1605.1z"/>
<rect x="1605.1" y="325.1" class="st15" width="344.7" height="24"/>
<path class="st0" d="M1965.8,455.8c-4.2,0-7.5,3.4-7.5,7.5v14c0,22.4-18.2,40.6-40.6,40.6h-288.6c-22.4,0-40.6-18.2-40.6-40.6v-14
	c0-4.1-3.4-7.5-7.5-7.5s-7.5,3.4-7.5,7.5v14c0,30.7,24.9,55.6,55.6,55.6h288.6c30.7,0,55.6-24.9,55.6-55.6v-14
	C1973.3,459.2,1969.9,455.8,1965.8,455.8z"/>
<path class="st0" d="M1581,265.5c4.2,0,7.5-3.4,7.5-7.5v-5c0-31.2,25.4-56.6,56.6-56.6h256.5c31.2,0,56.6,25.4,56.6,56.6v5
	c0,4.2,3.4,7.5,7.5,7.5s7.5-3.4,7.5-7.5v-5c0-39.5-32.1-71.6-71.6-71.6h-120.7V28.5c0-4.1-3.4-7.5-7.5-7.5s-7.5,3.4-7.5,7.5V45
	h-120.7c-5.7,0-9.4,6.5-6.4,11.4l21.7,36.2l-21.7,36.2c-3,4.9,0.7,11.4,6.4,11.4h120.7v41.1h-120.7c-39.5,0-71.6,32.1-71.6,71.6v5
	C1573.5,262.1,1576.9,265.5,1581,265.5z M1658.4,125.2l17.2-28.7c1.4-2.4,1.4-5.4,0-7.7l-17.2-28.7h107.5v65.1H1658.4z"/>
<path class="st0" d="M1989.3,373.2c0-17.4-14.2-31.6-31.6-31.6h-0.5v-9h0.5c17.4,0,31.6-14.2,31.6-31.6s-14.2-31.6-31.6-31.6h-63.1
	c-4.2,0-7.5,3.4-7.5,7.5s3.4,7.5,7.5,7.5h63.1c9.1,0,16.5,7.4,16.5,16.5s-7.4,16.5-16.5,16.5H1589c-9.1,0-16.5-7.4-16.5-16.5
	s7.4-16.5,16.5-16.5h268.5c4.2,0,7.5-3.4,7.5-7.5c0-4.1-3.4-7.5-7.5-7.5H1589c-17.4,0-31.6,14.2-31.6,31.6s14.2,31.6,31.6,31.6h8.5
	v9h-8.5c-17.4,0-31.6,14.2-31.6,31.6c0,9.6,4.3,18.3,11.2,24c-6.8,5.8-11.2,14.4-11.2,24c0,17.4,14.2,31.6,31.6,31.6h125.7
	c0.3,0,0.6,0,0.8,0l54.8,23.5c1.9,0.8,4,0.8,5.9,0l54.7-23.5c0.1,0,0.3,0,0.4,0h126.2c17.4,0,31.6-14.2,31.6-31.6
	c0-9.6-4.3-18.3-11.2-24C1985,391.4,1989.3,382.8,1989.3,373.2z M1942.2,332.6v9.9c-9.3,2.2-15.4,8.3-20.5,13.4
	c-6.3,6.3-10.2,9.8-17.4,9.8c-8.2,0-11.8-2.7-16.9-6.5c-5.7-4.2-12.7-9.5-25.9-9.5c-13.2,0-20.2,5.3-25.9,9.5
	c-5,3.8-8.7,6.5-16.9,6.5c-8.2,0-11.8-2.7-16.9-6.5c-5.7-4.2-12.7-9.5-25.9-9.5s-20.2,5.3-25.9,9.5c-5,3.8-8.7,6.5-16.9,6.5
	c-8.2,0-11.8-2.7-16.9-6.5c-5.7-4.2-12.7-9.5-25.9-9.5s-20.2,5.3-25.9,9.5c-5,3.8-8.7,6.5-16.9,6.5c-7,0-10.4-3.4-15.8-9.5
	c-4.6-5.2-10.2-11.4-19.5-13.7v-9.9L1942.2,332.6L1942.2,332.6z M1589,437.8c-9.1,0-16.5-7.4-16.5-16.5s7.4-16.5,16.5-16.5h14.5
	l77.2,33.1L1589,437.8L1589,437.8z M1773.4,461.2l-131.7-56.5h263.4L1773.4,461.2z M1974.3,421.3c0,9.1-7.4,16.5-16.5,16.5h-91.6
	l77.2-33.1h14.5C1966.9,404.8,1974.3,412.2,1974.3,421.3z M1589,389.7c-9.1,0-16.5-7.4-16.5-16.5s7.4-16.5,16.5-16.5h16
	c7,0,10.4,3.4,15.8,9.5c5.8,6.5,12.9,14.5,27,14.5c13.2,0,20.2-5.3,25.9-9.5c5-3.8,8.7-6.5,16.9-6.5s11.8,2.7,16.9,6.5
	c5.7,4.2,12.7,9.5,25.9,9.5c13.2,0,20.2-5.3,25.9-9.5c5-3.8,8.7-6.5,16.9-6.5s11.8,2.7,16.9,6.5c5.7,4.2,12.7,9.5,25.9,9.5
	c13.2,0,20.2-5.3,25.9-9.5c5-3.8,8.7-6.5,16.9-6.5c8.2,0,11.8,2.7,16.9,6.5c5.7,4.2,12.7,9.5,25.9,9.5c13.8,0,21.7-7.9,28-14.2
	c6.3-6.3,10.2-9.8,17.4-9.8c0.2,0,0.3,0,0.5,0c0.2,0,0.3,0,0.5,0h7c9.1,0,16.5,7.4,16.5,16.5s-7.4,16.5-16.5,16.5H1589z"/>
<circle class="st0" cx="1773.4" cy="220.4" r="7.5"/>
<circle class="st0" cx="1822" cy="244.4" r="7.5"/>
<circle class="st0" cx="1917.2" cy="244.4" r="7.5"/>
<circle class="st0" cx="1629.6" cy="244.4" r="7.5"/>
<circle class="st0" cx="1725.8" cy="244.4" r="7.5"/>
<circle class="st0" cx="1870.1" cy="220.4" r="7.5"/>
<circle class="st0" cx="1676.7" cy="220.4" r="7.5"/>
</svg>
