<?xml version="1.0" encoding="utf-8"?>
<!-- Generator: Adobe Illustrator 21.1.0, SVG Export Plug-In . SVG Version: 6.00 Build 0)  -->
<svg version="1.1" id="Capa_1" xmlns="http://www.w3.org/2000/svg" xmlns:xlink="http://www.w3.org/1999/xlink" x="0px" y="0px"
	 viewBox="0 0 299.2 299.2" style="enable-background:new 0 0 299.2 299.2;" xml:space="preserve">
<style type="text/css">
	.st0{fill:#84BD93;}
	.st1{fill:#EF8829;}
	.st2{fill:#3F2D20;}
</style>
<g>
	<g>
		<path class="st0" d="M177.3,16c-0.1,0-0.2,0-0.3,0C177,16,177.1,16,177.3,16z"/>
		<path class="st0" d="M186.6,19.2c0.2,0.1,0.3,0.3,0.5,0.4C186.9,19.5,186.8,19.4,186.6,19.2z"/>
		<path class="st0" d="M194,27.1c0.2,0.2,0.3,0.5,0.5,0.7C194.4,27.6,194.2,27.3,194,27.1z"/>
		<path class="st0" d="M189,21.2c-0.1-0.1-0.2-0.2-0.3-0.3C188.8,21,188.9,21.1,189,21.2z"/>
		<path class="st0" d="M192.6,25.1c0.1,0.2,0.3,0.4,0.4,0.6C192.8,25.5,192.7,25.3,192.6,25.1z"/>
		<path class="st0" d="M184.3,17.9c0.1,0.1,0.3,0.1,0.4,0.2C184.6,18,184.4,17.9,184.3,17.9z"/>
		<path class="st0" d="M190.6,22.8c0.2,0.2,0.4,0.4,0.5,0.6C190.9,23.1,190.8,23,190.6,22.8z"/>
		<path class="st0" d="M93.8,255.1c1.4,1.6,2.8,3.2,4.3,4.6C96.7,258.3,95.2,256.8,93.8,255.1z"/>
		<path class="st0" d="M102.8,263.9c-1.3-1.1-2.5-2.2-3.8-3.4C100.2,261.7,101.5,262.8,102.8,263.9z"/>
		<path class="st0" d="M182,16.9c0.2,0.1,0.3,0.1,0.5,0.2C182.4,17,182.2,16.9,182,16.9z"/>
		<path class="st0" d="M258.6,172.2c-3.3-20.9-17.1-47.5-30.4-73.2c-9.8-18.9-19.9-38.4-26.6-56.8c-1.6-4.3-3.9-9.5-6.9-14.2
			c-3.8-2.1-8.3-2.7-13.4-0.9c-1.8,0.6-3.5,1.1-6.6,0c-16.4-5.6-26,13.3-30.3,25.1c-6.7,18.4-16.8,37.9-26.6,56.8
			c-13.3,25.7-27.1,52.3-30.4,73.2c-5.5,34.9-0.2,61.5,15.6,80.9c21.1,17.3,48.5,19.4,64.3,19.4c0.3,0,1.3,0,1.5,0
			c18.1,0,51.7-3,73.3-28.2C258.6,234.9,264.2,207.8,258.6,172.2z M207.5,232.1c-10,9.3-23.9,14.4-40.2,14.4c0,0-0.3,0-0.3,0
			c-16.3,0-30.2-5.1-40.2-14.4c-12.3-11.3-18.5-28.6-18.5-51.2c0-16.7,6.7-35.9,17.8-52.2c12.1-17.6,27-27.2,40.9-27.2
			c0,0,0.2,0,0.3,0c13.9,0,28.8,9.6,40.8,27.2c11.2,16.3,17.8,35.8,17.8,52.5C226,203.8,219.8,220.8,207.5,232.1z"/>
		<path class="st0" d="M179.4,16.2c0.2,0,0.3,0,0.5,0.1C179.7,16.3,179.5,16.2,179.4,16.2z"/>
		<path class="st0" d="M173.9,16.4c0.2,0,0.4-0.1,0.6-0.1C174.2,16.3,174.1,16.3,173.9,16.4z"/>
	</g>
	<g>
		<path class="st0" d="M107.8,65.4c0.3-0.6,0.6-1.3,0.9-1.9C108.4,64.2,108.1,64.8,107.8,65.4z"/>
		<path class="st0" d="M91.7,274.1c0.4,0.4,0.8,0.8,1.3,1.1C92.5,274.9,92.1,274.5,91.7,274.1z"/>
		<path class="st0" d="M94.3,92c2.4-4.7,4.8-9.3,7.2-14c0,0,0,0,0,0.1c-4.1,6.4-8.4,12.7-12.7,19c-17.6,25.9-35.7,52.6-39.1,77.2
			c-4.7,34.2,1.3,61.2,17.8,80.1c6.1,6.9,13,12.3,20.4,16.4c0.2,0.2,0.4,0.4,0.7,0.6c-2.1-2-4.2-4.2-6.1-6.4
			c-19.6-23-26.4-54.9-20-95C66,146.5,79.8,120.1,94.3,92z"/>
		<path class="st0" d="M117.9,43c-0.2,0.6-0.5,1.2-0.7,1.8C117.4,44.2,117.6,43.6,117.9,43z"/>
		<path class="st0" d="M104.6,71.9c0.3-0.6,0.6-1.3,0.9-1.9C105.3,70.7,104.9,71.3,104.6,71.9z"/>
		<path class="st0" d="M115.2,49.3c-0.3,0.6-0.5,1.2-0.8,1.8C114.7,50.5,115,49.9,115.2,49.3z"/>
		<path class="st0" d="M111.7,57.3C111.7,57.3,111.7,57.3,111.7,57.3C111.7,57.3,111.7,57.3,111.7,57.3z"/>
	</g>
	<g>
		<path class="st1" d="M124.5,195.5c-0.1-0.4-0.1-0.9-0.2-1.3C124.4,194.7,124.4,195.1,124.5,195.5z"/>
		<path class="st1" d="M123.7,189.2c0-0.4-0.1-0.9-0.1-1.3C123.6,188.3,123.7,188.7,123.7,189.2z"/>
		<path class="st1" d="M124.1,192.5c-0.1-0.4-0.1-0.9-0.2-1.3C123.9,191.6,124,192,124.1,192.5z"/>
		<path class="st1" d="M125.1,198.4c-0.1-0.4-0.2-0.9-0.3-1.3C124.9,197.6,125,198,125.1,198.4z"/>
		<path class="st1" d="M162.7,132.8c-0.3,0-0.6,0-1,0C162.1,132.8,162.4,132.8,162.7,132.8z"/>
		<path class="st1" d="M201.9,147.1c0.1,0.3,0.3,0.6,0.4,0.9C202.2,147.7,202.1,147.4,201.9,147.1z"/>
		<path class="st1" d="M198.7,141.3c0.2,0.4,0.4,0.7,0.6,1.1C199.1,142,198.9,141.6,198.7,141.3z"/>
		<path class="st1" d="M123.5,185.6c0-0.4,0-0.8-0.1-1.1C123.4,184.8,123.4,185.2,123.5,185.6z"/>
		<path class="st1" d="M160,133.2c0.4-0.1,0.9-0.2,1.3-0.3C160.9,132.9,160.5,133,160,133.2z"/>
		<path class="st1" d="M125.8,201.2c-0.1-0.4-0.2-0.8-0.3-1.2C125.6,200.4,125.7,200.8,125.8,201.2z"/>
		<path class="st1" d="M132.3,215.5c-0.3-0.4-0.5-0.8-0.8-1.1C131.8,214.7,132,215.1,132.3,215.5z"/>
		<path class="st1" d="M133.6,217.2c-0.3-0.4-0.6-0.7-0.9-1.1C133,216.4,133.3,216.8,133.6,217.2z"/>
		<path class="st1" d="M134.9,218.7c-0.3-0.4-0.7-0.8-1-1.2C134.3,218,134.6,218.4,134.9,218.7z"/>
		<path class="st1" d="M203.3,150c-8.9-12.6-19.5-20.4-28-20.5c-3.5,0-7.3,1.3-11,3.5c-0.4-0.1-0.8-0.2-1.2-0.2
			c2.9,0.3,5.4,2.2,6.4,5.1c1.3,3.9-0.9,8.2-4.8,9.5c-5.5,1.8-14,17-14,23.2c0,4.2-3.4,7.5-7.5,7.5c-4.2,0-7.5-3.4-7.5-7.5
			c0,0.5,0.1,1,0.2,1.5c-2.7,7.7-4.3,15.5-4.3,22.9c0,9.5,1.3,17.3,3.4,23.7c8.7,9.6,21.1,12.3,32.2,12.4c20,0,43.8-8.8,43.8-50.3
			C210.9,171.4,208.1,160.4,203.3,150z"/>
		<path class="st1" d="M127.9,207.4c-0.3-0.7-0.6-1.4-0.8-2.2C127.3,206,127.6,206.7,127.9,207.4z"/>
		<path class="st1" d="M128.9,209.6c-0.2-0.4-0.4-0.8-0.6-1.3C128.5,208.8,128.7,209.2,128.9,209.6z"/>
		<path class="st1" d="M126.5,203.8c-0.1-0.4-0.2-0.8-0.4-1.2C126.3,203,126.4,203.4,126.5,203.8z"/>
		<path class="st1" d="M131.1,213.6c-0.2-0.4-0.5-0.8-0.7-1.2C130.6,212.9,130.8,213.3,131.1,213.6z"/>
		<path class="st1" d="M129.9,211.7c-0.2-0.4-0.4-0.8-0.7-1.2C129.5,210.9,129.7,211.3,129.9,211.7z"/>
	</g>
	<path class="st2" d="M167.3,100.3c0,0-0.3,0-0.3,0c-13.9,0.1-28.8,10.2-40.9,27.8c-11.2,16.3-17.8,36-17.8,52.8
		c0,22.6,6.2,39.8,18.5,51.1c10,9.3,23.9,14.2,40.2,14.2c0,0,0.3,0,0.3,0c16.3,0,30.2-5,40.2-14.2c12.3-11.3,18.5-28.5,18.5-51.1
		c0-16.7-6.7-36.5-17.8-52.8C196.1,110.5,181.2,100.4,167.3,100.3z M123.3,180.8c0-28.8,24.5-65.5,43.8-65.5
		c8.7,0,19.6,8.2,28.6,21.3c9.4,13.7,15.2,30.6,15.2,44.3c0,41.5-23.8,50.2-43.8,50.3C147.1,231.1,123.3,222.3,123.3,180.8z"/>
	<path class="st2" d="M160,133.2c-13,4.3-24.3,26.4-24.3,37.5c0,4.2,3.4,7.5,7.5,7.5s7.5-3.4,7.5-7.5c0-6.3,8.5-21.4,14-23.2
		c3.9-1.3,6.1-5.5,4.8-9.5C168.2,134,164,131.9,160,133.2z"/>
	<path class="st2" d="M273.5,169.9c-3.7-23.3-17.4-49.8-32-77.8c-9.6-18.5-19.5-37.5-25.9-55C205.5,9.2,187.7-3.6,167.9,2.3
		c-19.8-6.1-54.8-2.1-70.2,34.4c-7,16.5-18.7,33.7-31,51.9c-18.5,27.3-37.7,55.5-41.6,83.6c-5.3,38.7,1.9,69.7,21.3,92
		c26.5,30.4,67.1,35,88.9,35c0,0,12.5,0.2,17.8-0.6c4.5,0.4,9.2,0.6,13.9,0.6c0.3,0,1.3,0,1.5,0c35.8,0,65.9-12.2,84.7-34.3
		C273,242,279.8,210,273.5,169.9z M168.7,284.1c-0.3,0-1.3,0-1.5,0c-18.1,0-51.7-3.8-73.3-29c-16.6-19.5-22.2-47.4-16.6-82.9
		c3.3-20.9,17.1-47.5,30.4-73.2c9.8-18.9,19.9-38.4,26.6-56.8c4.3-11.9,14-30.7,30.3-25.1c3.1,1.1,4.8,0.6,6.6,0
		c16.3-5.7,26,13.3,30.3,25.1c6.7,18.4,16.8,37.9,26.6,56.8c13.3,25.7,27.1,52.3,30.4,73.2c5.6,35.6,0,63.5-16.6,82.9
		C220.4,280.4,186.8,284.1,168.7,284.1z M57.8,254.3c-16.5-18.9-22.5-45.9-17.8-80.1c3.4-24.6,21.5-51.3,39.1-77.2
		c12.2-18,24.9-36.6,32.5-54.5c4-9.4,9.4-15.8,15.4-20.1c-2.5,4.3-4.8,9.1-6.8,14.5c-6.4,17.5-16.3,36.6-25.9,55
		c-14.5,28-28.3,54.5-32,77.8c-6.3,40.1,0.4,72.1,20,95c4.5,5.2,9.6,9.9,15.2,14C83.5,274.6,69,267.2,57.8,254.3z"/>
</g>
</svg>
