<?xml version="1.0" encoding="utf-8"?>
<!-- Generator: Adobe Illustrator 21.1.0, SVG Export Plug-In . SVG Version: 6.00 Build 0)  -->
<svg version="1.1" id="Capa_1" xmlns="http://www.w3.org/2000/svg" xmlns:xlink="http://www.w3.org/1999/xlink" x="0px" y="0px"
	 viewBox="0 0 512 512" style="enable-background:new 0 0 512 512;" xml:space="preserve">
<style type="text/css">
	.st0{fill:#F2EDEC;}
	.st1{fill:#E4DAD8;}
	.st2{fill:#F56C6C;}
	.st3{fill:#DB4D4D;}
	.st4{fill:#D7C8C5;}
	.st5{fill:#FA892D;}
	.st6{fill:#CAD95E;}
	.st7{fill:#FBA761;}
	.st8{fill:#3F3F3F;}
</style>
<polygon class="st0" points="264,504.5 63.6,504.5 39.6,127.8 296.1,127.8 "/>
<polygon class="st1" points="39.6,127.8 63.6,504.5 95.7,504.5 71.6,127.8 "/>
<g>
	<polygon class="st2" points="39.6,127.8 45.5,221 138.8,127.8 	"/>
	<polygon class="st2" points="296.1,127.8 265,127.8 53.1,339.7 59.1,432.9 289.7,202.2 	"/>
</g>
<g>
	<polygon class="st3" points="39.6,127.8 45.5,221 75.7,190.9 71.6,127.8 	"/>
	<polygon class="st3" points="53.1,339.7 59.1,432.9 89.2,402.8 83.2,309.5 	"/>
</g>
<path class="st1" d="M304.1,127.8H31.6c-8.9,0-16-7.2-16-16l0,0c0-8.9,7.2-16,16-16h272.5c8.9,0,16,7.2,16,16l0,0
	C320.1,120.6,312.9,127.8,304.1,127.8z"/>
<path class="st4" d="M47.6,111.7L47.6,111.7c0-8.9,7.2-16,16-16H31.6c-8.9,0-16,7.2-16,16l0,0c0,8.9,7.2,16,16,16h32.1
	C54.8,127.8,47.6,120.6,47.6,111.7z"/>
<path class="st5" d="M296.1,296.1c-115.1,0-208.4,93.3-208.4,208.4h416.8C504.5,389.4,411.2,296.1,296.1,296.1z"/>
<path class="st6" d="M412.1,402.1c2.7-5.4,4.2-11.4,4.2-17.8c0-22.1-17.9-40.1-40.1-40.1c-3.1,0-6.1,0.4-9.1,1c0.7-2.9,1-5.9,1-9.1
	c0-22.1-17.9-40.1-40.1-40.1c-6.4,0-12.4,1.5-17.8,4.2C305.3,283.9,290,272,272,272s-33.2,11.9-38.3,28.2
	c-5.4-2.7-11.4-4.2-17.8-4.2c-22.1,0-40.1,17.9-40.1,40.1c0,3.1,0.4,6.1,1,9.1c-2.9-0.7-5.9-1-9.1-1c-22.1,0-40.1,17.9-40.1,40.1
	c0,6.4,1.5,12.4,4.2,17.8c-16.3,5.1-28.2,20.3-28.2,38.3c0,22.1,17.9,40.1,40.1,40.1s40.1-17.9,40.1-40.1c0-6.4-1.5-12.4-4.2-17.8
	c16.3-5.1,28.2-20.3,28.2-38.3c0-3.1-0.4-6.1-1-9.1c2.9,0.7,5.9,1,9.1,1c18,0,33.2-11.9,38.3-28.2c5.4,2.7,11.4,4.2,17.8,4.2
	s12.4-1.5,17.8-4.2c5.1,16.3,20.3,28.2,38.3,28.2c3.1,0,6.1-0.4,9.1-1c-0.7,2.9-1,5.9-1,9.1c0,18,11.9,33.2,28.2,38.3
	c-2.7,5.4-4.2,11.4-4.2,17.8c0,22.1,17.9,40.1,40.1,40.1s40.1-17.9,40.1-40.1C440.4,422.4,428.5,407.1,412.1,402.1z"/>
<path class="st7" d="M215.9,296.1c-115.1,0-208.4,93.3-208.4,208.4h416.8C424.3,389.4,331,296.1,215.9,296.1z"/>
<path class="st5" d="M232,296.7c-5.3-0.4-10.6-0.6-16-0.6c-115.1,0-208.4,93.3-208.4,208.4h32.1C39.6,394.8,124.3,304.9,232,296.7z"
	/>
<path class="st0" d="M328.1,504.5H103.7v-48.1c0-35.4,28.7-64.1,64.1-64.1H264c35.4,0,64.1,28.7,64.1,64.1V504.5z"/>
<path class="st1" d="M199.9,392.3h-32.1c-35.4,0-64.1,28.7-64.1,64.1v48.1h32.1v-48.1C135.8,421,164.5,392.3,199.9,392.3z"/>
<path class="st8" d="M63.6,79.2c13,0,23.5-10.6,23.5-23.5S76.6,32.1,63.6,32.1S40.1,42.6,40.1,55.6S50.6,79.2,63.6,79.2z M63.6,47.1
	c4.7,0,8.5,3.8,8.5,8.5s-3.8,8.5-8.5,8.5s-8.5-3.8-8.5-8.5S58.9,47.1,63.6,47.1z"/>
<path class="st8" d="M264,79.2c13,0,23.5-10.6,23.5-23.5S277,32.1,264,32.1s-23.5,10.6-23.5,23.5S251,79.2,264,79.2z M264,47.1
	c4.7,0,8.5,3.8,8.5,8.5s-3.8,8.5-8.5,8.5c-4.7,0-8.5-3.8-8.5-8.5S259.3,47.1,264,47.1z"/>
<path class="st8" d="M167.8,47.1c13,0,23.5-10.6,23.5-23.5S180.8,0,167.8,0s-23.5,10.6-23.5,23.5S154.8,47.1,167.8,47.1z M167.8,15
	c4.7,0,8.5,3.8,8.5,8.5s-3.8,8.5-8.5,8.5s-8.5-3.8-8.5-8.5S163.1,15,167.8,15z"/>
<path class="st8" d="M203.7,61.9c2.8,1.9,6.8,1.6,9.3-0.7c2.2-2,3-5.2,2-8c-1-3-3.9-5.1-7.1-5.1c-3.2,0-6.1,2.1-7.1,5.1
	C199.7,56.4,200.9,60,203.7,61.9z"/>
<path class="st8" d="M104.8,50.5c1.2,2.8,3.9,4.6,6.9,4.6c3.3,0,6.4-2.3,7.2-5.5c0.8-2.9-0.3-6.1-2.7-8c-2.5-1.9-6-2-8.7-0.3
	C104.6,43.3,103.4,47.2,104.8,50.5z"/>
<path class="st8" d="M136.8,74.5c1.2,2.9,4.2,4.8,7.4,4.6c2.9-0.2,5.5-2.1,6.5-4.8c1.1-2.9,0.3-6.2-2-8.3c-2.5-2.3-6.4-2.6-9.2-0.7
	C136.6,67.4,135.5,71.2,136.8,74.5z"/>
<path class="st8" d="M477.3,387.1c-22.1-34-53.2-61.1-89.9-78.3c-3.8-1.8-8.2-0.1-10,3.6c-1.8,3.8-0.1,8.2,3.6,10
	C449.2,354.3,494,422.2,496.8,497h-65.1c-0.2-6.6-0.7-13.1-1.5-19.6c11.3-9.1,17.7-22.5,17.7-37c0-18.3-10.2-34.5-26-42.5
	c1.3-4.4,2-9,2-13.7c0-26.2-21.4-47.6-47.6-47.6c-0.2,0-0.3,0-0.5,0c0-0.2,0-0.3,0-0.5c0-26.2-21.4-47.6-47.6-47.6
	c-4.7,0-9.3,0.7-13.7,2c-5-9.8-13.1-17.5-22.9-21.9L303,135.3h1.1c13,0,23.5-10.6,23.5-23.5s-10.6-23.5-23.5-23.5H31.6
	C18.6,88.2,8,98.7,8,111.7s10.6,23.5,23.5,23.5h1l14.9,233.4c0,0.2,0,0.4,0.1,0.7C16.7,407.6,0,454.7,0,504.5c0,4.2,3.4,7.5,7.5,7.5
	h497c4.2,0,7.5-3.4,7.5-7.5C512,462.6,500,422,477.3,387.1z M409.9,409.2c13.7,4.2,22.9,16.7,22.9,31.1c0,6.8-2.1,13.2-5.8,18.6
	c-3.7-17.3-9.5-34-17.3-49.7C409.8,409.2,409.9,409.2,409.9,409.2z M376.2,351.7c18,0,32.6,14.6,32.6,32.6c0,5.1-1.1,9.9-3.4,14.5
	c-0.2,0.4-0.3,0.8-0.5,1.2c-9.5-17.2-21.5-33.1-35.7-47.5C371.6,352,373.9,351.7,376.2,351.7z M303.1,302.5
	c1.3,4.4,6.4,6.5,10.5,4.5c4.5-2.3,9.4-3.4,14.5-3.4c18,0,32.6,14.6,32.6,32.6c0,2.5-0.3,4.9-0.8,7.4c0,0,0,0,0,0
	c-31.8-28.5-70.7-46.6-112.5-52.7c6.1-7,15-11.3,24.6-11.3C286.4,279.5,298.9,288.8,303.1,302.5z M272,264.5
	c-17.4,0-33.3,9.5-41.6,24.5c-4.8-0.3-9.6-0.5-14.5-0.5c-0.6,0-1.3,0-1.9,0l66.5-66.5l-3.6,42.7C275.3,264.6,273.7,264.5,272,264.5z
	 M23,111.7c0-4.7,3.8-8.5,8.5-8.5h272.5c4.7,0,8.5,3.8,8.5,8.5s-3.8,8.5-8.5,8.5H31.6C26.9,120.2,23,116.4,23,111.7z M120.6,135.3
	L52,203.9l-4.4-68.7H120.6z M60.8,342.6l112.3-112.3c2.9-2.9,2.9-7.7,0-10.6c-2.9-2.9-7.7-2.9-10.6,0l-103,103l-6.3-98.7l88.6-88.6
	h105l-51.3,51.3c-2.7,2.7-2.9,7.3-0.4,10.2c2.8,3.3,8,3.5,11,0.4l61.9-61.9h19.8l-5.4,63.6l-87.9,87.9c-0.9,0.9-1.5,1.9-1.8,3
	c-48.9,5.2-94.2,26.7-129.5,62c-0.6,0.6-1.1,1.2-1.7,1.8L60.8,342.6z M111.2,497v-40.6c0-31.2,25.4-56.6,56.6-56.6H264
	c31.2,0,56.6,25.4,56.6,56.6V497H111.2z M335.7,497v-40.6c0-39.5-32.1-71.6-71.6-71.6h-96.2c-39.5,0-71.6,32.1-71.6,71.6V497h-81
	c4-107.3,92.5-193.4,200.8-193.4S412.7,389.7,416.7,497H335.7z"/>
<path class="st8" d="M222.9,357.3c-1.2-3-4.3-4.9-7.5-4.6c-3.1,0.2-5.8,2.5-6.7,5.5c-0.8,2.9,0.2,6.1,2.6,7.9c2.6,2,6.4,2.1,9.1,0.2
	C223.1,364.3,224.1,360.5,222.9,357.3z"/>
<path class="st8" d="M295,357.3c-1.2-3-4.3-4.9-7.5-4.6c-3.3,0.2-6,2.6-6.8,5.8c-1.5,6.5,6.1,11.7,11.6,7.8
	C295.2,364.4,296.4,360.6,295,357.3z"/>
<path class="st8" d="M150.7,357.3c-1.2-3-4.3-4.9-7.5-4.6c-3.1,0.2-5.8,2.5-6.7,5.5c-1.8,6.7,6,12.2,11.6,8.1
	C151,364.3,152,360.5,150.7,357.3z"/>
<path class="st8" d="M222.9,325.3c-2.5-6-11.4-6.1-13.9,0c-1.2,3-0.3,6.6,2.2,8.7c2.4,2,5.9,2.2,8.6,0.6
	C223,332.7,224.2,328.7,222.9,325.3z"/>
<path class="st8" d="M262.9,325.3c-1.2-2.8-4-4.7-7.1-4.6c-3.1,0.1-5.9,2.1-6.9,5c-1.1,3-0.1,6.3,2.3,8.3c2.5,2.1,6.2,2.3,8.9,0.4
	C263.1,332.4,264.3,328.6,262.9,325.3z"/>
<path class="st8" d="M182.8,325.3c-1.1-2.8-4.1-4.7-7.1-4.6c-3.1,0.1-5.9,2.1-6.9,5c-1.1,3-0.1,6.3,2.3,8.3c2.5,2.1,6.2,2.3,8.9,0.4
	C182.9,332.4,184.2,328.5,182.8,325.3z"/>
</svg>
