<?xml version="1.0" encoding="utf-8"?>
<!-- Generator: Adobe Illustrator 21.1.0, SVG Export Plug-In . SVG Version: 6.00 Build 0)  -->
<svg version="1.1" id="Capa_1" xmlns="http://www.w3.org/2000/svg" xmlns:xlink="http://www.w3.org/1999/xlink" x="0px" y="0px"
	 viewBox="0 0 356.8 356.8" style="enable-background:new 0 0 356.8 356.8;" xml:space="preserve">
<style type="text/css">
	.st0{fill:#FDD44B;}
	.st1{fill:#EF8829;}
	.st2{fill:#84BD93;}
	.st3{fill:#3F2D20;}
</style>
<g>
	<polygon class="st0" points="194.7,145.4 201.5,145.4 325.4,47.8 322.8,44.5 	"/>
	<polygon class="st0" points="251.3,26 250,25.2 162.6,145.5 164.5,145.5 255.3,20.6 	"/>
	<polygon class="st1" points="251.5,170.2 74.7,169.8 102.8,229.5 221.8,229.5 	"/>
	<path class="st2" d="M233.3,239.5c-1.3,2.6-2.8,0-5.7,0H93.9c-2.9,0-6.6,2.6-7.8,0l-18.2-37.8l14.8,29.5l17.1,111.3h129.7l21.9-142
		L233.3,239.5z M199.8,313.9c-10.8,4.8-25.1,7.4-40.1,7.4c-15,0-29.3-2.6-40.1-7.4c-12.8-5.6-19.8-13.9-19.8-23.2s7-17.5,19.8-23.2
		c10.8-4.8,25.1-7.4,40.1-7.4c15,0,29.3,2.6,40.1,7.4c12.8,5.6,19.8,13.9,19.8,23.2C219.6,300,212.6,308.2,199.8,313.9z"/>
	<path class="st0" d="M200.1,284.8c-7.4-2.7-17.6-4.6-30.4-4.6c-29,0-44.9,10.3-44.9,15.5c0,1.6,1.5,3.7,4.5,5.9
		c7.4,2.7,17.6,4.6,30.4,4.6c29,0,44.9-10.3,44.9-15.5C204.6,289.1,203.1,286.9,200.1,284.8z"/>
	<path class="st3" d="M199.8,267.5c-10.8-4.8-25.1-7.4-40.1-7.4c-15,0-29.3,2.6-40.1,7.4c-12.8,5.6-19.8,13.9-19.8,23.2
		s7,17.5,19.8,23.2c10.8,4.8,25.1,7.4,40.1,7.4c15,0,29.3-2.6,40.1-7.4c12.8-5.6,19.8-13.9,19.8-23.2S212.6,273.1,199.8,267.5z
		 M159.7,306.2c-29,0-44.9-10.3-44.9-15.5c0-5.3,15.8-15.5,44.9-15.5c29,0,44.9,10.3,44.9,15.5S188.7,306.2,159.7,306.2z"/>
	<path class="st3" d="M341.8,44.4l-11.9-15.1c-2.6-3.3-7.3-3.8-10.6-1.3l-119.2,93.9l71.7-98.6c2.4-3.4,1.7-8.1-1.7-10.5L254.7,1.4
		c-1.6-1.2-3.6-1.7-5.6-1.3c-2,0.3-3.7,1.4-4.9,3L140.7,145.4H52.7c-2.2,0-5.2,1.2-6.8,4.4l-31.7,64c-1.8,3.7-0.3,8.2,3.4,10.1
		c3.7,1.8,8.2,0.3,10.1-3.4l21.3-43l27.1,173c0.6,3.7,3.7,6.4,7.4,6.4H236c3.7,0,6.9-2.7,7.4-6.4l27.1-173l21.3,43
		c1.8,3.7,6.4,5.2,10.1,3.4c3.7-1.8,5.2-6.4,3.4-10.1l-31.7-64c-1.7-3.3-4-4.5-6.9-4.5h-41l114.8-90.4c1.6-1.2,2.6-3,2.8-5
		C343.6,47.9,343.1,45.9,341.8,44.4z M89.8,341.7l-21.9-140l18.2,37.8c1.3,2.6,3.9,4.3,6.8,4.3h133.6c2.9,0,5.5-1.7,6.8-4.3
		l18.2-37.8l-21.9,140H89.8z M221.8,228.7H97.6l-33-68.3h190.1L221.8,228.7z M255.3,20.5l-90.8,124.9h-5.2L251.9,18L255.3,20.5z
		 M201.5,145.4h-6.8L322.8,44.5l2.6,3.3L201.5,145.4z"/>
</g>
</svg>
